{"glyphs":{"0":{"ha":799,"x_min":74,"x_max":725,"o":"m 399 -14 q 224 29 296 -14 q 113 181 153 72 q 74 482 74 290 q 113 781 74 672 q 224 934 153 890 q 399 978 296 978 q 574 934 503 978 q 685 781 646 890 q 725 482 725 672 q 685 181 725 290 q 574 29 646 72 q 399 -14 503 -14 m 399 90 q 513 124 469 90 q 577 244 556 158 q 599 482 599 329 q 577 719 599 635 q 513 838 556 804 q 399 872 469 872 q 285 838 328 872 q 222 719 243 804 q 201 482 201 635 q 222 244 201 329 q 285 124 243 158 q 399 90 328 90 z "},"1":{"ha":799,"x_min":140,"x_max":504,"o":"m 379 850 l 140 804 l 140 906 l 422 964 l 504 964 l 504 0 l 379 0 l 379 850 z "},"2":{"ha":799,"x_min":79,"x_max":714,"o":"m 79 132 q 383 390 281 290 q 520 559 485 490 q 556 703 556 628 q 497 835 556 797 q 351 874 438 874 q 146 849 242 874 l 146 956 q 365 978 240 978 q 594 911 513 978 q 675 701 675 844 q 639 538 675 613 q 518 376 603 463 q 272 161 433 289 l 217 118 l 217 106 l 714 106 l 714 0 l 79 0 l 79 132 z "},"3":{"ha":799,"x_min":97,"x_max":685,"o":"m 314 -14 q 97 4 189 -14 l 97 114 q 313 90 193 90 q 565 267 565 90 q 498 408 565 367 q 289 450 431 450 l 213 450 l 213 546 l 288 546 q 478 592 411 546 q 544 718 544 638 q 494 838 544 801 q 339 875 444 875 q 242 867 296 875 q 143 847 188 860 l 143 950 q 235 970 179 963 q 344 978 292 978 q 581 917 503 978 q 660 725 660 856 q 616 583 660 635 q 489 506 572 531 l 489 497 q 685 265 685 464 q 593 58 685 129 q 314 -14 501 -14 z "},"4":{"ha":799,"x_min":49,"x_max":735,"o":"m 735 238 l 621 238 l 621 0 l 504 0 l 504 238 l 49 238 l 49 372 l 471 964 l 621 964 l 621 343 l 735 343 l 735 238 m 504 343 l 504 836 l 496 836 l 154 351 l 154 343 l 504 343 z "},"5":{"ha":799,"x_min":119,"x_max":703,"o":"m 318 -14 q 119 4 210 -14 l 119 114 q 217 95 172 100 q 317 90 261 90 q 514 138 444 90 q 583 299 583 186 q 519 457 583 408 q 307 506 456 506 q 122 485 238 506 l 188 964 l 638 964 l 638 856 l 282 856 l 242 592 q 354 600 293 600 q 615 529 526 600 q 703 307 703 458 q 602 64 703 142 q 318 -14 501 -14 z "},"6":{"ha":799,"x_min":79,"x_max":713,"o":"m 399 -14 q 79 374 79 -14 q 206 817 79 656 q 596 978 333 978 l 594 872 q 394 830 479 872 q 263 715 310 788 q 208 549 217 642 l 213 549 q 299 604 243 581 q 419 628 354 628 q 635 549 557 628 q 713 317 713 471 q 633 77 713 168 q 399 -14 554 -14 m 397 90 q 547 147 496 90 q 599 317 599 204 q 549 477 599 422 q 414 532 499 532 q 252 480 306 532 q 199 339 199 428 q 397 90 199 90 z "},"7":{"ha":799,"x_min":75,"x_max":711,"o":"m 604 856 l 75 856 l 75 964 l 711 964 l 711 842 l 315 0 l 188 0 l 604 856 z "},"8":{"ha":799,"x_min":69,"x_max":728,"o":"m 399 -14 q 155 53 240 -14 q 69 256 69 119 q 240 496 69 438 l 240 501 q 138 584 174 532 q 101 721 101 636 q 175 909 101 840 q 399 978 249 978 q 622 909 549 978 q 696 721 696 840 q 662 583 696 636 q 557 501 628 531 l 557 496 q 682 416 636 472 q 728 254 728 360 q 643 52 728 118 q 399 -14 558 -14 m 399 542 q 540 588 496 542 q 583 713 583 635 q 537 835 583 792 q 399 878 490 878 q 260 837 306 878 q 214 713 214 796 q 256 588 214 633 q 399 542 297 542 m 399 88 q 560 133 508 88 q 613 260 613 178 q 560 403 613 357 q 399 450 507 450 q 238 403 290 450 q 186 260 186 357 q 238 133 186 178 q 399 88 289 88 z "},"9":{"ha":799,"x_min":79,"x_max":713,"o":"m 200 88 q 474 178 375 88 q 586 415 572 269 l 581 415 q 497 360 551 383 q 375 336 442 336 q 158 412 236 336 q 79 640 79 488 q 160 884 79 790 q 394 978 240 978 q 626 886 539 978 q 713 586 713 794 q 587 143 713 303 q 199 -17 461 -17 l 200 88 m 379 431 q 542 481 488 431 q 596 622 596 532 q 544 810 596 744 q 394 875 492 875 q 247 815 297 875 q 196 640 196 754 q 246 483 196 536 q 379 431 296 431 z "},"\u0000":{"ha":0,"x_min":0,"x_max":0,"o":""},"\r":{"ha":357,"x_min":0,"x_max":0,"o":""}," ":{"ha":357,"x_min":0,"x_max":0,"o":""},"!":{"ha":496,"x_min":160,"x_max":336,"o":"m 181 964 l 317 964 l 296 281 l 201 281 l 181 964 m 247 -8 q 178 8 197 -8 q 160 79 160 25 q 178 150 160 133 q 247 167 197 167 q 317 150 297 167 q 336 79 336 133 q 317 8 336 25 q 247 -8 299 -8 z "},"\"":{"ha":563,"x_min":107,"x_max":456,"o":"m 107 1056 l 246 1056 l 214 644 l 139 644 l 107 1056 m 317 1056 l 456 1056 l 425 644 l 349 644 l 317 1056 z "},"#":{"ha":833,"x_min":25,"x_max":808,"o":"m 669 613 l 617 364 l 808 364 l 808 267 l 596 267 l 540 0 l 428 0 l 483 267 l 260 267 l 204 0 l 92 0 l 147 267 l 25 267 l 25 364 l 168 364 l 221 613 l 25 613 l 25 710 l 242 710 l 294 964 l 407 964 l 354 710 l 578 710 l 631 964 l 743 964 l 690 710 l 808 710 l 808 613 l 669 613 m 557 613 l 333 613 l 281 364 l 504 364 l 557 613 z "},"$":{"ha":799,"x_min":88,"x_max":693,"o":"m 693 278 q 630 88 693 151 q 431 14 567 25 l 431 -192 l 343 -192 l 343 13 q 192 24 263 14 q 88 46 121 33 l 88 154 q 199 128 131 139 q 343 115 267 117 l 343 464 q 197 516 246 489 q 125 590 147 543 q 103 718 103 636 q 343 964 103 947 l 343 1093 l 431 1093 l 431 964 q 555 952 493 961 q 646 932 617 943 l 646 829 q 552 851 613 842 q 431 864 492 861 l 431 549 q 581 493 525 525 q 665 410 638 461 q 693 278 693 358 m 213 718 q 222 651 213 676 q 258 607 231 626 q 343 571 286 588 l 343 864 q 242 829 271 860 q 213 718 213 799 m 431 118 q 547 159 511 125 q 583 268 583 193 q 571 351 583 321 q 526 402 558 382 q 431 440 493 422 l 431 118 z "},"%":{"ha":1140,"x_min":94,"x_max":1046,"o":"m 292 449 q 144 508 194 449 q 94 713 94 567 q 144 918 94 858 q 292 978 194 978 q 439 918 389 978 q 489 713 489 858 q 439 508 489 567 q 292 449 389 449 m 792 964 l 885 964 l 344 0 l 253 0 l 792 964 m 292 521 q 355 538 332 521 q 388 595 378 554 q 397 713 397 636 q 388 828 397 788 q 355 885 378 868 q 292 901 332 901 q 231 885 253 901 q 198 828 208 868 q 188 713 188 788 q 198 596 188 638 q 231 538 208 554 q 292 521 253 521 m 849 -14 q 701 45 751 -14 q 650 250 650 104 q 701 456 650 396 q 849 515 751 515 q 996 456 946 515 q 1046 250 1046 396 q 996 45 1046 104 q 849 -14 946 -14 m 849 58 q 911 75 889 58 q 943 133 933 92 q 953 250 953 174 q 943 365 953 325 q 911 422 933 406 q 849 439 889 439 q 788 422 810 439 q 755 365 765 406 q 744 250 744 325 q 755 133 744 175 q 788 75 765 92 q 849 58 810 58 z "},"&":{"ha":889,"x_min":54,"x_max":889,"o":"m 714 179 q 788 123 750 140 q 889 106 826 106 l 889 0 q 733 18 786 0 q 628 94 679 36 q 493 12 561 38 q 351 -14 425 -14 q 195 19 263 -14 q 91 111 128 51 q 54 249 54 171 q 104 408 54 336 q 269 543 154 479 q 211 649 226 603 q 196 750 196 694 q 226 869 196 817 q 311 949 257 921 q 433 978 365 978 q 594 919 535 978 q 653 771 653 860 q 601 629 653 688 q 438 515 550 571 l 640 267 q 724 500 714 376 l 844 500 q 801 326 831 403 q 714 179 772 249 m 431 875 q 352 841 383 875 q 321 756 321 807 q 333 677 321 715 q 376 594 346 639 q 494 672 458 633 q 531 765 531 710 q 503 844 531 814 q 431 875 476 875 m 181 263 q 232 139 181 185 q 367 93 283 93 q 467 112 422 93 q 563 175 513 131 l 332 463 q 216 367 251 415 q 181 263 181 318 z "},"'":{"ha":351,"x_min":107,"x_max":246,"o":"m 107 1056 l 246 1056 l 214 644 l 139 644 l 107 1056 z "},"(":{"ha":499,"x_min":90,"x_max":428,"o":"m 310 -278 q 90 381 90 38 q 147 728 90 561 q 314 1056 203 894 l 428 1056 q 263 718 315 879 q 210 390 210 557 q 262 55 210 219 q 424 -278 314 -110 l 310 -278 z "},")":{"ha":499,"x_min":69,"x_max":408,"o":"m 69 -278 q 235 60 182 -101 q 288 388 288 221 q 235 723 288 558 q 75 1056 183 888 l 189 1056 q 408 397 408 740 q 352 50 408 217 q 185 -278 296 -117 l 69 -278 z "},"*":{"ha":597,"x_min":42,"x_max":556,"o":"m 104 636 l 228 782 l 42 825 l 79 939 l 254 865 l 239 1056 l 358 1056 l 343 865 l 518 939 l 556 825 l 369 782 l 494 636 l 399 567 l 299 731 l 200 567 l 104 636 z "},"+":{"ha":767,"x_min":49,"x_max":718,"o":"m 718 358 l 442 358 l 442 82 l 324 82 l 324 358 l 49 358 l 49 476 l 324 476 l 324 751 l 442 751 l 442 476 l 718 476 l 718 358 z "},",":{"ha":419,"x_min":53,"x_max":299,"o":"m 53 -189 q 147 0 111 -100 q 183 176 183 100 l 299 176 q 253 -10 299 93 q 151 -189 208 -112 l 53 -189 z "},"-":{"ha":611,"x_min":100,"x_max":510,"o":"m 100 476 l 510 476 l 510 376 l 100 376 l 100 476 z "},".":{"ha":419,"x_min":121,"x_max":299,"o":"m 210 -8 q 156 -2 175 -8 q 129 23 138 4 q 121 81 121 42 q 140 151 121 135 q 210 167 158 167 q 280 151 261 167 q 299 81 299 135 q 280 8 299 25 q 210 -8 261 -8 z "},"/":{"ha":694,"x_min":107,"x_max":588,"o":"m 481 1006 l 588 1006 l 214 -42 l 107 -42 l 481 1006 z "},":":{"ha":525,"x_min":174,"x_max":351,"o":"m 263 583 q 192 599 211 583 q 174 671 174 615 q 192 742 174 726 q 263 758 211 758 q 333 742 314 758 q 351 671 351 725 q 333 600 351 617 q 263 583 314 583 m 263 -8 q 209 -2 228 -8 q 182 23 190 4 q 174 81 174 42 q 192 151 174 135 q 263 167 211 167 q 333 151 314 167 q 351 81 351 135 q 333 8 351 25 q 263 -8 314 -8 z "},";":{"ha":525,"x_min":92,"x_max":351,"o":"m 222 176 l 338 176 q 292 -10 338 93 q 190 -189 247 -112 l 92 -189 q 186 0 150 -100 q 222 176 222 100 m 174 672 q 192 742 174 726 q 263 758 211 758 q 333 742 314 758 q 351 672 351 726 q 333 600 351 617 q 263 583 314 583 q 209 590 228 583 q 182 615 190 596 q 174 672 174 633 z "},"<":{"ha":767,"x_min":49,"x_max":718,"o":"m 718 653 l 138 417 l 718 181 l 718 63 l 49 335 l 49 499 l 718 771 l 718 653 z "},"=":{"ha":767,"x_min":49,"x_max":718,"o":"m 49 640 l 718 640 l 718 522 l 49 522 l 49 640 m 49 313 l 718 313 l 718 194 l 49 194 l 49 313 z "},">":{"ha":767,"x_min":49,"x_max":718,"o":"m 718 499 l 718 335 l 49 63 l 49 181 l 629 417 l 49 653 l 49 771 l 718 499 z "},"?":{"ha":599,"x_min":58,"x_max":568,"o":"m 211 338 q 238 438 211 393 q 336 540 264 482 q 419 624 400 590 q 439 719 439 658 q 423 810 439 779 q 369 852 407 840 q 258 864 331 864 q 153 856 208 864 q 58 833 97 847 l 58 944 q 271 975 156 975 q 440 953 375 975 q 536 878 504 932 q 568 732 568 825 q 552 615 568 660 q 508 541 536 569 q 428 474 481 513 q 343 396 365 428 q 321 318 321 364 l 321 276 l 211 276 l 211 338 m 267 -8 q 198 8 217 -8 q 179 79 179 25 q 198 150 179 133 q 267 167 217 167 q 336 150 317 167 q 356 79 356 133 q 337 8 356 25 q 267 -8 318 -8 z "},"@":{"ha":1194,"x_min":78,"x_max":1153,"o":"m 631 -153 q 220 -15 363 -153 q 78 368 78 124 q 158 685 78 547 q 374 900 238 824 q 672 976 510 976 q 1027 860 901 976 q 1153 529 1153 743 q 1120 323 1153 414 q 1028 181 1088 232 q 893 129 969 129 q 751 214 797 129 q 660 147 710 168 q 546 126 611 126 q 400 182 451 126 q 349 333 349 238 q 389 528 349 446 q 496 652 429 610 q 638 694 563 694 q 726 675 689 694 q 785 619 764 656 l 797 688 l 899 688 l 842 399 q 829 308 829 336 q 849 245 829 269 q 901 221 869 221 q 1006 303 965 221 q 1046 522 1046 386 q 948 790 1046 700 q 671 881 850 881 q 426 817 536 881 q 251 638 315 754 q 186 369 186 522 q 642 -56 186 -56 q 946 -10 796 -56 l 946 -103 q 631 -153 788 -153 m 564 221 q 681 272 636 221 q 743 414 726 322 q 750 474 750 451 q 726 572 750 540 q 636 604 703 604 q 540 565 581 604 q 478 463 499 525 q 457 332 457 400 q 564 221 457 221 z "},"A":{"ha":926,"x_min":15,"x_max":911,"o":"m 675 288 l 249 288 l 143 0 l 15 0 l 381 964 l 547 964 l 911 0 l 779 0 l 675 288 m 635 399 l 472 847 l 456 847 l 290 399 l 635 399 z "},"B":{"ha":861,"x_min":128,"x_max":761,"o":"m 128 964 l 406 964 q 601 937 531 964 q 700 854 671 910 q 729 708 729 799 q 589 504 729 546 l 589 499 q 722 423 682 479 q 761 275 761 367 q 688 68 761 136 q 433 0 615 0 l 128 0 l 128 964 m 347 542 q 499 556 443 542 q 581 604 554 569 q 607 701 607 639 q 581 804 607 771 q 503 848 556 838 q 347 858 450 858 l 253 858 l 253 542 l 347 542 m 382 107 q 538 121 485 107 q 614 171 592 135 q 636 276 636 207 q 613 374 636 338 q 535 426 590 410 q 382 443 479 443 l 253 443 l 253 107 l 382 107 z "},"C":{"ha":832,"x_min":100,"x_max":772,"o":"m 539 -14 q 301 28 396 -14 q 153 179 206 71 q 100 482 100 288 q 216 863 100 749 q 553 978 332 978 q 761 950 674 978 l 761 835 q 556 868 672 868 q 372 831 443 868 q 266 710 301 794 q 231 485 231 626 q 264 249 231 333 q 364 132 297 165 q 543 99 431 99 q 662 108 608 99 q 772 136 715 117 l 772 28 q 669 -3 729 8 q 539 -14 608 -14 z "},"D":{"ha":971,"x_min":128,"x_max":871,"o":"m 406 964 q 658 925 557 964 q 815 781 758 886 q 871 482 871 675 q 750 109 871 218 q 406 0 629 0 l 128 0 l 128 964 l 406 964 m 403 110 q 654 193 567 110 q 742 482 742 276 q 699 712 742 629 q 583 825 657 794 q 403 856 510 856 l 253 856 l 253 110 l 403 110 z "},"E":{"ha":772,"x_min":128,"x_max":699,"o":"m 699 113 l 699 0 l 128 0 l 128 964 l 664 964 l 664 853 l 253 853 l 253 554 l 636 554 l 636 449 l 253 449 l 253 113 l 699 113 z "},"F":{"ha":732,"x_min":128,"x_max":664,"o":"m 253 853 l 253 540 l 636 540 l 636 429 l 253 429 l 253 0 l 128 0 l 128 964 l 664 964 l 664 853 l 253 853 z "},"G":{"ha":951,"x_min":100,"x_max":842,"o":"m 551 -14 q 303 28 400 -14 q 153 178 206 69 q 100 482 100 288 q 218 864 100 750 q 565 978 336 978 q 705 967 635 978 q 817 940 775 957 l 817 829 q 571 868 717 868 q 382 835 456 868 q 269 718 308 803 q 231 482 231 633 q 268 238 231 322 q 376 124 306 154 q 565 94 447 94 q 647 99 603 94 q 722 113 692 104 l 722 411 l 529 411 l 529 517 l 842 517 l 842 26 q 551 -14 715 -14 z "},"H":{"ha":983,"x_min":128,"x_max":856,"o":"m 856 964 l 856 0 l 729 0 l 729 467 l 253 467 l 253 0 l 128 0 l 128 964 l 253 964 l 253 571 l 729 571 l 729 964 l 856 964 z "},"I":{"ha":381,"x_min":128,"x_max":253,"o":"m 128 964 l 253 964 l 253 0 l 128 0 l 128 964 z "},"J":{"ha":376,"x_min":-106,"x_max":254,"o":"m -8 -251 q -106 -243 -67 -251 l -106 -132 q -12 -142 -54 -142 q 95 -95 61 -142 q 129 35 129 -49 l 129 964 l 254 964 l 254 22 q 188 -179 254 -107 q -8 -251 122 -251 z "},"K":{"ha":853,"x_min":128,"x_max":826,"o":"m 826 0 l 665 0 l 321 453 l 253 453 l 253 0 l 128 0 l 128 964 l 253 964 l 253 563 l 321 563 l 658 964 l 814 964 l 419 515 l 826 0 z "},"L":{"ha":704,"x_min":128,"x_max":671,"o":"m 671 113 l 671 0 l 128 0 l 128 964 l 253 964 l 253 113 l 671 113 z "},"M":{"ha":1153,"x_min":128,"x_max":1025,"o":"m 128 964 l 328 964 l 574 343 l 582 343 l 828 964 l 1025 964 l 1025 0 l 900 0 l 900 838 l 892 838 l 644 218 l 508 218 l 258 838 l 250 838 l 250 0 l 128 0 l 128 964 z "},"N":{"ha":1024,"x_min":128,"x_max":896,"o":"m 128 964 l 324 964 l 763 164 l 771 164 l 771 964 l 896 964 l 896 0 l 731 0 l 258 849 l 250 849 l 250 0 l 128 0 l 128 964 z "},"O":{"ha":1032,"x_min":100,"x_max":931,"o":"m 515 -14 q 282 31 372 -14 q 146 183 192 75 q 100 482 100 292 q 146 781 100 672 q 282 933 192 889 q 515 978 372 978 q 749 933 658 978 q 885 781 839 889 q 931 482 931 672 q 885 183 931 292 q 749 31 839 75 q 515 -14 658 -14 m 515 93 q 694 133 632 93 q 778 254 756 172 q 801 482 801 336 q 778 707 801 624 q 694 831 756 790 q 515 872 632 872 q 338 831 400 872 q 253 707 276 790 q 231 482 231 624 q 253 254 231 336 q 338 133 276 172 q 515 93 399 93 z "},"P":{"ha":829,"x_min":128,"x_max":749,"o":"m 128 964 l 396 964 q 608 932 531 964 q 717 833 685 900 q 749 656 749 767 q 713 473 749 542 q 599 373 676 404 q 396 342 522 342 l 253 342 l 253 0 l 128 0 l 128 964 m 385 446 q 527 465 476 446 q 599 528 578 483 q 621 656 621 574 q 599 774 621 731 q 526 836 576 817 q 385 856 475 856 l 253 856 l 253 446 l 385 446 z "},"Q":{"ha":1032,"x_min":100,"x_max":931,"o":"m 931 482 q 861 135 931 247 q 646 -3 792 24 l 806 -201 l 657 -201 l 522 -14 l 515 -14 q 282 31 372 -14 q 146 183 192 75 q 100 482 100 292 q 146 781 100 672 q 282 933 192 889 q 515 978 372 978 q 749 933 658 978 q 885 781 839 889 q 931 482 931 672 m 515 93 q 694 133 632 93 q 778 254 756 172 q 801 482 801 336 q 778 707 801 624 q 694 831 756 790 q 515 872 632 872 q 338 831 400 872 q 253 707 276 790 q 231 482 231 624 q 253 254 231 336 q 338 133 276 172 q 515 93 399 93 z "},"R":{"ha":853,"x_min":128,"x_max":832,"o":"m 685 0 l 419 389 q 372 388 404 388 l 253 388 l 253 0 l 128 0 l 128 964 l 372 964 q 589 937 510 964 q 704 848 668 910 q 740 679 740 786 q 692 491 740 556 q 543 403 644 426 l 832 0 l 685 0 m 361 492 q 511 505 458 492 q 589 558 564 518 q 614 679 614 599 q 588 790 614 751 q 509 842 563 828 q 361 856 456 856 l 253 856 l 253 492 l 361 492 z "},"S":{"ha":786,"x_min":79,"x_max":707,"o":"m 365 -14 q 201 -2 282 -14 q 79 24 119 10 l 79 139 q 206 109 126 122 q 365 96 285 96 q 531 133 476 96 q 585 258 585 171 q 567 353 585 319 q 503 408 549 386 q 363 451 457 429 q 201 506 257 476 q 119 584 144 535 q 93 717 93 633 q 172 913 93 849 q 414 978 251 978 q 551 967 482 978 q 656 943 619 957 l 656 829 q 545 857 613 846 q 415 868 478 868 q 301 856 343 868 q 238 810 258 843 q 217 717 217 778 q 231 642 217 669 q 285 596 244 615 q 414 556 326 576 q 590 497 528 529 q 679 409 651 464 q 707 260 707 354 q 365 -14 707 -14 z "},"T":{"ha":733,"x_min":22,"x_max":710,"o":"m 710 853 l 429 853 l 429 0 l 304 0 l 304 853 l 22 853 l 22 964 l 710 964 l 710 853 z "},"U":{"ha":974,"x_min":124,"x_max":851,"o":"m 486 -14 q 213 63 301 -14 q 124 311 124 139 l 124 964 l 247 964 l 247 339 q 270 194 247 246 q 345 119 293 142 q 488 96 397 96 q 633 119 582 96 q 706 193 685 142 q 728 339 728 244 l 728 964 l 851 964 l 851 311 q 761 65 851 143 q 486 -14 671 -14 z "},"V":{"ha":857,"x_min":22,"x_max":836,"o":"m 22 964 l 156 964 l 426 132 l 435 132 l 710 964 l 836 964 l 504 0 l 349 0 l 22 964 z "},"W":{"ha":1247,"x_min":36,"x_max":1211,"o":"m 36 964 l 167 964 l 347 146 l 356 146 l 551 851 l 701 851 l 897 146 l 906 146 l 1085 964 l 1211 964 l 982 0 l 824 0 l 628 714 l 619 714 l 419 0 l 261 0 l 36 964 z "},"X":{"ha":867,"x_min":32,"x_max":833,"o":"m 349 490 l 58 964 l 204 964 l 433 568 l 442 568 l 686 964 l 822 964 l 521 499 l 833 0 l 688 0 l 440 414 l 432 414 l 172 0 l 32 0 l 349 490 z "},"Y":{"ha":825,"x_min":8,"x_max":817,"o":"m 349 414 l 8 964 l 153 964 l 413 528 l 421 528 l 679 964 l 817 964 l 474 415 l 474 0 l 349 0 l 349 414 z "},"Z":{"ha":869,"x_min":81,"x_max":810,"o":"m 81 128 l 635 844 l 633 853 l 108 853 l 108 964 l 778 964 l 778 844 l 215 121 l 215 113 l 810 113 l 810 0 l 81 0 l 81 128 z "},"[":{"ha":408,"x_min":97,"x_max":360,"o":"m 97 1056 l 360 1056 l 360 953 l 218 953 l 218 -175 l 360 -175 l 360 -278 l 97 -278 l 97 1056 z "},"\\":{"ha":708,"x_min":32,"x_max":675,"o":"m 32 1056 l 144 1056 l 675 -139 l 563 -139 l 32 1056 z "},"]":{"ha":408,"x_min":47,"x_max":311,"o":"m 47 -175 l 190 -175 l 190 953 l 47 953 l 47 1056 l 311 1056 l 311 -278 l 47 -278 l 47 -175 z "},"^":{"ha":767,"x_min":86,"x_max":681,"o":"m 563 438 l 383 876 l 204 438 l 86 438 l 303 964 l 467 964 l 681 438 l 563 438 z "},"_":{"ha":694,"x_min":0,"x_max":694,"o":"m 0 -186 l 694 -186 l 694 -283 l 0 -283 l 0 -186 z "},"`":{"ha":481,"x_min":78,"x_max":349,"o":"m 78 1046 l 232 1046 l 349 854 l 251 854 l 78 1046 z "},"a":{"ha":850,"x_min":76,"x_max":722,"o":"m 424 764 q 656 703 590 764 q 722 532 722 643 l 722 0 l 621 0 l 603 114 q 497 20 571 54 q 335 -14 422 -14 q 76 210 76 -14 q 153 393 76 338 q 374 449 231 449 l 603 449 l 603 511 q 564 625 603 586 q 418 664 525 664 q 253 647 333 664 l 253 753 q 424 764 342 764 m 346 86 q 506 124 439 86 q 603 229 574 163 l 603 353 l 382 353 q 242 324 283 353 q 200 211 200 294 q 234 117 200 149 q 346 86 268 86 z "},"b":{"ha":882,"x_min":126,"x_max":799,"o":"m 489 764 q 732 665 665 764 q 799 375 799 565 q 731 92 799 197 q 489 -14 663 -14 q 328 24 385 -14 q 246 131 271 61 l 231 0 l 126 0 l 126 1056 l 246 1056 l 246 615 q 328 725 271 686 q 489 764 386 764 m 474 88 q 634 164 594 88 q 674 375 674 240 q 633 589 674 514 q 474 664 593 664 q 292 591 344 664 q 240 375 240 518 q 293 162 240 236 q 474 88 346 88 z "},"c":{"ha":690,"x_min":82,"x_max":628,"o":"m 429 -14 q 238 22 314 -14 q 122 144 161 58 q 82 375 82 229 q 122 606 82 521 q 238 728 161 692 q 429 764 314 764 q 625 736 542 764 l 625 626 q 431 660 536 660 q 299 634 346 660 q 231 547 251 608 q 210 374 210 485 q 231 203 210 264 q 299 117 251 142 q 432 92 346 92 q 628 124 550 92 l 628 14 q 539 -6 596 3 q 429 -14 482 -14 z "},"d":{"ha":882,"x_min":83,"x_max":757,"o":"m 757 1056 l 757 0 l 656 0 l 638 124 q 552 24 614 61 q 393 -14 490 -14 q 151 86 218 -14 q 83 375 83 186 q 152 658 83 551 q 393 764 221 764 q 556 726 499 764 q 638 619 613 689 l 638 1056 l 757 1056 m 411 88 q 591 159 540 88 q 642 375 642 231 q 590 590 642 515 q 411 664 539 664 q 283 624 326 664 q 225 524 239 585 q 211 375 211 463 q 226 224 211 285 q 284 125 240 163 q 411 88 328 88 z "},"e":{"ha":803,"x_min":82,"x_max":722,"o":"m 722 450 q 715 363 722 421 l 207 331 q 261 148 208 204 q 447 92 314 92 q 574 106 508 92 q 682 140 639 119 l 682 31 q 576 -1 647 13 q 429 -14 506 -14 q 238 22 314 -14 q 122 144 161 58 q 82 375 82 229 q 167 676 82 589 q 422 764 253 764 q 658 675 594 764 q 722 450 722 586 m 604 449 q 592 563 604 517 q 539 637 579 608 q 422 665 499 665 q 292 637 339 665 q 228 556 246 608 q 207 419 210 503 l 604 449 z "},"f":{"ha":485,"x_min":25,"x_max":486,"o":"m 403 965 q 322 947 350 965 q 283 883 294 928 q 269 750 271 838 l 446 750 l 446 651 l 269 651 l 269 0 l 150 0 l 150 651 l 25 651 l 25 750 l 150 750 l 150 757 q 180 948 150 882 q 264 1038 210 1014 q 403 1061 318 1061 q 486 1054 442 1061 l 486 958 q 403 965 451 965 z "},"g":{"ha":883,"x_min":83,"x_max":757,"o":"m 757 750 l 757 53 q 667 -192 757 -107 q 390 -278 576 -278 q 208 -260 296 -278 l 208 -158 q 392 -175 294 -175 q 578 -119 518 -175 q 638 65 638 -62 l 638 140 q 556 35 614 71 q 394 0 499 0 q 151 97 218 0 q 83 382 83 194 q 152 661 83 558 q 394 764 221 764 q 558 724 501 764 q 638 610 614 683 l 638 750 l 757 750 m 411 100 q 591 169 540 100 q 642 382 642 239 q 590 592 642 521 q 411 664 539 664 q 283 626 326 664 q 225 528 239 589 q 211 382 211 468 q 226 232 211 292 q 284 136 240 172 q 411 100 328 100 z "},"h":{"ha":858,"x_min":126,"x_max":738,"o":"m 486 764 q 681 700 625 764 q 738 519 738 636 l 738 0 l 618 0 l 618 475 q 588 613 618 569 q 474 657 558 657 q 331 627 389 657 q 246 507 274 597 l 246 0 l 126 0 l 126 1056 l 246 1056 l 246 643 q 342 737 278 710 q 486 764 407 764 z "},"i":{"ha":372,"x_min":115,"x_max":258,"o":"m 188 888 q 131 901 146 888 q 115 958 115 914 q 131 1016 115 1003 q 188 1029 146 1029 q 243 1016 228 1029 q 258 958 258 1003 q 243 901 258 915 q 188 888 228 888 m 126 750 l 246 750 l 246 0 l 126 0 l 126 750 z "},"j":{"ha":372,"x_min":-97,"x_max":258,"o":"m 188 888 q 131 901 146 888 q 115 958 115 914 q 131 1016 115 1003 q 188 1029 146 1029 q 243 1016 228 1029 q 258 958 258 1003 q 243 901 258 915 q 188 888 228 888 m -10 -278 q -97 -271 -49 -278 l -97 -172 q -1 -179 -35 -179 q 80 -161 53 -179 q 117 -101 107 -143 q 126 22 126 -58 l 126 750 l 246 750 l 246 10 q 218 -171 246 -108 q 136 -256 190 -233 q -10 -278 82 -278 z "},"k":{"ha":719,"x_min":126,"x_max":714,"o":"m 714 0 l 560 0 l 286 350 l 246 350 l 246 0 l 126 0 l 126 1056 l 246 1056 l 246 443 l 289 443 l 549 750 l 697 750 l 382 401 l 714 0 z "},"l":{"ha":397,"x_min":126,"x_max":372,"o":"m 293 -8 q 167 30 208 -8 q 126 151 126 68 l 126 1056 l 246 1056 l 246 182 q 261 110 246 128 q 315 92 276 92 q 372 99 349 92 l 372 0 q 293 -8 339 -8 z "},"m":{"ha":1279,"x_min":126,"x_max":1160,"o":"m 914 764 q 1100 698 1040 764 q 1160 518 1160 632 l 1160 0 l 1040 0 l 1040 475 q 1008 612 1040 567 q 896 657 976 657 q 773 628 822 657 q 701 525 724 600 l 701 519 l 701 0 l 582 0 l 582 475 q 552 613 582 568 q 444 657 522 657 q 319 629 367 657 q 246 521 272 601 l 246 0 l 126 0 l 126 750 l 246 750 l 246 651 q 333 739 278 714 q 463 764 388 764 q 681 642 629 764 q 914 764 736 764 z "},"n":{"ha":858,"x_min":126,"x_max":738,"o":"m 486 764 q 681 700 625 764 q 738 519 738 636 l 738 0 l 617 0 l 617 475 q 588 613 617 569 q 474 657 558 657 q 331 627 389 657 q 246 507 274 597 l 246 0 l 126 0 l 126 750 l 246 750 l 246 643 q 342 737 278 710 q 486 764 407 764 z "},"o":{"ha":858,"x_min":82,"x_max":775,"o":"m 429 -14 q 238 22 314 -14 q 122 144 161 58 q 82 375 82 229 q 122 606 82 521 q 238 728 161 692 q 429 764 314 764 q 621 728 546 764 q 735 606 696 692 q 775 375 775 521 q 735 144 775 229 q 621 22 696 58 q 429 -14 546 -14 m 429 88 q 563 114 515 88 q 629 201 610 140 q 649 375 649 263 q 628 549 649 486 q 560 638 607 611 q 429 664 513 664 q 297 638 343 664 q 230 549 250 611 q 210 375 210 488 q 231 202 210 264 q 299 114 251 140 q 429 88 346 88 z "},"p":{"ha":882,"x_min":126,"x_max":799,"o":"m 489 764 q 732 665 665 764 q 799 375 799 565 q 731 92 799 197 q 489 -14 663 -14 q 328 24 385 -14 q 246 131 271 61 l 246 -278 l 126 -278 l 126 750 l 246 750 l 246 615 q 328 725 271 686 q 489 764 386 764 m 474 88 q 634 164 594 88 q 674 375 674 240 q 633 589 674 514 q 474 664 593 664 q 292 591 344 664 q 240 375 240 518 q 293 162 240 236 q 474 88 346 88 z "},"q":{"ha":883,"x_min":83,"x_max":758,"o":"m 758 750 l 758 -278 l 639 -278 l 639 142 q 557 26 615 67 q 393 -14 499 -14 q 151 86 218 -14 q 83 375 83 186 q 152 658 83 551 q 393 764 221 764 q 557 726 500 764 q 639 615 614 688 l 639 750 l 758 750 m 411 88 q 591 159 540 88 q 642 375 642 231 q 590 590 642 515 q 411 664 539 664 q 283 624 326 664 q 225 524 239 585 q 211 375 211 463 q 226 224 211 285 q 284 125 240 163 q 411 88 328 88 z "},"r":{"ha":526,"x_min":126,"x_max":499,"o":"m 499 764 l 494 656 l 478 656 q 335 619 396 656 q 246 490 275 582 l 246 0 l 126 0 l 126 750 l 246 750 l 246 614 q 341 731 278 699 q 485 764 404 764 l 499 764 z "},"s":{"ha":665,"x_min":82,"x_max":585,"o":"m 300 -8 q 179 -1 246 -8 q 82 15 113 6 l 82 118 q 185 98 122 107 q 299 89 249 89 q 430 115 388 89 q 472 204 472 140 q 460 274 472 250 q 413 312 447 297 q 304 344 379 326 q 176 390 221 364 q 113 456 131 415 q 94 561 94 496 q 164 709 94 654 q 364 764 233 764 q 472 757 418 764 q 553 739 525 750 l 544 638 q 463 658 511 650 q 365 667 415 667 q 244 643 282 667 q 207 558 207 619 q 219 499 207 519 q 259 465 231 478 q 350 439 288 453 q 490 392 440 418 q 562 324 539 367 q 585 208 585 281 q 300 -8 585 -8 z "},"t":{"ha":468,"x_min":21,"x_max":442,"o":"m 360 92 q 442 100 403 92 l 442 -1 q 357 -8 393 -8 q 222 10 269 -8 q 153 80 175 29 q 132 229 132 131 l 132 650 l 21 650 l 21 750 l 132 750 l 132 928 l 251 928 l 251 750 l 438 750 l 438 650 l 251 650 l 251 236 q 260 145 251 175 q 290 103 268 115 q 360 92 313 92 z "},"u":{"ha":851,"x_min":121,"x_max":725,"o":"m 725 750 l 725 0 l 624 0 l 608 108 q 372 -14 551 -14 q 177 49 233 -14 q 121 231 121 113 l 121 750 l 240 750 l 240 275 q 270 137 240 182 q 385 92 300 92 q 522 122 468 92 q 606 240 576 151 l 606 750 l 725 750 z "},"v":{"ha":731,"x_min":14,"x_max":717,"o":"m 14 750 l 135 750 l 363 119 l 371 119 l 590 750 l 717 750 l 436 0 l 294 0 l 14 750 z "},"w":{"ha":1150,"x_min":31,"x_max":1121,"o":"m 31 750 l 150 750 l 308 121 l 317 121 l 503 750 l 644 750 l 836 121 l 844 121 l 1003 750 l 1121 750 l 913 0 l 764 0 l 578 615 l 569 615 l 382 0 l 233 0 l 31 750 z "},"x":{"ha":717,"x_min":19,"x_max":697,"o":"m 278 382 l 35 750 l 168 750 l 357 454 l 365 454 l 551 750 l 683 750 l 442 385 l 697 0 l 561 0 l 364 310 l 356 310 l 153 0 l 19 0 l 278 382 z "},"y":{"ha":732,"x_min":14,"x_max":718,"o":"m 93 -175 q 236 -134 188 -175 q 314 1 285 -93 l 14 750 l 143 750 l 372 128 l 381 128 l 597 750 l 718 750 l 449 25 q 369 -146 408 -83 q 264 -243 329 -208 q 93 -278 199 -278 l 93 -175 z "},"z":{"ha":703,"x_min":61,"x_max":653,"o":"m 61 97 l 483 643 l 483 651 l 94 651 l 94 750 l 629 750 l 629 660 l 204 111 l 204 103 l 653 103 l 653 0 l 61 0 l 61 97 z "},"{":{"ha":415,"x_min":68,"x_max":368,"o":"m 368 -278 q 157 -65 157 -278 l 157 249 q 138 315 157 297 q 68 333 119 333 l 68 444 q 138 463 119 444 q 157 529 157 481 l 157 843 q 368 1056 157 1056 l 368 944 q 297 924 315 944 q 278 843 278 903 l 278 529 q 260 442 278 476 q 208 389 243 408 q 260 335 243 369 q 278 249 278 301 l 278 -65 q 297 -146 278 -125 q 368 -167 315 -167 l 368 -278 z "},"|":{"ha":254,"x_min":69,"x_max":185,"o":"m 69 1056 l 185 1056 l 185 -278 l 69 -278 l 69 1056 z "},"}":{"ha":415,"x_min":47,"x_max":347,"o":"m 47 -167 q 119 -146 100 -167 q 138 -65 138 -125 l 138 249 q 155 335 138 301 q 207 389 172 369 q 155 442 172 408 q 138 529 138 476 l 138 843 q 119 924 138 903 q 47 944 100 944 l 47 1056 q 258 843 258 1056 l 258 529 q 278 463 258 481 q 347 444 297 444 l 347 333 q 278 315 297 333 q 258 249 258 297 l 258 -65 q 47 -278 258 -278 l 47 -167 z "},"~":{"ha":767,"x_min":39,"x_max":728,"o":"m 538 300 q 440 319 481 300 q 351 371 399 338 q 288 412 313 400 q 231 424 264 424 q 147 307 157 424 l 39 315 q 97 476 47 418 q 231 533 147 533 q 328 515 288 533 q 415 463 368 496 q 478 422 456 433 q 538 410 501 410 q 619 526 610 410 l 728 518 q 669 358 719 415 q 538 300 619 300 z "}," ":{"ha":357,"x_min":0,"x_max":0,"o":""},"¡":{"ha":496,"x_min":160,"x_max":336,"o":"m 247 758 q 317 742 299 758 q 336 671 336 726 q 317 600 336 617 q 247 583 299 583 q 178 600 197 583 q 160 671 160 617 q 178 742 160 725 q 247 758 197 758 m 315 -214 l 179 -214 l 200 469 l 294 469 l 315 -214 z "},"¢":{"ha":799,"x_min":128,"x_max":729,"o":"m 532 272 q 729 304 651 272 l 729 194 q 640 175 697 183 q 531 167 583 167 l 528 167 l 528 -25 l 440 -25 l 440 169 q 203 257 278 183 q 128 486 128 331 q 203 713 128 638 q 440 801 279 788 l 440 964 l 528 964 l 528 806 l 531 806 q 726 778 640 806 l 726 668 q 532 701 638 701 l 528 701 l 528 272 l 532 272 m 256 485 q 272 373 256 415 q 328 307 288 331 q 440 276 368 283 l 440 697 q 295 635 335 685 q 256 485 256 585 z "},"£":{"ha":799,"x_min":93,"x_max":726,"o":"m 726 110 l 726 0 l 146 0 l 146 92 q 257 329 257 200 q 239 453 257 388 l 93 453 l 93 543 l 214 543 q 186 694 186 639 q 274 905 186 828 q 518 982 363 982 q 693 961 601 982 l 693 864 q 522 883 607 883 q 313 699 313 883 q 338 543 313 633 l 589 543 l 589 453 l 361 453 q 375 332 375 390 q 293 110 375 224 l 726 110 z "},"¤":{"ha":799,"x_min":64,"x_max":735,"o":"m 681 465 q 647 294 681 364 l 735 206 l 658 131 l 579 208 q 400 154 510 154 q 219 208 289 154 l 140 131 l 64 206 l 151 294 q 118 465 118 364 q 151 636 118 568 l 64 725 l 140 800 l 219 722 q 400 776 289 776 q 579 722 510 776 l 658 800 l 735 725 l 647 636 q 681 465 681 568 m 400 264 q 528 316 483 264 q 572 465 572 368 q 528 615 572 563 q 400 667 483 667 q 271 615 315 667 q 226 465 226 563 q 271 316 226 368 q 400 264 315 264 z "},"¥":{"ha":799,"x_min":25,"x_max":772,"o":"m 497 542 l 676 542 l 676 453 l 457 453 l 457 343 l 676 343 l 676 256 l 457 256 l 457 0 l 340 0 l 340 256 l 122 256 l 122 343 l 340 343 l 340 453 l 122 453 l 122 542 l 300 542 l 25 964 l 163 964 l 397 571 l 407 571 l 640 964 l 772 964 l 497 542 z "},"¦":{"ha":254,"x_min":69,"x_max":185,"o":"m 69 1056 l 185 1056 l 185 589 l 69 589 l 69 1056 m 69 189 l 185 189 l 185 -278 l 69 -278 l 69 189 z "},"§":{"ha":665,"x_min":82,"x_max":585,"o":"m 508 256 q 567 188 549 229 q 585 82 585 147 q 300 -135 585 -135 q 179 -128 246 -135 q 82 -111 113 -121 l 82 -8 q 185 -28 122 -19 q 299 -37 249 -37 q 430 -12 388 -37 q 472 78 472 14 q 460 147 472 124 q 413 185 447 171 q 304 218 379 200 q 176 263 221 238 q 113 329 131 289 q 94 435 94 369 q 117 525 94 482 q 182 597 139 568 q 114 664 133 624 q 94 772 94 704 q 164 920 94 865 q 364 975 233 975 q 472 968 418 975 q 553 950 525 961 l 544 849 q 463 869 511 861 q 365 878 415 878 q 244 854 282 878 q 207 769 207 831 q 219 710 207 731 q 259 676 231 689 q 350 650 288 664 q 490 603 440 629 q 562 535 539 578 q 585 419 585 492 q 508 256 585 304 m 206 433 q 217 372 206 393 q 258 339 229 351 q 350 313 288 326 l 401 300 q 456 345 438 318 q 475 414 475 372 q 463 483 475 460 q 415 522 450 507 q 304 556 381 538 l 299 557 q 228 510 251 538 q 206 433 206 483 z "},"¨":{"ha":481,"x_min":49,"x_max":432,"o":"m 121 888 q 64 901 79 888 q 49 958 49 914 q 64 1015 49 1003 q 121 1028 79 1028 q 175 1015 160 1028 q 190 958 190 1001 q 175 901 190 915 q 121 888 160 888 m 361 888 q 306 901 321 888 q 290 958 290 914 q 305 1015 290 1001 q 361 1028 319 1028 q 417 1015 401 1028 q 432 958 432 1001 q 417 901 432 915 q 361 888 401 888 z "},"©":{"ha":1119,"x_min":60,"x_max":1060,"o":"m 558 -18 q 299 44 413 -18 q 123 220 186 107 q 60 479 60 333 q 123 740 60 625 q 301 919 186 854 q 563 983 415 983 q 819 920 706 983 q 996 744 932 857 q 1060 488 1060 631 q 995 226 1060 342 q 816 47 931 111 q 558 -18 701 -18 m 560 68 q 773 122 681 68 q 917 269 865 175 q 968 485 968 364 q 917 701 968 608 q 774 846 867 794 q 560 897 682 897 q 346 844 439 897 q 201 696 253 790 q 150 483 150 601 q 201 265 150 358 q 344 119 251 171 q 560 68 436 68 m 596 207 q 384 268 454 207 q 314 481 314 329 q 383 695 314 633 q 596 757 453 757 q 738 733 672 757 l 738 639 q 597 667 674 667 q 493 650 531 667 q 440 593 456 633 q 424 479 424 553 q 440 369 424 408 q 494 315 457 331 q 597 299 531 299 q 744 325 690 299 l 744 232 q 678 214 721 221 q 596 207 636 207 z "},"ª":{"ha":671,"x_min":76,"x_max":543,"o":"m 321 849 q 497 810 451 849 q 543 706 543 771 l 543 392 l 443 392 l 432 450 q 365 402 414 421 q 254 383 317 383 q 76 519 76 383 q 133 631 76 600 q 286 661 189 661 l 432 661 l 432 681 q 424 724 432 707 q 390 751 417 740 q 310 761 363 761 q 200 751 254 761 l 200 842 q 321 849 254 849 m 279 464 q 375 483 333 464 q 432 532 417 501 l 432 589 l 300 589 q 217 576 243 589 q 190 524 190 563 q 212 478 190 493 q 279 464 233 464 z "},"«":{"ha":710,"x_min":42,"x_max":668,"o":"m 42 382 l 243 625 l 392 625 l 189 382 l 392 139 l 243 139 l 42 382 m 318 382 l 519 625 l 668 625 l 465 382 l 668 139 l 519 139 l 318 382 z "},"¬":{"ha":767,"x_min":49,"x_max":718,"o":"m 718 174 l 600 174 l 600 526 l 49 526 l 49 644 l 718 644 l 718 174 z "},"­":{"ha":611,"x_min":100,"x_max":510,"o":"m 100 476 l 510 476 l 510 376 l 100 376 l 100 476 z "},"®":{"ha":561,"x_min":31,"x_max":531,"o":"m 282 983 q 463 916 396 983 q 531 736 531 849 q 463 552 531 621 q 281 483 394 483 q 98 550 165 483 q 31 732 31 617 q 99 915 31 846 q 282 983 167 983 m 281 546 q 416 596 368 546 q 464 735 464 646 q 417 872 464 824 q 281 919 369 919 q 147 869 194 919 q 100 733 100 819 q 146 594 100 642 q 281 546 192 546 m 394 779 q 339 700 394 717 l 399 597 l 318 597 l 271 692 l 249 692 l 249 597 l 179 597 l 179 871 l 286 871 q 365 852 335 871 q 394 779 394 833 m 249 742 l 275 742 q 311 749 299 742 q 324 779 324 756 q 313 809 324 803 q 275 815 301 815 l 249 815 l 249 742 z "},"¯":{"ha":481,"x_min":38,"x_max":443,"o":"m 38 1008 l 443 1008 l 443 910 l 38 910 l 38 1008 z "},"°":{"ha":504,"x_min":28,"x_max":476,"o":"m 251 528 q 139 558 190 528 q 58 640 88 589 q 28 753 28 692 q 58 864 28 813 q 139 946 88 915 q 251 976 190 976 q 364 946 313 976 q 446 864 415 915 q 476 753 476 813 q 446 640 476 692 q 364 558 415 589 q 251 528 313 528 m 251 633 q 336 668 301 633 q 371 753 371 703 q 336 836 371 801 q 251 871 301 871 q 167 836 203 871 q 132 753 132 801 q 167 668 132 703 q 251 633 203 633 z "},"±":{"ha":767,"x_min":49,"x_max":718,"o":"m 718 553 l 718 446 l 442 446 l 442 229 l 324 229 l 324 446 l 49 446 l 49 553 l 324 553 l 324 768 l 442 768 l 442 553 l 718 553 m 49 175 l 718 175 l 718 68 l 49 68 l 49 175 z "},"²":{"ha":564,"x_min":79,"x_max":504,"o":"m 79 664 q 260 804 196 749 q 350 901 324 860 q 376 979 376 942 q 346 1050 376 1028 q 257 1072 315 1072 q 119 1051 189 1072 l 119 1139 q 274 1158 190 1158 q 483 997 483 1158 q 462 901 483 944 q 391 810 440 857 q 251 694 342 763 l 211 664 l 211 660 l 504 660 l 504 572 l 79 572 l 79 664 z "},"³":{"ha":564,"x_min":97,"x_max":493,"o":"m 239 564 q 97 575 164 564 l 97 665 q 235 650 174 650 q 345 670 306 650 q 385 740 385 690 q 342 811 385 793 q 218 829 300 829 l 169 829 l 169 911 l 219 911 q 374 997 374 911 q 342 1056 374 1039 q 246 1074 310 1074 q 184 1069 218 1074 q 125 1057 150 1065 l 125 1143 q 258 1158 181 1158 q 421 1122 365 1158 q 476 1004 476 1086 q 369 876 476 907 l 369 871 q 462 825 431 861 q 493 731 493 789 q 239 564 493 564 z "},"´":{"ha":481,"x_min":125,"x_max":394,"o":"m 242 1046 l 394 1046 l 222 854 l 125 854 l 242 1046 z "},"μ":{"ha":851,"x_min":121,"x_max":725,"o":"m 725 750 l 725 0 l 624 0 l 608 108 q 375 -14 551 -14 q 240 25 283 -14 l 240 -278 l 121 -278 l 121 750 l 240 750 l 240 275 q 270 137 240 182 q 385 92 300 92 q 522 122 468 92 q 606 240 576 151 l 606 750 l 725 750 z "},"¶":{"ha":824,"x_min":40,"x_max":758,"o":"m 289 421 q 101 487 161 421 q 40 692 40 553 q 103 898 40 832 q 301 964 167 964 l 758 964 l 758 860 l 657 860 l 657 -164 l 539 -164 l 539 860 l 406 860 l 406 -164 l 289 -164 l 289 421 z "},"·":{"ha":496,"x_min":121,"x_max":299,"o":"m 210 371 q 156 377 175 371 q 129 402 138 383 q 121 460 121 421 q 140 530 121 514 q 210 546 158 546 q 280 530 261 546 q 299 460 299 514 q 280 388 299 404 q 210 371 261 371 z "},"¸":{"ha":481,"x_min":88,"x_max":393,"o":"m 283 -71 q 365 -94 336 -71 q 393 -165 393 -118 q 342 -253 393 -221 q 179 -285 290 -285 q 88 -278 140 -285 l 88 -214 q 172 -219 128 -219 q 274 -169 274 -219 q 221 -135 274 -135 q 160 -140 189 -135 l 126 -106 l 242 38 l 310 0 l 249 -74 q 283 -71 271 -71 z "},"¹":{"ha":564,"x_min":114,"x_max":374,"o":"m 269 1056 l 114 1028 l 114 1117 l 300 1150 l 374 1150 l 374 572 l 269 572 l 269 1056 z "},"º":{"ha":618,"x_min":82,"x_max":535,"o":"m 308 383 q 135 435 189 383 q 82 617 82 486 q 135 799 82 747 q 308 850 189 850 q 481 799 426 850 q 535 617 535 747 q 481 435 535 486 q 308 383 426 383 m 308 457 q 408 491 381 457 q 435 617 435 525 q 408 743 435 708 q 308 778 381 778 q 207 743 235 778 q 179 617 179 708 q 207 492 179 526 q 308 457 235 457 z "},"»":{"ha":710,"x_min":42,"x_max":668,"o":"m 243 382 l 42 625 l 189 625 l 392 382 l 189 139 l 42 139 l 243 382 m 519 382 l 318 625 l 465 625 l 668 382 l 465 139 l 318 139 l 519 382 z "},"¼":{"ha":1253,"x_min":114,"x_max":1189,"o":"m 269 875 l 114 847 l 114 936 l 300 969 l 374 969 l 374 392 l 269 392 l 269 875 m 860 964 l 979 964 l 439 0 l 318 0 l 860 964 m 1189 131 l 1119 131 l 1119 0 l 1019 0 l 1019 131 l 731 131 l 731 232 l 996 578 l 1119 578 l 1119 218 l 1189 218 l 1189 131 m 1019 218 l 1019 469 l 1014 469 l 821 224 l 821 218 l 1019 218 z "},"½":{"ha":1269,"x_min":114,"x_max":1186,"o":"m 269 875 l 114 847 l 114 936 l 300 969 l 374 969 l 374 392 l 269 392 l 269 875 m 860 964 l 979 964 l 439 0 l 318 0 l 860 964 m 761 92 q 942 232 878 176 q 1032 328 1006 288 q 1058 407 1058 369 q 1028 478 1058 456 q 939 500 997 500 q 801 479 871 500 l 801 567 q 956 586 872 586 q 1165 425 1165 586 q 1144 328 1165 372 q 1073 238 1122 285 q 933 122 1024 190 l 893 92 l 893 88 l 1186 88 l 1186 0 l 761 0 l 761 92 z "},"¾":{"ha":1253,"x_min":97,"x_max":1189,"o":"m 239 383 q 97 394 164 383 l 97 485 q 235 469 174 469 q 345 490 306 469 q 385 560 385 510 q 342 631 385 613 q 218 649 300 649 l 169 649 l 169 731 l 219 731 q 374 817 374 731 q 342 876 374 858 q 246 893 310 893 q 184 889 218 893 q 125 876 150 885 l 125 963 q 258 978 181 978 q 421 942 365 978 q 476 824 476 906 q 369 696 476 726 l 369 690 q 462 644 431 681 q 493 550 493 608 q 239 383 493 383 m 860 964 l 979 964 l 439 0 l 318 0 l 860 964 m 1189 131 l 1119 131 l 1119 0 l 1019 0 l 1019 131 l 731 131 l 731 232 l 996 578 l 1119 578 l 1119 218 l 1189 218 l 1189 131 m 1019 218 l 1019 469 l 1014 469 l 821 224 l 821 218 l 1019 218 z "},"¿":{"ha":599,"x_min":31,"x_max":540,"o":"m 332 758 q 385 752 367 758 q 411 727 403 746 q 419 671 419 708 q 401 600 419 617 q 332 583 383 583 q 263 600 282 583 q 243 671 243 617 q 262 742 243 725 q 332 758 281 758 m 388 413 q 361 313 388 358 q 263 211 335 268 q 181 126 200 161 q 161 31 161 92 q 177 -60 161 -29 q 231 -102 193 -90 q 340 -114 268 -114 q 447 -106 392 -114 q 540 -83 503 -97 l 540 -194 q 329 -225 443 -225 q 159 -203 224 -225 q 63 -129 94 -182 q 31 18 31 -76 q 47 135 31 90 q 90 210 63 181 q 172 278 118 239 q 256 354 233 322 q 278 432 278 386 l 278 474 l 388 474 l 388 413 z "},"À":{"ha":926,"x_min":15,"x_max":911,"o":"m 675 288 l 249 288 l 143 0 l 15 0 l 381 964 l 547 964 l 911 0 l 779 0 l 675 288 m 635 399 l 472 847 l 456 847 l 290 399 l 635 399 m 201 1226 l 368 1226 l 528 1035 l 424 1035 l 201 1226 z "},"Á":{"ha":926,"x_min":15,"x_max":911,"o":"m 675 288 l 249 288 l 143 0 l 15 0 l 381 964 l 547 964 l 911 0 l 779 0 l 675 288 m 635 399 l 472 847 l 456 847 l 290 399 l 635 399 m 557 1226 l 725 1226 l 503 1035 l 399 1035 l 557 1226 z "},"Â":{"ha":926,"x_min":15,"x_max":911,"o":"m 675 288 l 249 288 l 143 0 l 15 0 l 381 964 l 547 964 l 911 0 l 779 0 l 675 288 m 635 399 l 472 847 l 456 847 l 290 399 l 635 399 m 388 1240 l 539 1240 l 726 1035 l 615 1035 l 464 1160 l 311 1035 l 200 1035 l 388 1240 z "},"Ã":{"ha":926,"x_min":15,"x_max":911,"o":"m 675 288 l 249 288 l 143 0 l 15 0 l 381 964 l 547 964 l 911 0 l 779 0 l 675 288 m 635 399 l 472 847 l 456 847 l 290 399 l 635 399 m 579 1036 q 506 1045 533 1036 q 440 1075 478 1054 l 411 1092 q 378 1108 394 1101 q 353 1115 363 1115 q 312 1096 326 1115 q 293 1036 297 1076 l 199 1043 q 244 1166 206 1121 q 347 1211 283 1211 q 415 1199 388 1211 q 486 1160 443 1188 q 571 1132 529 1132 q 614 1151 599 1132 q 633 1211 629 1171 l 728 1203 q 681 1081 722 1126 q 579 1036 640 1036 z "},"Ä":{"ha":926,"x_min":15,"x_max":911,"o":"m 675 288 l 249 288 l 143 0 l 15 0 l 381 964 l 547 964 l 911 0 l 779 0 l 675 288 m 635 399 l 472 847 l 456 847 l 290 399 l 635 399 m 329 1049 q 274 1062 289 1049 q 258 1118 258 1075 q 273 1176 258 1163 q 329 1189 288 1189 q 385 1176 369 1189 q 400 1118 400 1163 q 385 1062 400 1075 q 329 1049 369 1049 m 600 1049 q 543 1062 558 1049 q 528 1118 528 1075 q 543 1176 528 1163 q 600 1189 558 1189 q 654 1176 639 1189 q 669 1118 669 1163 q 654 1062 669 1075 q 600 1049 639 1049 z "},"Å":{"ha":926,"x_min":15,"x_max":911,"o":"m 675 288 l 249 288 l 143 0 l 15 0 l 381 964 l 547 964 l 911 0 l 779 0 l 675 288 m 635 399 l 472 847 l 456 847 l 290 399 l 635 399 m 465 1013 q 359 1050 397 1013 q 321 1154 321 1088 q 359 1256 321 1221 q 465 1292 397 1292 q 570 1256 533 1292 q 607 1154 607 1219 q 570 1050 607 1088 q 465 1013 533 1013 m 465 1090 q 526 1150 526 1090 q 512 1200 526 1185 q 465 1215 497 1215 q 419 1200 433 1215 q 404 1150 404 1185 q 465 1090 404 1090 z "},"Æ":{"ha":1235,"x_min":-8,"x_max":1160,"o":"m 1160 113 l 1160 0 l 589 0 l 589 288 l 269 288 l 126 0 l -8 0 l 483 964 l 1125 964 l 1125 853 l 715 853 l 715 554 l 1097 554 l 1097 449 l 715 449 l 715 113 l 1160 113 m 589 399 l 589 857 l 554 857 l 325 399 l 589 399 z "},"Ç":{"ha":832,"x_min":100,"x_max":772,"o":"m 772 28 q 671 -3 731 8 q 543 -14 611 -14 l 493 -74 q 528 -71 515 -71 q 609 -94 581 -71 q 638 -165 638 -118 q 586 -253 638 -221 q 424 -285 535 -285 q 332 -278 385 -285 l 332 -214 q 417 -219 372 -219 q 518 -169 518 -219 q 465 -135 518 -135 q 404 -140 433 -135 l 371 -106 l 449 -10 q 260 51 336 1 q 142 206 183 101 q 100 482 100 310 q 216 863 100 749 q 553 978 332 978 q 761 950 674 978 l 761 835 q 556 868 672 868 q 372 831 443 868 q 266 710 301 794 q 231 485 231 626 q 264 249 231 333 q 364 132 297 165 q 543 99 431 99 q 662 108 608 99 q 772 136 715 117 l 772 28 z "},"È":{"ha":772,"x_min":128,"x_max":699,"o":"m 699 113 l 699 0 l 128 0 l 128 964 l 664 964 l 664 853 l 253 853 l 253 554 l 636 554 l 636 449 l 253 449 l 253 113 l 699 113 m 138 1226 l 304 1226 l 464 1035 l 360 1035 l 138 1226 z "},"É":{"ha":772,"x_min":128,"x_max":699,"o":"m 699 113 l 699 0 l 128 0 l 128 964 l 664 964 l 664 853 l 253 853 l 253 554 l 636 554 l 636 449 l 253 449 l 253 113 l 699 113 m 493 1226 l 661 1226 l 439 1035 l 335 1035 l 493 1226 z "},"Ê":{"ha":772,"x_min":128,"x_max":699,"o":"m 699 113 l 699 0 l 128 0 l 128 964 l 664 964 l 664 853 l 253 853 l 253 554 l 636 554 l 636 449 l 253 449 l 253 113 l 699 113 m 324 1240 l 475 1240 l 663 1035 l 551 1035 l 400 1160 l 247 1035 l 136 1035 l 324 1240 z "},"Ë":{"ha":772,"x_min":128,"x_max":699,"o":"m 699 113 l 699 0 l 128 0 l 128 964 l 664 964 l 664 853 l 253 853 l 253 554 l 636 554 l 636 449 l 253 449 l 253 113 l 699 113 m 285 1047 q 228 1060 243 1047 q 213 1118 213 1074 q 228 1175 213 1163 q 285 1188 243 1188 q 339 1174 324 1188 q 354 1118 354 1161 q 339 1061 354 1075 q 285 1047 324 1047 m 525 1047 q 469 1060 485 1047 q 454 1118 454 1074 q 469 1174 454 1161 q 525 1188 483 1188 q 581 1174 565 1188 q 596 1118 596 1161 q 581 1061 596 1075 q 525 1047 565 1047 z "},"Ì":{"ha":381,"x_min":-72,"x_max":254,"o":"m 128 964 l 253 964 l 253 0 l 128 0 l 128 964 m -72 1226 l 94 1226 l 254 1035 l 150 1035 l -72 1226 z "},"Í":{"ha":381,"x_min":125,"x_max":451,"o":"m 128 964 l 253 964 l 253 0 l 128 0 l 128 964 m 283 1226 l 451 1226 l 229 1035 l 125 1035 l 283 1226 z "},"Î":{"ha":381,"x_min":-31,"x_max":410,"o":"m 128 964 l 253 964 l 253 0 l 128 0 l 128 964 m 114 1229 l 265 1229 l 410 1038 l 313 1038 l 190 1156 l 67 1038 l -31 1038 l 114 1229 z "},"Ï":{"ha":381,"x_min":-1,"x_max":382,"o":"m 128 964 l 253 964 l 253 0 l 128 0 l 128 964 m 71 1047 q 14 1060 29 1047 q -1 1118 -1 1074 q 14 1175 -1 1163 q 71 1188 29 1188 q 125 1174 110 1188 q 140 1118 140 1161 q 125 1061 140 1075 q 71 1047 110 1047 m 311 1047 q 256 1060 271 1047 q 240 1118 240 1074 q 255 1174 240 1161 q 311 1188 269 1188 q 367 1174 351 1188 q 382 1118 382 1161 q 367 1061 382 1075 q 311 1047 351 1047 z "},"Ð":{"ha":999,"x_min":46,"x_max":899,"o":"m 433 964 q 685 925 585 964 q 842 781 786 886 q 899 482 899 675 q 778 109 899 218 q 433 0 657 0 l 156 0 l 156 449 l 46 449 l 46 554 l 156 554 l 156 964 l 433 964 m 431 110 q 682 193 594 110 q 769 482 769 276 q 727 712 769 629 q 611 825 685 794 q 431 856 538 856 l 281 856 l 281 554 l 510 554 l 510 449 l 281 449 l 281 110 l 431 110 z "},"Ñ":{"ha":1024,"x_min":128,"x_max":896,"o":"m 128 964 l 324 964 l 763 164 l 771 164 l 771 964 l 896 964 l 896 0 l 731 0 l 258 849 l 250 849 l 250 0 l 128 0 l 128 964 m 628 1036 q 554 1045 582 1036 q 489 1075 526 1054 l 460 1092 q 427 1108 443 1101 q 401 1115 411 1115 q 360 1096 375 1115 q 342 1036 346 1076 l 247 1043 q 293 1166 254 1121 q 396 1211 332 1211 q 464 1199 436 1211 q 535 1160 492 1188 q 619 1132 578 1132 q 663 1151 647 1132 q 682 1211 678 1171 l 776 1203 q 730 1081 771 1126 q 628 1036 689 1036 z "},"Ò":{"ha":1032,"x_min":100,"x_max":931,"o":"m 515 -14 q 282 31 372 -14 q 146 183 192 75 q 100 482 100 292 q 146 781 100 672 q 282 933 192 889 q 515 978 372 978 q 749 933 658 978 q 885 781 839 889 q 931 482 931 672 q 885 183 931 292 q 749 31 839 75 q 515 -14 658 -14 m 515 93 q 694 133 632 93 q 778 254 756 172 q 801 482 801 336 q 778 707 801 624 q 694 831 756 790 q 515 872 632 872 q 338 831 400 872 q 253 707 276 790 q 231 482 231 624 q 253 254 231 336 q 338 133 276 172 q 515 93 399 93 m 254 1226 l 421 1226 l 581 1035 l 476 1035 l 254 1226 z "},"Ó":{"ha":1032,"x_min":100,"x_max":931,"o":"m 515 -14 q 282 31 372 -14 q 146 183 192 75 q 100 482 100 292 q 146 781 100 672 q 282 933 192 889 q 515 978 372 978 q 749 933 658 978 q 885 781 839 889 q 931 482 931 672 q 885 183 931 292 q 749 31 839 75 q 515 -14 658 -14 m 515 93 q 694 133 632 93 q 778 254 756 172 q 801 482 801 336 q 778 707 801 624 q 694 831 756 790 q 515 872 632 872 q 338 831 400 872 q 253 707 276 790 q 231 482 231 624 q 253 254 231 336 q 338 133 276 172 q 515 93 399 93 m 610 1226 l 778 1226 l 556 1035 l 451 1035 l 610 1226 z "},"Ô":{"ha":1032,"x_min":100,"x_max":931,"o":"m 515 -14 q 282 31 372 -14 q 146 183 192 75 q 100 482 100 292 q 146 781 100 672 q 282 933 192 889 q 515 978 372 978 q 749 933 658 978 q 885 781 839 889 q 931 482 931 672 q 885 183 931 292 q 749 31 839 75 q 515 -14 658 -14 m 515 93 q 694 133 632 93 q 778 254 756 172 q 801 482 801 336 q 778 707 801 624 q 694 831 756 790 q 515 872 632 872 q 338 831 400 872 q 253 707 276 790 q 231 482 231 624 q 253 254 231 336 q 338 133 276 172 q 515 93 399 93 m 440 1240 l 592 1240 l 779 1035 l 668 1035 l 517 1160 l 364 1035 l 253 1035 l 440 1240 z "},"Õ":{"ha":1032,"x_min":100,"x_max":931,"o":"m 515 -14 q 282 31 372 -14 q 146 183 192 75 q 100 482 100 292 q 146 781 100 672 q 282 933 192 889 q 515 978 372 978 q 749 933 658 978 q 885 781 839 889 q 931 482 931 672 q 885 183 931 292 q 749 31 839 75 q 515 -14 658 -14 m 515 93 q 694 133 632 93 q 778 254 756 172 q 801 482 801 336 q 778 707 801 624 q 694 831 756 790 q 515 872 632 872 q 338 831 400 872 q 253 707 276 790 q 231 482 231 624 q 253 254 231 336 q 338 133 276 172 q 515 93 399 93 m 632 1036 q 558 1045 586 1036 q 493 1075 531 1054 l 464 1092 q 431 1108 447 1101 q 406 1115 415 1115 q 365 1096 379 1115 q 346 1036 350 1076 l 251 1043 q 297 1166 258 1121 q 400 1211 336 1211 q 468 1199 440 1211 q 539 1160 496 1188 q 624 1132 582 1132 q 667 1151 651 1132 q 686 1211 682 1171 l 781 1203 q 734 1081 775 1126 q 632 1036 693 1036 z "},"Ö":{"ha":1032,"x_min":100,"x_max":931,"o":"m 515 -14 q 282 31 372 -14 q 146 183 192 75 q 100 482 100 292 q 146 781 100 672 q 282 933 192 889 q 515 978 372 978 q 749 933 658 978 q 885 781 839 889 q 931 482 931 672 q 885 183 931 292 q 749 31 839 75 q 515 -14 658 -14 m 515 93 q 694 133 632 93 q 778 254 756 172 q 801 482 801 336 q 778 707 801 624 q 694 831 756 790 q 515 872 632 872 q 338 831 400 872 q 253 707 276 790 q 231 482 231 624 q 253 254 231 336 q 338 133 276 172 q 515 93 399 93 m 382 1049 q 326 1062 342 1049 q 311 1118 311 1075 q 326 1176 311 1163 q 382 1189 340 1189 q 438 1176 422 1189 q 453 1118 453 1163 q 438 1062 453 1075 q 382 1049 422 1049 m 653 1049 q 596 1062 611 1049 q 581 1118 581 1075 q 596 1176 581 1163 q 653 1189 611 1189 q 707 1176 692 1189 q 722 1118 722 1163 q 707 1062 722 1075 q 653 1049 692 1049 z "},"×":{"ha":767,"x_min":58,"x_max":708,"o":"m 628 93 l 383 338 l 139 93 l 58 172 l 303 418 l 60 661 l 139 742 l 383 499 l 626 742 l 707 661 l 464 418 l 708 174 l 628 93 z "},"Ø":{"ha":1032,"x_min":100,"x_max":931,"o":"m 849 846 q 931 482 931 731 q 885 183 931 292 q 749 31 839 75 q 515 -14 658 -14 q 256 46 349 -14 l 222 0 l 100 0 l 185 114 q 100 482 100 231 q 146 781 100 672 q 282 933 192 889 q 515 978 372 978 q 779 915 689 978 l 808 956 l 931 956 l 849 846 m 229 482 q 237 329 229 393 q 264 221 244 265 l 708 821 q 515 872 644 872 q 337 831 399 872 q 252 707 275 790 q 229 482 229 624 m 803 482 q 769 738 803 654 l 326 140 q 515 93 390 93 q 695 133 633 93 q 780 254 757 172 q 803 482 803 336 z "},"Ù":{"ha":974,"x_min":124,"x_max":851,"o":"m 486 -14 q 213 63 301 -14 q 124 311 124 139 l 124 964 l 247 964 l 247 339 q 270 194 247 246 q 345 119 293 142 q 488 96 397 96 q 633 119 582 96 q 706 193 685 142 q 728 339 728 244 l 728 964 l 851 964 l 851 311 q 761 65 851 143 q 486 -14 671 -14 m 225 1226 l 392 1226 l 551 1035 l 447 1035 l 225 1226 z "},"Ú":{"ha":974,"x_min":124,"x_max":851,"o":"m 486 -14 q 213 63 301 -14 q 124 311 124 139 l 124 964 l 247 964 l 247 339 q 270 194 247 246 q 345 119 293 142 q 488 96 397 96 q 633 119 582 96 q 706 193 685 142 q 728 339 728 244 l 728 964 l 851 964 l 851 311 q 761 65 851 143 q 486 -14 671 -14 m 581 1226 l 749 1226 l 526 1035 l 422 1035 l 581 1226 z "},"Û":{"ha":974,"x_min":124,"x_max":851,"o":"m 486 -14 q 213 63 301 -14 q 124 311 124 139 l 124 964 l 247 964 l 247 339 q 270 194 247 246 q 345 119 293 142 q 488 96 397 96 q 633 119 582 96 q 706 193 685 142 q 728 339 728 244 l 728 964 l 851 964 l 851 311 q 761 65 851 143 q 486 -14 671 -14 m 411 1240 l 563 1240 l 750 1035 l 639 1035 l 488 1160 l 335 1035 l 224 1035 l 411 1240 z "},"Ü":{"ha":974,"x_min":124,"x_max":851,"o":"m 486 -14 q 213 63 301 -14 q 124 311 124 139 l 124 964 l 247 964 l 247 339 q 270 194 247 246 q 345 119 293 142 q 488 96 397 96 q 633 119 582 96 q 706 193 685 142 q 728 339 728 244 l 728 964 l 851 964 l 851 311 q 761 65 851 143 q 486 -14 671 -14 m 353 1049 q 297 1062 313 1049 q 282 1118 282 1075 q 297 1176 282 1163 q 353 1189 311 1189 q 408 1176 393 1189 q 424 1118 424 1163 q 408 1062 424 1075 q 353 1049 393 1049 m 624 1049 q 567 1062 582 1049 q 551 1118 551 1075 q 567 1176 551 1163 q 624 1189 582 1189 q 678 1176 663 1189 q 693 1118 693 1163 q 678 1062 693 1075 q 624 1049 663 1049 z "},"Ý":{"ha":825,"x_min":8,"x_max":817,"o":"m 349 414 l 8 964 l 153 964 l 413 528 l 421 528 l 679 964 l 817 964 l 474 415 l 474 0 l 349 0 l 349 414 m 506 1226 l 674 1226 l 451 1035 l 347 1035 l 506 1226 z "},"Þ":{"ha":829,"x_min":128,"x_max":749,"o":"m 396 771 q 607 740 529 771 q 717 649 685 710 q 749 490 749 588 q 665 272 749 340 q 396 204 582 204 l 253 204 l 253 0 l 128 0 l 128 964 l 253 964 l 253 771 l 396 771 m 385 308 q 526 326 475 308 q 599 382 576 343 q 621 490 621 421 q 569 622 621 582 q 385 663 517 663 l 253 663 l 253 308 l 385 308 z "},"ß":{"ha":847,"x_min":126,"x_max":764,"o":"m 457 -15 q 319 0 365 -15 l 319 104 q 436 89 374 89 q 594 140 543 89 q 644 301 644 192 q 583 463 644 411 q 393 514 522 514 l 326 514 l 326 611 l 392 611 q 556 655 503 611 q 608 792 608 699 q 566 923 608 881 q 436 965 524 965 q 293 915 340 965 q 246 743 246 864 l 246 0 l 126 0 l 126 757 q 206 986 126 911 q 431 1061 285 1061 q 651 998 581 1061 q 722 800 722 935 q 684 659 722 714 q 565 575 646 604 l 565 567 q 716 481 668 546 q 764 300 764 417 q 689 61 764 138 q 457 -15 614 -15 z "},"à":{"ha":850,"x_min":76,"x_max":722,"o":"m 424 764 q 656 703 590 764 q 722 532 722 643 l 722 0 l 621 0 l 603 114 q 497 20 571 54 q 335 -14 422 -14 q 76 210 76 -14 q 153 393 76 338 q 374 449 231 449 l 603 449 l 603 511 q 564 625 603 586 q 418 664 525 664 q 253 647 333 664 l 253 753 q 424 764 342 764 m 346 86 q 506 124 439 86 q 603 229 574 163 l 603 353 l 382 353 q 242 324 283 353 q 200 211 200 294 q 234 117 200 149 q 346 86 268 86 m 242 1046 l 396 1046 l 513 854 l 415 854 l 242 1046 z "},"á":{"ha":850,"x_min":76,"x_max":722,"o":"m 424 764 q 656 703 590 764 q 722 532 722 643 l 722 0 l 621 0 l 603 114 q 497 20 571 54 q 335 -14 422 -14 q 76 210 76 -14 q 153 393 76 338 q 374 449 231 449 l 603 449 l 603 511 q 564 625 603 586 q 418 664 525 664 q 253 647 333 664 l 253 753 q 424 764 342 764 m 346 86 q 506 124 439 86 q 603 229 574 163 l 603 353 l 382 353 q 242 324 283 353 q 200 211 200 294 q 234 117 200 149 q 346 86 268 86 m 500 1046 l 653 1046 l 481 854 l 383 854 l 500 1046 z "},"â":{"ha":850,"x_min":76,"x_max":722,"o":"m 424 764 q 656 703 590 764 q 722 532 722 643 l 722 0 l 621 0 l 603 114 q 497 20 571 54 q 335 -14 422 -14 q 76 210 76 -14 q 153 393 76 338 q 374 449 231 449 l 603 449 l 603 511 q 564 625 603 586 q 418 664 525 664 q 253 647 333 664 l 253 753 q 424 764 342 764 m 346 86 q 506 124 439 86 q 603 229 574 163 l 603 353 l 382 353 q 242 324 283 353 q 200 211 200 294 q 234 117 200 149 q 346 86 268 86 m 372 1046 l 524 1046 l 668 854 l 571 854 l 449 972 l 325 854 l 228 854 l 372 1046 z "},"ã":{"ha":850,"x_min":76,"x_max":722,"o":"m 424 764 q 656 703 590 764 q 722 532 722 643 l 722 0 l 621 0 l 603 114 q 497 20 571 54 q 335 -14 422 -14 q 76 210 76 -14 q 153 393 76 338 q 374 449 231 449 l 603 449 l 603 511 q 564 625 603 586 q 418 664 525 664 q 253 647 333 664 l 253 753 q 424 764 342 764 m 346 86 q 506 124 439 86 q 603 229 574 163 l 603 353 l 382 353 q 242 324 283 353 q 200 211 200 294 q 234 117 200 149 q 346 86 268 86 m 549 875 q 480 885 507 875 q 428 913 453 894 q 403 930 419 918 q 375 948 388 942 q 351 954 363 954 q 320 935 331 954 q 307 875 310 917 l 213 882 q 253 1005 218 960 q 346 1050 289 1050 q 403 1040 381 1050 q 471 999 425 1029 q 542 971 513 971 q 575 990 564 971 q 589 1050 586 1008 l 683 1043 q 641 920 678 965 q 549 875 604 875 z "},"ä":{"ha":850,"x_min":76,"x_max":722,"o":"m 424 764 q 656 703 590 764 q 722 532 722 643 l 722 0 l 621 0 l 603 114 q 497 20 571 54 q 335 -14 422 -14 q 76 210 76 -14 q 153 393 76 338 q 374 449 231 449 l 603 449 l 603 511 q 564 625 603 586 q 418 664 525 664 q 253 647 333 664 l 253 753 q 424 764 342 764 m 346 86 q 506 124 439 86 q 603 229 574 163 l 603 353 l 382 353 q 242 324 283 353 q 200 211 200 294 q 234 117 200 149 q 346 86 268 86 m 329 888 q 272 901 288 888 q 257 958 257 914 q 272 1015 257 1003 q 329 1028 288 1028 q 383 1015 368 1028 q 399 958 399 1001 q 383 901 399 915 q 329 888 368 888 m 569 888 q 514 901 529 888 q 499 958 499 914 q 513 1015 499 1001 q 569 1028 528 1028 q 625 1015 610 1028 q 640 958 640 1001 q 625 901 640 915 q 569 888 610 888 z "},"å":{"ha":850,"x_min":76,"x_max":722,"o":"m 424 764 q 656 703 590 764 q 722 532 722 643 l 722 0 l 621 0 l 603 114 q 497 20 571 54 q 335 -14 422 -14 q 76 210 76 -14 q 153 393 76 338 q 374 449 231 449 l 603 449 l 603 511 q 564 625 603 586 q 418 664 525 664 q 253 647 333 664 l 253 753 q 424 764 342 764 m 346 86 q 506 124 439 86 q 603 229 574 163 l 603 353 l 382 353 q 242 324 283 353 q 200 211 200 294 q 234 117 200 149 q 346 86 268 86 m 450 853 q 344 890 382 853 q 306 994 306 928 q 344 1097 306 1061 q 450 1132 382 1132 q 555 1096 518 1132 q 592 994 592 1060 q 555 890 592 928 q 450 853 518 853 m 450 931 q 511 990 511 931 q 497 1040 511 1025 q 450 1056 482 1056 q 403 1040 418 1056 q 389 990 389 1025 q 450 931 389 931 z "},"æ":{"ha":1286,"x_min":76,"x_max":1206,"o":"m 708 353 l 708 333 q 758 150 708 208 q 931 92 808 92 q 1058 106 992 92 q 1165 140 1124 119 l 1165 31 q 1060 -1 1131 13 q 913 -14 990 -14 q 740 22 811 -14 q 632 138 669 57 q 511 26 592 65 q 335 -14 431 -14 q 142 44 208 -14 q 76 210 76 103 q 374 449 76 449 l 589 449 l 589 511 q 552 625 589 586 q 418 664 515 664 q 253 647 333 664 l 253 753 q 422 764 342 764 q 668 669 600 764 q 907 764 746 764 q 1142 675 1079 764 q 1206 450 1206 586 q 1197 353 1206 400 l 708 353 m 906 665 q 759 612 801 665 q 710 449 717 558 l 1089 449 q 1076 563 1089 517 q 1024 637 1064 608 q 906 665 983 665 m 346 86 q 499 124 438 86 q 589 229 560 161 l 589 353 l 382 353 q 242 324 283 353 q 200 211 200 294 q 234 117 200 149 q 346 86 268 86 z "},"ç":{"ha":690,"x_min":82,"x_max":628,"o":"m 628 14 q 474 -12 576 -6 l 422 -74 q 457 -71 444 -71 q 538 -94 510 -71 q 567 -165 567 -118 q 515 -253 567 -221 q 353 -285 464 -285 q 261 -278 314 -285 l 261 -214 q 346 -219 301 -219 q 447 -169 447 -219 q 394 -135 447 -135 q 333 -140 363 -135 l 300 -106 l 375 -12 q 155 89 228 0 q 82 375 82 178 q 122 606 82 521 q 238 728 161 692 q 429 764 314 764 q 625 736 542 764 l 625 626 q 431 660 536 660 q 299 634 346 660 q 231 547 251 608 q 210 374 210 485 q 231 203 210 264 q 299 117 251 142 q 432 92 346 92 q 628 124 550 92 l 628 14 z "},"è":{"ha":803,"x_min":82,"x_max":722,"o":"m 722 450 q 715 363 722 421 l 207 331 q 261 148 208 204 q 447 92 314 92 q 574 106 508 92 q 682 140 639 119 l 682 31 q 576 -1 647 13 q 429 -14 506 -14 q 238 22 314 -14 q 122 144 161 58 q 82 375 82 229 q 167 676 82 589 q 422 764 253 764 q 658 675 594 764 q 722 450 722 586 m 604 449 q 592 563 604 517 q 539 637 579 608 q 422 665 499 665 q 292 637 339 665 q 228 556 246 608 q 207 419 210 503 l 604 449 m 194 1046 l 349 1046 l 465 854 l 368 854 l 194 1046 z "},"é":{"ha":803,"x_min":82,"x_max":722,"o":"m 722 450 q 715 363 722 421 l 207 331 q 261 148 208 204 q 447 92 314 92 q 574 106 508 92 q 682 140 639 119 l 682 31 q 576 -1 647 13 q 429 -14 506 -14 q 238 22 314 -14 q 122 144 161 58 q 82 375 82 229 q 167 676 82 589 q 422 764 253 764 q 658 675 594 764 q 722 450 722 586 m 604 449 q 592 563 604 517 q 539 637 579 608 q 422 665 499 665 q 292 637 339 665 q 228 556 246 608 q 207 419 210 503 l 604 449 m 453 1046 l 606 1046 l 433 854 l 336 854 l 453 1046 z "},"ê":{"ha":803,"x_min":82,"x_max":722,"o":"m 722 450 q 715 363 722 421 l 207 331 q 261 148 208 204 q 447 92 314 92 q 574 106 508 92 q 682 140 639 119 l 682 31 q 576 -1 647 13 q 429 -14 506 -14 q 238 22 314 -14 q 122 144 161 58 q 82 375 82 229 q 167 676 82 589 q 422 764 253 764 q 658 675 594 764 q 722 450 722 586 m 604 449 q 592 563 604 517 q 539 637 579 608 q 422 665 499 665 q 292 637 339 665 q 228 556 246 608 q 207 419 210 503 l 604 449 m 325 1046 l 476 1046 l 621 854 l 524 854 l 401 972 l 278 854 l 181 854 l 325 1046 z "},"ë":{"ha":803,"x_min":82,"x_max":722,"o":"m 722 450 q 715 363 722 421 l 207 331 q 261 148 208 204 q 447 92 314 92 q 574 106 508 92 q 682 140 639 119 l 682 31 q 576 -1 647 13 q 429 -14 506 -14 q 238 22 314 -14 q 122 144 161 58 q 82 375 82 229 q 167 676 82 589 q 422 764 253 764 q 658 675 594 764 q 722 450 722 586 m 604 449 q 592 563 604 517 q 539 637 579 608 q 422 665 499 665 q 292 637 339 665 q 228 556 246 608 q 207 419 210 503 l 604 449 m 282 888 q 225 901 240 888 q 210 958 210 914 q 225 1015 210 1003 q 282 1028 240 1028 q 336 1015 321 1028 q 351 958 351 1001 q 336 901 351 915 q 282 888 321 888 m 522 888 q 467 901 482 888 q 451 958 451 914 q 466 1015 451 1001 q 522 1028 481 1028 q 578 1015 563 1028 q 593 958 593 1001 q 578 901 593 915 q 522 888 563 888 z "},"ì":{"ha":372,"x_min":-19,"x_max":251,"o":"m 126 750 l 246 750 l 246 0 l 126 0 l 126 750 m -19 1046 l 135 1046 l 251 854 l 154 854 l -19 1046 z "},"í":{"ha":372,"x_min":122,"x_max":392,"o":"m 126 750 l 246 750 l 246 0 l 126 0 l 126 750 m 239 1046 l 392 1046 l 219 854 l 122 854 l 239 1046 z "},"î":{"ha":372,"x_min":-33,"x_max":407,"o":"m 126 750 l 246 750 l 246 0 l 126 0 l 126 750 m 111 1046 l 263 1046 l 407 854 l 310 854 l 188 972 l 64 854 l -33 854 l 111 1046 z "},"ï":{"ha":372,"x_min":-4,"x_max":379,"o":"m 126 750 l 246 750 l 246 0 l 126 0 l 126 750 m 68 888 q 11 901 26 888 q -4 958 -4 914 q 11 1015 -4 1003 q 68 1028 26 1028 q 122 1015 107 1028 q 138 958 138 1001 q 122 901 138 915 q 68 888 107 888 m 308 888 q 253 901 268 888 q 238 958 238 914 q 252 1015 238 1001 q 308 1028 267 1028 q 364 1015 349 1028 q 379 958 379 1001 q 364 901 379 915 q 308 888 349 888 z "},"ð":{"ha":858,"x_min":82,"x_max":775,"o":"m 569 915 q 726 664 676 790 q 775 375 775 538 q 735 144 775 229 q 621 22 696 58 q 429 -14 546 -14 q 238 22 314 -14 q 122 144 161 58 q 82 375 82 229 q 169 664 82 579 q 429 749 256 749 q 565 728 503 749 q 467 869 526 794 l 300 796 l 256 883 l 400 947 q 286 1056 358 990 l 439 1056 l 501 992 l 647 1056 l 692 969 l 569 915 m 429 88 q 563 114 515 88 q 629 201 610 140 q 649 375 649 263 q 628 538 649 479 q 560 623 607 597 q 429 649 513 649 q 297 623 344 649 q 230 538 250 597 q 210 375 210 479 q 231 202 210 264 q 299 114 251 140 q 429 88 346 88 z "},"ñ":{"ha":858,"x_min":126,"x_max":738,"o":"m 486 764 q 681 700 625 764 q 738 519 738 636 l 738 0 l 617 0 l 617 475 q 588 613 617 569 q 474 657 558 657 q 331 627 389 657 q 246 507 274 597 l 246 0 l 126 0 l 126 750 l 246 750 l 246 643 q 342 737 278 710 q 486 764 407 764 m 531 875 q 462 885 489 875 q 410 913 435 894 q 385 930 401 918 q 357 948 369 942 q 333 954 344 954 q 302 935 313 954 q 289 875 292 917 l 194 882 q 235 1005 200 960 q 328 1050 271 1050 q 385 1040 363 1050 q 453 999 407 1029 q 524 971 494 971 q 557 990 546 971 q 571 1050 568 1008 l 665 1043 q 623 920 660 965 q 531 875 586 875 z "},"ò":{"ha":858,"x_min":82,"x_max":775,"o":"m 429 -14 q 238 22 314 -14 q 122 144 161 58 q 82 375 82 229 q 122 606 82 521 q 238 728 161 692 q 429 764 314 764 q 621 728 546 764 q 735 606 696 692 q 775 375 775 521 q 735 144 775 229 q 621 22 696 58 q 429 -14 546 -14 m 429 88 q 563 114 515 88 q 629 201 610 140 q 649 375 649 263 q 628 549 649 486 q 560 638 607 611 q 429 664 513 664 q 297 638 343 664 q 230 549 250 611 q 210 375 210 488 q 231 202 210 264 q 299 114 251 140 q 429 88 346 88 m 222 1046 l 376 1046 l 493 854 l 396 854 l 222 1046 z "},"ó":{"ha":858,"x_min":82,"x_max":775,"o":"m 429 -14 q 238 22 314 -14 q 122 144 161 58 q 82 375 82 229 q 122 606 82 521 q 238 728 161 692 q 429 764 314 764 q 621 728 546 764 q 735 606 696 692 q 775 375 775 521 q 735 144 775 229 q 621 22 696 58 q 429 -14 546 -14 m 429 88 q 563 114 515 88 q 629 201 610 140 q 649 375 649 263 q 628 549 649 486 q 560 638 607 611 q 429 664 513 664 q 297 638 343 664 q 230 549 250 611 q 210 375 210 488 q 231 202 210 264 q 299 114 251 140 q 429 88 346 88 m 481 1046 l 633 1046 l 461 854 l 364 854 l 481 1046 z "},"ô":{"ha":858,"x_min":82,"x_max":775,"o":"m 429 -14 q 238 22 314 -14 q 122 144 161 58 q 82 375 82 229 q 122 606 82 521 q 238 728 161 692 q 429 764 314 764 q 621 728 546 764 q 735 606 696 692 q 775 375 775 521 q 735 144 775 229 q 621 22 696 58 q 429 -14 546 -14 m 429 88 q 563 114 515 88 q 629 201 610 140 q 649 375 649 263 q 628 549 649 486 q 560 638 607 611 q 429 664 513 664 q 297 638 343 664 q 230 549 250 611 q 210 375 210 488 q 231 202 210 264 q 299 114 251 140 q 429 88 346 88 m 353 1046 l 504 1046 l 649 854 l 551 854 l 429 972 l 306 854 l 208 854 l 353 1046 z "},"õ":{"ha":858,"x_min":82,"x_max":775,"o":"m 429 -14 q 238 22 314 -14 q 122 144 161 58 q 82 375 82 229 q 122 606 82 521 q 238 728 161 692 q 429 764 314 764 q 621 728 546 764 q 735 606 696 692 q 775 375 775 521 q 735 144 775 229 q 621 22 696 58 q 429 -14 546 -14 m 429 88 q 563 114 515 88 q 629 201 610 140 q 649 375 649 263 q 628 549 649 486 q 560 638 607 611 q 429 664 513 664 q 297 638 343 664 q 230 549 250 611 q 210 375 210 488 q 231 202 210 264 q 299 114 251 140 q 429 88 346 88 m 529 875 q 460 885 488 875 q 408 913 433 894 q 384 930 400 918 q 356 948 368 942 q 332 954 343 954 q 301 935 311 954 q 288 875 290 917 l 193 882 q 234 1005 199 960 q 326 1050 269 1050 q 383 1040 361 1050 q 451 999 406 1029 q 522 971 493 971 q 556 990 544 971 q 569 1050 567 1008 l 664 1043 q 622 920 658 965 q 529 875 585 875 z "},"ö":{"ha":858,"x_min":82,"x_max":775,"o":"m 429 -14 q 238 22 314 -14 q 122 144 161 58 q 82 375 82 229 q 122 606 82 521 q 238 728 161 692 q 429 764 314 764 q 621 728 546 764 q 735 606 696 692 q 775 375 775 521 q 735 144 775 229 q 621 22 696 58 q 429 -14 546 -14 m 429 88 q 563 114 515 88 q 629 201 610 140 q 649 375 649 263 q 628 549 649 486 q 560 638 607 611 q 429 664 513 664 q 297 638 343 664 q 230 549 250 611 q 210 375 210 488 q 231 202 210 264 q 299 114 251 140 q 429 88 346 88 m 310 888 q 253 901 268 888 q 238 958 238 914 q 253 1015 238 1003 q 310 1028 268 1028 q 364 1015 349 1028 q 379 958 379 1001 q 364 901 379 915 q 310 888 349 888 m 550 888 q 494 901 510 888 q 479 958 479 914 q 494 1015 479 1001 q 550 1028 508 1028 q 606 1015 590 1028 q 621 958 621 1001 q 606 901 621 915 q 550 888 590 888 z "},"÷":{"ha":767,"x_min":49,"x_max":718,"o":"m 383 625 q 317 641 335 625 q 299 708 299 657 q 317 776 299 760 q 383 792 335 792 q 449 776 432 792 q 467 708 467 760 q 449 641 467 657 q 383 625 432 625 m 49 476 l 718 476 l 718 358 l 49 358 l 49 476 m 383 40 q 316 56 333 40 q 299 125 299 72 q 316 192 299 176 q 383 207 333 207 q 449 192 432 207 q 467 125 467 176 q 449 56 467 72 q 383 40 432 40 z "},"ø":{"ha":858,"x_min":82,"x_max":775,"o":"m 689 678 q 775 375 775 588 q 735 144 775 229 q 621 22 696 58 q 429 -14 546 -14 q 236 24 310 -14 l 183 -53 l 82 -53 l 168 72 q 82 375 82 167 q 122 606 82 521 q 238 728 161 692 q 429 764 314 764 q 622 728 546 764 l 674 803 l 775 803 l 689 678 m 208 375 q 240 176 208 240 l 560 638 q 429 664 511 664 q 296 638 343 664 q 228 549 249 611 q 208 375 208 486 m 650 375 q 618 575 650 511 l 299 113 q 429 86 346 86 q 563 113 515 86 q 630 201 610 139 q 650 375 650 263 z "},"ù":{"ha":851,"x_min":121,"x_max":725,"o":"m 725 750 l 725 0 l 624 0 l 608 108 q 372 -14 551 -14 q 177 49 233 -14 q 121 231 121 113 l 121 750 l 240 750 l 240 275 q 270 137 240 182 q 385 92 300 92 q 522 122 468 92 q 606 240 576 151 l 606 750 l 725 750 m 219 1046 l 374 1046 l 490 854 l 393 854 l 219 1046 z "},"ú":{"ha":851,"x_min":121,"x_max":725,"o":"m 725 750 l 725 0 l 624 0 l 608 108 q 372 -14 551 -14 q 177 49 233 -14 q 121 231 121 113 l 121 750 l 240 750 l 240 275 q 270 137 240 182 q 385 92 300 92 q 522 122 468 92 q 606 240 576 151 l 606 750 l 725 750 m 478 1046 l 631 1046 l 458 854 l 361 854 l 478 1046 z "},"û":{"ha":851,"x_min":121,"x_max":725,"o":"m 725 750 l 725 0 l 624 0 l 608 108 q 372 -14 551 -14 q 177 49 233 -14 q 121 231 121 113 l 121 750 l 240 750 l 240 275 q 270 137 240 182 q 385 92 300 92 q 522 122 468 92 q 606 240 576 151 l 606 750 l 725 750 m 350 1046 l 501 1046 l 646 854 l 549 854 l 426 972 l 303 854 l 206 854 l 350 1046 z "},"ü":{"ha":851,"x_min":121,"x_max":725,"o":"m 725 750 l 725 0 l 624 0 l 608 108 q 372 -14 551 -14 q 177 49 233 -14 q 121 231 121 113 l 121 750 l 240 750 l 240 275 q 270 137 240 182 q 385 92 300 92 q 522 122 468 92 q 606 240 576 151 l 606 750 l 725 750 m 307 888 q 250 901 265 888 q 235 958 235 914 q 250 1015 235 1003 q 307 1028 265 1028 q 361 1015 346 1028 q 376 958 376 1001 q 361 901 376 915 q 307 888 346 888 m 547 888 q 492 901 507 888 q 476 958 476 914 q 491 1015 476 1001 q 547 1028 506 1028 q 603 1015 588 1028 q 618 958 618 1001 q 603 901 618 915 q 547 888 588 888 z "},"ý":{"ha":732,"x_min":14,"x_max":718,"o":"m 93 -175 q 236 -134 188 -175 q 314 1 285 -93 l 14 750 l 143 750 l 372 128 l 381 128 l 597 750 l 718 750 l 449 25 q 369 -146 408 -83 q 264 -243 329 -208 q 93 -278 199 -278 l 93 -175 m 418 1046 l 571 1046 l 399 854 l 301 854 l 418 1046 z "},"þ":{"ha":882,"x_min":126,"x_max":799,"o":"m 489 764 q 732 665 665 764 q 799 375 799 565 q 731 92 799 197 q 489 -14 663 -14 q 328 24 385 -14 q 246 131 271 61 l 246 -278 l 126 -278 l 126 1056 l 246 1056 l 246 615 q 328 725 271 686 q 489 764 386 764 m 474 88 q 634 164 594 88 q 674 375 674 240 q 633 589 674 514 q 474 664 593 664 q 292 591 344 664 q 240 375 240 518 q 293 162 240 236 q 474 88 346 88 z "},"ÿ":{"ha":732,"x_min":14,"x_max":718,"o":"m 93 -175 q 236 -134 188 -175 q 314 1 285 -93 l 14 750 l 143 750 l 372 128 l 381 128 l 597 750 l 718 750 l 449 25 q 369 -146 408 -83 q 264 -243 329 -208 q 93 -278 199 -278 l 93 -175 m 247 888 q 190 901 206 888 q 175 958 175 914 q 190 1015 175 1003 q 247 1028 206 1028 q 301 1015 286 1028 q 317 958 317 1001 q 301 901 317 915 q 247 888 286 888 m 488 888 q 432 901 447 888 q 417 958 417 914 q 431 1015 417 1001 q 488 1028 446 1028 q 543 1015 528 1028 q 558 958 558 1001 q 543 901 558 915 q 488 888 528 888 z "},"Ā":{"ha":926,"x_min":15,"x_max":911,"o":"m 675 288 l 249 288 l 143 0 l 15 0 l 381 964 l 547 964 l 911 0 l 779 0 l 675 288 m 635 399 l 472 847 l 456 847 l 290 399 l 635 399 m 261 1190 l 667 1190 l 667 1092 l 261 1092 l 261 1190 z "},"ā":{"ha":850,"x_min":76,"x_max":722,"o":"m 424 764 q 656 703 590 764 q 722 532 722 643 l 722 0 l 621 0 l 603 114 q 497 20 571 54 q 335 -14 422 -14 q 76 210 76 -14 q 153 393 76 338 q 374 449 231 449 l 603 449 l 603 511 q 564 625 603 586 q 418 664 525 664 q 253 647 333 664 l 253 753 q 424 764 342 764 m 346 86 q 506 124 439 86 q 603 229 574 163 l 603 353 l 382 353 q 242 324 283 353 q 200 211 200 294 q 234 117 200 149 q 346 86 268 86 m 246 1008 l 651 1008 l 651 910 l 246 910 l 246 1008 z "},"Ă":{"ha":926,"x_min":15,"x_max":911,"o":"m 675 288 l 249 288 l 143 0 l 15 0 l 381 964 l 547 964 l 911 0 l 779 0 l 675 288 m 635 399 l 472 847 l 456 847 l 290 399 l 635 399 m 464 1035 q 307 1083 364 1035 q 228 1228 250 1132 l 329 1228 q 378 1156 342 1182 q 464 1129 414 1129 q 549 1156 514 1129 q 596 1228 585 1182 l 699 1228 q 620 1083 676 1132 q 464 1035 564 1035 z "},"ă":{"ha":850,"x_min":76,"x_max":722,"o":"m 424 764 q 656 703 590 764 q 722 532 722 643 l 722 0 l 621 0 l 603 114 q 497 20 571 54 q 335 -14 422 -14 q 76 210 76 -14 q 153 393 76 338 q 374 449 231 449 l 603 449 l 603 511 q 564 625 603 586 q 418 664 525 664 q 253 647 333 664 l 253 753 q 424 764 342 764 m 346 86 q 506 124 439 86 q 603 229 574 163 l 603 353 l 382 353 q 242 324 283 353 q 200 211 200 294 q 234 117 200 149 q 346 86 268 86 m 449 825 q 301 874 354 825 q 226 1019 249 924 l 328 1019 q 372 947 339 974 q 449 919 404 919 q 524 947 493 919 q 567 1019 556 974 l 669 1019 q 595 874 647 924 q 449 825 543 825 z "},"Ą":{"ha":926,"x_min":15,"x_max":939,"o":"m 875 -210 q 939 -200 906 -210 l 939 -267 q 850 -283 892 -283 q 724 -252 771 -283 q 676 -156 676 -221 q 710 -68 676 -110 q 793 0 743 -26 l 779 0 l 675 288 l 249 288 l 143 0 l 15 0 l 381 964 l 547 964 l 911 0 l 894 0 q 819 -53 843 -24 q 796 -126 796 -82 q 817 -187 796 -164 q 875 -210 838 -210 m 635 399 l 472 847 l 456 847 l 290 399 l 635 399 z "},"ą":{"ha":850,"x_min":76,"x_max":765,"o":"m 701 -210 q 765 -200 732 -210 l 765 -267 q 676 -283 718 -283 q 550 -252 597 -283 q 503 -156 503 -221 q 537 -67 503 -110 q 621 1 571 -25 l 603 114 q 497 20 571 54 q 335 -14 422 -14 q 76 210 76 -14 q 153 393 76 338 q 374 449 231 449 l 603 449 l 603 511 q 564 625 603 586 q 418 664 525 664 q 253 647 333 664 l 253 753 q 424 764 342 764 q 656 703 590 764 q 722 532 722 643 l 722 0 l 721 0 q 646 -53 669 -24 q 622 -126 622 -82 q 643 -187 622 -164 q 701 -210 664 -210 m 346 86 q 506 124 439 86 q 603 229 574 163 l 603 353 l 382 353 q 242 324 283 353 q 200 211 200 294 q 234 117 200 149 q 346 86 268 86 z "},"Ć":{"ha":832,"x_min":100,"x_max":772,"o":"m 539 -14 q 301 28 396 -14 q 153 179 206 71 q 100 482 100 288 q 216 863 100 749 q 553 978 332 978 q 761 950 674 978 l 761 835 q 556 868 672 868 q 372 831 443 868 q 266 710 301 794 q 231 485 231 626 q 264 249 231 333 q 364 132 297 165 q 543 99 431 99 q 662 108 608 99 q 772 136 715 117 l 772 28 q 669 -3 729 8 q 539 -14 608 -14 m 574 1226 l 742 1226 l 519 1035 l 415 1035 l 574 1226 z "},"ć":{"ha":690,"x_min":82,"x_max":628,"o":"m 429 -14 q 238 22 314 -14 q 122 144 161 58 q 82 375 82 229 q 122 606 82 521 q 238 728 161 692 q 429 764 314 764 q 625 736 542 764 l 625 626 q 431 660 536 660 q 299 634 346 660 q 231 547 251 608 q 210 374 210 485 q 231 203 210 264 q 299 117 251 142 q 432 92 346 92 q 628 124 550 92 l 628 14 q 539 -6 596 3 q 429 -14 482 -14 m 439 1046 l 592 1046 l 419 854 l 322 854 l 439 1046 z "},"Ĉ":{"ha":832,"x_min":100,"x_max":772,"o":"m 539 -14 q 301 28 396 -14 q 153 179 206 71 q 100 482 100 288 q 216 863 100 749 q 553 978 332 978 q 761 950 674 978 l 761 835 q 556 868 672 868 q 372 831 443 868 q 266 710 301 794 q 231 485 231 626 q 264 249 231 333 q 364 132 297 165 q 543 99 431 99 q 662 108 608 99 q 772 136 715 117 l 772 28 q 669 -3 729 8 q 539 -14 608 -14 m 404 1240 l 556 1240 l 743 1035 l 632 1035 l 481 1160 l 328 1035 l 217 1035 l 404 1240 z "},"ĉ":{"ha":690,"x_min":82,"x_max":628,"o":"m 429 -14 q 238 22 314 -14 q 122 144 161 58 q 82 375 82 229 q 122 606 82 521 q 238 728 161 692 q 429 764 314 764 q 625 736 542 764 l 625 626 q 431 660 536 660 q 299 634 346 660 q 231 547 251 608 q 210 374 210 485 q 231 203 210 264 q 299 117 251 142 q 432 92 346 92 q 628 124 550 92 l 628 14 q 539 -6 596 3 q 429 -14 482 -14 m 311 1046 l 463 1046 l 607 854 l 510 854 l 388 972 l 264 854 l 167 854 l 311 1046 z "},"Ċ":{"ha":832,"x_min":100,"x_max":772,"o":"m 539 -14 q 301 28 396 -14 q 153 179 206 71 q 100 482 100 288 q 216 863 100 749 q 553 978 332 978 q 761 950 674 978 l 761 835 q 556 868 672 868 q 372 831 443 868 q 266 710 301 794 q 231 485 231 626 q 264 249 231 333 q 364 132 297 165 q 543 99 431 99 q 662 108 608 99 q 772 136 715 117 l 772 28 q 669 -3 729 8 q 539 -14 608 -14 m 481 1056 q 424 1069 439 1056 q 408 1126 408 1082 q 424 1184 408 1171 q 481 1197 439 1197 q 536 1184 521 1197 q 551 1126 551 1171 q 536 1069 551 1083 q 481 1056 521 1056 z "},"ċ":{"ha":690,"x_min":82,"x_max":628,"o":"m 429 -14 q 238 22 314 -14 q 122 144 161 58 q 82 375 82 229 q 122 606 82 521 q 238 728 161 692 q 429 764 314 764 q 625 736 542 764 l 625 626 q 431 660 536 660 q 299 634 346 660 q 231 547 251 608 q 210 374 210 485 q 231 203 210 264 q 299 117 251 142 q 432 92 346 92 q 628 124 550 92 l 628 14 q 539 -6 596 3 q 429 -14 482 -14 m 388 888 q 331 901 346 888 q 315 958 315 914 q 331 1015 315 1003 q 388 1028 346 1028 q 443 1015 428 1028 q 458 958 458 1001 q 443 901 458 915 q 388 888 428 888 z "},"Č":{"ha":832,"x_min":100,"x_max":772,"o":"m 539 -14 q 301 28 396 -14 q 153 179 206 71 q 100 482 100 288 q 216 863 100 749 q 553 978 332 978 q 761 950 674 978 l 761 835 q 556 868 672 868 q 372 831 443 868 q 266 710 301 794 q 231 485 231 626 q 264 249 231 333 q 364 132 297 165 q 543 99 431 99 q 662 108 608 99 q 772 136 715 117 l 772 28 q 669 -3 729 8 q 539 -14 608 -14 m 217 1258 l 328 1258 l 479 1135 l 632 1258 l 743 1258 l 556 1053 l 404 1053 l 217 1258 z "},"č":{"ha":690,"x_min":82,"x_max":628,"o":"m 429 -14 q 238 22 314 -14 q 122 144 161 58 q 82 375 82 229 q 122 606 82 521 q 238 728 161 692 q 429 764 314 764 q 625 736 542 764 l 625 626 q 431 660 536 660 q 299 634 346 660 q 231 547 251 608 q 210 374 210 485 q 231 203 210 264 q 299 117 251 142 q 432 92 346 92 q 628 124 550 92 l 628 14 q 539 -6 596 3 q 429 -14 482 -14 m 167 1046 l 264 1046 l 386 928 l 510 1046 l 607 1046 l 463 854 l 311 854 l 167 1046 z "},"Ď":{"ha":971,"x_min":128,"x_max":871,"o":"m 406 964 q 658 925 557 964 q 815 781 758 886 q 871 482 871 675 q 750 109 871 218 q 406 0 629 0 l 128 0 l 128 964 l 406 964 m 403 110 q 654 193 567 110 q 742 482 742 276 q 699 712 742 629 q 583 825 657 794 q 403 856 510 856 l 253 856 l 253 110 l 403 110 m 169 1258 l 281 1258 l 432 1135 l 585 1258 l 696 1258 l 508 1053 l 357 1053 l 169 1258 z "},"ď":{"ha":889,"x_min":83,"x_max":935,"o":"m 757 1056 l 757 0 l 656 0 l 638 124 q 552 24 614 61 q 393 -14 490 -14 q 151 86 218 -14 q 83 375 83 186 q 152 658 83 551 q 393 764 221 764 q 556 726 499 764 q 638 619 613 689 l 638 1056 l 757 1056 m 411 88 q 591 159 540 88 q 642 375 642 231 q 590 590 642 515 q 411 664 539 664 q 283 624 326 664 q 225 524 239 585 q 211 375 211 463 q 226 224 211 285 q 284 125 240 163 q 411 88 328 88 m 811 861 q 832 972 832 924 q 815 1057 832 1024 l 922 1057 q 935 989 935 1024 q 920 917 935 953 q 888 861 906 882 l 811 861 z "},"Đ":{"ha":999,"x_min":46,"x_max":899,"o":"m 433 964 q 685 925 585 964 q 842 781 786 886 q 899 482 899 675 q 778 109 899 218 q 433 0 657 0 l 156 0 l 156 449 l 46 449 l 46 554 l 156 554 l 156 964 l 433 964 m 431 110 q 682 193 594 110 q 769 482 769 276 q 727 712 769 629 q 611 825 685 794 q 431 856 538 856 l 281 856 l 281 554 l 510 554 l 510 449 l 281 449 l 281 110 l 431 110 z "},"đ":{"ha":882,"x_min":83,"x_max":858,"o":"m 858 850 l 757 850 l 757 0 l 656 0 l 638 124 q 552 24 614 61 q 393 -14 490 -14 q 151 86 218 -14 q 83 375 83 186 q 152 658 83 551 q 393 764 221 764 q 556 726 499 764 q 638 619 613 689 l 638 850 l 394 850 l 394 946 l 638 946 l 638 1056 l 757 1056 l 757 946 l 858 946 l 858 850 m 411 88 q 591 159 540 88 q 642 375 642 231 q 590 590 642 515 q 411 664 539 664 q 283 624 326 664 q 225 524 239 585 q 211 375 211 463 q 226 224 211 285 q 284 125 240 163 q 411 88 328 88 z "},"Ē":{"ha":772,"x_min":128,"x_max":699,"o":"m 699 113 l 699 0 l 128 0 l 128 964 l 664 964 l 664 853 l 253 853 l 253 554 l 636 554 l 636 449 l 253 449 l 253 113 l 699 113 m 197 1190 l 603 1190 l 603 1092 l 197 1092 l 197 1190 z "},"ē":{"ha":803,"x_min":82,"x_max":722,"o":"m 722 450 q 715 363 722 421 l 207 331 q 261 148 208 204 q 447 92 314 92 q 574 106 508 92 q 682 140 639 119 l 682 31 q 576 -1 647 13 q 429 -14 506 -14 q 238 22 314 -14 q 122 144 161 58 q 82 375 82 229 q 167 676 82 589 q 422 764 253 764 q 658 675 594 764 q 722 450 722 586 m 604 449 q 592 563 604 517 q 539 637 579 608 q 422 665 499 665 q 292 637 339 665 q 228 556 246 608 q 207 419 210 503 l 604 449 m 199 1008 l 604 1008 l 604 910 l 199 910 l 199 1008 z "},"Ĕ":{"ha":772,"x_min":128,"x_max":699,"o":"m 699 113 l 699 0 l 128 0 l 128 964 l 664 964 l 664 853 l 253 853 l 253 554 l 636 554 l 636 449 l 253 449 l 253 113 l 699 113 m 400 1035 q 243 1083 300 1035 q 164 1228 186 1132 l 265 1228 q 314 1156 278 1182 q 400 1129 350 1129 q 485 1156 450 1129 q 532 1228 521 1182 l 635 1228 q 556 1083 613 1132 q 400 1035 500 1035 z "},"ĕ":{"ha":803,"x_min":82,"x_max":722,"o":"m 722 450 q 715 363 722 421 l 207 331 q 261 148 208 204 q 447 92 314 92 q 574 106 508 92 q 682 140 639 119 l 682 31 q 576 -1 647 13 q 429 -14 506 -14 q 238 22 314 -14 q 122 144 161 58 q 82 375 82 229 q 167 676 82 589 q 422 764 253 764 q 658 675 594 764 q 722 450 722 586 m 604 449 q 592 563 604 517 q 539 637 579 608 q 422 665 499 665 q 292 637 339 665 q 228 556 246 608 q 207 419 210 503 l 604 449 m 401 825 q 254 874 307 825 q 179 1019 201 924 l 281 1019 q 324 947 292 974 q 401 919 357 919 q 477 947 446 919 q 519 1019 508 974 l 622 1019 q 548 874 600 924 q 401 825 496 825 z "},"Ė":{"ha":772,"x_min":128,"x_max":699,"o":"m 699 113 l 699 0 l 128 0 l 128 964 l 664 964 l 664 853 l 253 853 l 253 554 l 636 554 l 636 449 l 253 449 l 253 113 l 699 113 m 400 1056 q 343 1069 358 1056 q 328 1126 328 1082 q 343 1184 328 1171 q 400 1197 358 1197 q 456 1184 440 1197 q 471 1126 471 1171 q 456 1069 471 1083 q 400 1056 440 1056 z "},"ė":{"ha":803,"x_min":82,"x_max":722,"o":"m 722 450 q 715 363 722 421 l 207 331 q 261 148 208 204 q 447 92 314 92 q 574 106 508 92 q 682 140 639 119 l 682 31 q 576 -1 647 13 q 429 -14 506 -14 q 238 22 314 -14 q 122 144 161 58 q 82 375 82 229 q 167 676 82 589 q 422 764 253 764 q 658 675 594 764 q 722 450 722 586 m 604 449 q 592 563 604 517 q 539 637 579 608 q 422 665 499 665 q 292 637 339 665 q 228 556 246 608 q 207 419 210 503 l 604 449 m 401 888 q 344 901 360 888 q 329 958 329 914 q 344 1015 329 1003 q 401 1028 360 1028 q 457 1015 442 1028 q 472 958 472 1001 q 457 901 472 915 q 401 888 442 888 z "},"Ę":{"ha":772,"x_min":128,"x_max":699,"o":"m 628 0 q 553 -53 576 -24 q 529 -126 529 -82 q 550 -187 529 -164 q 608 -210 571 -210 q 672 -200 639 -210 l 672 -267 q 583 -283 624 -283 q 457 -252 504 -283 q 410 -156 410 -221 q 443 -68 410 -110 q 526 0 476 -26 l 128 0 l 128 964 l 664 964 l 664 853 l 253 853 l 253 554 l 636 554 l 636 449 l 253 449 l 253 113 l 699 113 l 699 0 l 628 0 z "},"ę":{"ha":803,"x_min":82,"x_max":722,"o":"m 722 450 q 715 363 722 421 l 207 331 q 261 148 208 204 q 447 92 314 92 q 574 106 508 92 q 682 140 639 119 l 682 31 q 636 14 660 19 q 567 -38 589 -10 q 544 -110 544 -67 q 565 -170 544 -147 q 624 -193 586 -193 q 688 -183 654 -193 l 688 -250 q 599 -267 640 -267 q 472 -235 519 -267 q 425 -139 425 -204 q 499 -11 425 -69 q 429 -14 454 -14 q 238 22 314 -14 q 122 144 161 58 q 82 375 82 229 q 167 676 82 589 q 422 764 253 764 q 658 675 594 764 q 722 450 722 586 m 604 449 q 592 563 604 517 q 539 637 579 608 q 422 665 499 665 q 292 637 339 665 q 228 556 246 608 q 207 419 210 503 l 604 449 z "},"Ě":{"ha":772,"x_min":128,"x_max":699,"o":"m 699 113 l 699 0 l 128 0 l 128 964 l 664 964 l 664 853 l 253 853 l 253 554 l 636 554 l 636 449 l 253 449 l 253 113 l 699 113 m 136 1258 l 247 1258 l 399 1135 l 551 1258 l 663 1258 l 475 1053 l 324 1053 l 136 1258 z "},"ě":{"ha":803,"x_min":82,"x_max":722,"o":"m 722 450 q 715 363 722 421 l 207 331 q 261 148 208 204 q 447 92 314 92 q 574 106 508 92 q 682 140 639 119 l 682 31 q 576 -1 647 13 q 429 -14 506 -14 q 238 22 314 -14 q 122 144 161 58 q 82 375 82 229 q 167 676 82 589 q 422 764 253 764 q 658 675 594 764 q 722 450 722 586 m 604 449 q 592 563 604 517 q 539 637 579 608 q 422 665 499 665 q 292 637 339 665 q 228 556 246 608 q 207 419 210 503 l 604 449 m 181 1046 l 278 1046 l 400 928 l 524 1046 l 621 1046 l 476 854 l 325 854 l 181 1046 z "},"Ĝ":{"ha":951,"x_min":100,"x_max":842,"o":"m 551 -14 q 303 28 400 -14 q 153 178 206 69 q 100 482 100 288 q 218 864 100 750 q 565 978 336 978 q 705 967 635 978 q 817 940 775 957 l 817 829 q 571 868 717 868 q 382 835 456 868 q 269 718 308 803 q 231 482 231 633 q 268 238 231 322 q 376 124 306 154 q 565 94 447 94 q 647 99 603 94 q 722 113 692 104 l 722 411 l 529 411 l 529 517 l 842 517 l 842 26 q 551 -14 715 -14 m 438 1240 l 589 1240 l 776 1035 l 665 1035 l 514 1160 l 361 1035 l 250 1035 l 438 1240 z "},"ĝ":{"ha":883,"x_min":83,"x_max":757,"o":"m 757 750 l 757 53 q 667 -192 757 -107 q 390 -278 576 -278 q 208 -260 296 -278 l 208 -158 q 392 -175 294 -175 q 578 -119 518 -175 q 638 65 638 -62 l 638 140 q 556 35 614 71 q 394 0 499 0 q 151 97 218 0 q 83 382 83 194 q 152 661 83 558 q 394 764 221 764 q 558 724 501 764 q 638 610 614 683 l 638 750 l 757 750 m 411 100 q 591 169 540 100 q 642 382 642 239 q 590 592 642 521 q 411 664 539 664 q 283 626 326 664 q 225 528 239 589 q 211 382 211 468 q 226 232 211 292 q 284 136 240 172 q 411 100 328 100 m 321 1046 l 472 1046 l 617 854 l 519 854 l 397 972 l 274 854 l 176 854 l 321 1046 z "},"Ğ":{"ha":951,"x_min":100,"x_max":842,"o":"m 551 -14 q 303 28 400 -14 q 153 178 206 69 q 100 482 100 288 q 218 864 100 750 q 565 978 336 978 q 705 967 635 978 q 817 940 775 957 l 817 829 q 571 868 717 868 q 382 835 456 868 q 269 718 308 803 q 231 482 231 633 q 268 238 231 322 q 376 124 306 154 q 565 94 447 94 q 647 99 603 94 q 722 113 692 104 l 722 411 l 529 411 l 529 517 l 842 517 l 842 26 q 551 -14 715 -14 m 514 1035 q 357 1083 414 1035 q 278 1228 300 1132 l 379 1228 q 428 1156 392 1182 q 514 1129 464 1129 q 599 1156 564 1129 q 646 1228 635 1182 l 749 1228 q 670 1083 726 1132 q 514 1035 614 1035 z "},"ğ":{"ha":883,"x_min":83,"x_max":757,"o":"m 757 750 l 757 53 q 667 -192 757 -107 q 390 -278 576 -278 q 208 -260 296 -278 l 208 -158 q 392 -175 294 -175 q 578 -119 518 -175 q 638 65 638 -62 l 638 140 q 556 35 614 71 q 394 0 499 0 q 151 97 218 0 q 83 382 83 194 q 152 661 83 558 q 394 764 221 764 q 558 724 501 764 q 638 610 614 683 l 638 750 l 757 750 m 411 100 q 591 169 540 100 q 642 382 642 239 q 590 592 642 521 q 411 664 539 664 q 283 626 326 664 q 225 528 239 589 q 211 382 211 468 q 226 232 211 292 q 284 136 240 172 q 411 100 328 100 m 397 825 q 250 874 303 825 q 175 1019 197 924 l 276 1019 q 320 947 288 974 q 397 919 353 919 q 473 947 442 919 q 515 1019 504 974 l 618 1019 q 544 874 596 924 q 397 825 492 825 z "},"Ġ":{"ha":951,"x_min":100,"x_max":842,"o":"m 551 -14 q 303 28 400 -14 q 153 178 206 69 q 100 482 100 288 q 218 864 100 750 q 565 978 336 978 q 705 967 635 978 q 817 940 775 957 l 817 829 q 571 868 717 868 q 382 835 456 868 q 269 718 308 803 q 231 482 231 633 q 268 238 231 322 q 376 124 306 154 q 565 94 447 94 q 647 99 603 94 q 722 113 692 104 l 722 411 l 529 411 l 529 517 l 842 517 l 842 26 q 551 -14 715 -14 m 514 1056 q 457 1069 472 1056 q 442 1126 442 1082 q 457 1184 442 1171 q 514 1197 472 1197 q 569 1184 554 1197 q 585 1126 585 1171 q 569 1069 585 1083 q 514 1056 554 1056 z "},"ġ":{"ha":883,"x_min":83,"x_max":757,"o":"m 757 750 l 757 53 q 667 -192 757 -107 q 390 -278 576 -278 q 208 -260 296 -278 l 208 -158 q 392 -175 294 -175 q 578 -119 518 -175 q 638 65 638 -62 l 638 140 q 556 35 614 71 q 394 0 499 0 q 151 97 218 0 q 83 382 83 194 q 152 661 83 558 q 394 764 221 764 q 558 724 501 764 q 638 610 614 683 l 638 750 l 757 750 m 411 100 q 591 169 540 100 q 642 382 642 239 q 590 592 642 521 q 411 664 539 664 q 283 626 326 664 q 225 528 239 589 q 211 382 211 468 q 226 232 211 292 q 284 136 240 172 q 411 100 328 100 m 397 888 q 340 901 356 888 q 325 958 325 914 q 340 1015 325 1003 q 397 1028 356 1028 q 453 1015 438 1028 q 468 958 468 1001 q 453 901 468 915 q 397 888 438 888 z "},"Ģ":{"ha":951,"x_min":100,"x_max":842,"o":"m 551 -14 q 303 28 400 -14 q 153 178 206 69 q 100 482 100 288 q 218 864 100 750 q 565 978 336 978 q 705 967 635 978 q 817 940 775 957 l 817 829 q 571 868 717 868 q 382 835 456 868 q 269 718 308 803 q 231 482 231 633 q 268 238 231 322 q 376 124 306 154 q 565 94 447 94 q 647 99 603 94 q 722 113 692 104 l 722 411 l 529 411 l 529 517 l 842 517 l 842 26 q 551 -14 715 -14 m 426 -278 q 469 -178 453 -229 q 486 -85 486 -126 l 619 -85 q 588 -176 619 -122 q 514 -278 557 -231 l 426 -278 z "},"ģ":{"ha":883,"x_min":83,"x_max":757,"o":"m 757 750 l 757 53 q 667 -192 757 -107 q 390 -278 576 -278 q 208 -260 296 -278 l 208 -158 q 392 -175 294 -175 q 578 -119 518 -175 q 638 65 638 -62 l 638 140 q 556 35 614 71 q 394 0 499 0 q 151 97 218 0 q 83 382 83 194 q 152 661 83 558 q 394 764 221 764 q 558 724 501 764 q 638 610 614 683 l 638 750 l 757 750 m 411 100 q 591 169 540 100 q 642 382 642 239 q 590 592 642 521 q 411 664 539 664 q 283 626 326 664 q 225 528 239 589 q 211 382 211 468 q 226 232 211 292 q 284 136 240 172 q 411 100 328 100 m 328 849 q 359 940 328 886 q 433 1042 390 994 l 522 1042 q 478 942 496 993 q 461 849 461 890 l 328 849 z "},"Ĥ":{"ha":983,"x_min":128,"x_max":856,"o":"m 856 964 l 856 0 l 729 0 l 729 467 l 253 467 l 253 0 l 128 0 l 128 964 l 253 964 l 253 571 l 729 571 l 729 964 l 856 964 m 415 1240 l 567 1240 l 754 1035 l 643 1035 l 492 1160 l 339 1035 l 228 1035 l 415 1240 z "},"ĥ":{"ha":858,"x_min":-35,"x_max":738,"o":"m 486 764 q 681 700 625 764 q 738 519 738 636 l 738 0 l 618 0 l 618 475 q 588 613 618 569 q 474 657 558 657 q 331 627 389 657 q 246 507 274 597 l 246 0 l 126 0 l 126 1056 l 246 1056 l 246 643 q 342 737 278 710 q 486 764 407 764 m 110 1297 l 261 1297 l 406 1106 l 308 1106 l 186 1224 l 63 1106 l -35 1106 l 110 1297 z "},"Ħ":{"ha":983,"x_min":60,"x_max":924,"o":"m 924 724 l 856 724 l 856 0 l 729 0 l 729 467 l 253 467 l 253 0 l 128 0 l 128 724 l 60 724 l 60 829 l 128 829 l 128 964 l 253 964 l 253 829 l 729 829 l 729 964 l 856 964 l 856 829 l 924 829 l 924 724 m 729 724 l 253 724 l 253 571 l 729 571 l 729 724 z "},"ħ":{"ha":858,"x_min":24,"x_max":738,"o":"m 486 764 q 681 700 625 764 q 738 519 738 636 l 738 0 l 618 0 l 618 475 q 588 613 618 569 q 474 657 558 657 q 331 627 389 657 q 246 507 274 597 l 246 0 l 126 0 l 126 850 l 24 850 l 24 946 l 126 946 l 126 1056 l 246 1056 l 246 946 l 461 946 l 461 850 l 246 850 l 246 643 q 342 737 278 710 q 486 764 407 764 z "},"Ĩ":{"ha":381,"x_min":-46,"x_max":425,"o":"m 128 964 l 253 964 l 253 0 l 128 0 l 128 964 m 290 1036 q 222 1046 249 1036 q 169 1074 194 1056 q 145 1091 161 1079 q 117 1109 129 1103 q 93 1115 104 1115 q 62 1097 72 1115 q 49 1036 51 1078 l -46 1043 q -5 1166 -40 1121 q 88 1211 31 1211 q 144 1201 122 1211 q 213 1160 167 1190 q 283 1132 254 1132 q 317 1151 306 1132 q 331 1211 328 1169 l 425 1204 q 383 1081 419 1126 q 290 1036 346 1036 z "},"ĩ":{"ha":372,"x_min":-49,"x_max":422,"o":"m 126 750 l 246 750 l 246 0 l 126 0 l 126 750 m 288 875 q 219 885 246 875 q 167 913 192 894 q 142 930 158 918 q 114 948 126 942 q 90 954 101 954 q 59 935 69 954 q 46 875 49 917 l -49 882 q -8 1005 -43 960 q 85 1050 28 1050 q 142 1040 119 1050 q 210 999 164 1029 q 281 971 251 971 q 314 990 303 971 q 328 1050 325 1008 l 422 1043 q 380 920 417 965 q 288 875 343 875 z "},"Ī":{"ha":381,"x_min":-12,"x_max":393,"o":"m 128 964 l 253 964 l 253 0 l 128 0 l 128 964 m -12 1154 l 393 1154 l 393 1056 l -12 1056 l -12 1154 z "},"ī":{"ha":372,"x_min":-15,"x_max":390,"o":"m 126 750 l 246 750 l 246 0 l 126 0 l 126 750 m -15 1008 l 390 1008 l 390 910 l -15 910 l -15 1008 z "},"Ĭ":{"ha":381,"x_min":-32,"x_max":411,"o":"m 128 964 l 253 964 l 253 0 l 128 0 l 128 964 m 190 1025 q 43 1074 96 1025 q -32 1219 -10 1124 l 69 1219 q 113 1147 81 1174 q 190 1119 146 1119 q 266 1147 235 1119 q 308 1219 297 1174 l 411 1219 q 337 1074 389 1124 q 190 1025 285 1025 z "},"ĭ":{"ha":372,"x_min":-35,"x_max":408,"o":"m 126 750 l 246 750 l 246 0 l 126 0 l 126 750 m 188 825 q 40 874 93 825 q -35 1019 -12 924 l 67 1019 q 110 947 78 974 q 188 919 143 919 q 263 947 232 919 q 306 1019 294 974 l 408 1019 q 334 874 386 924 q 188 825 282 825 z "},"Į":{"ha":381,"x_min":32,"x_max":294,"o":"m 231 -210 q 294 -200 261 -210 l 294 -267 q 206 -283 247 -283 q 79 -252 126 -283 q 32 -156 32 -221 q 65 -68 32 -110 q 149 0 99 -26 l 128 0 l 128 964 l 253 964 l 253 0 l 250 0 q 175 -53 199 -24 q 151 -126 151 -82 q 172 -187 151 -164 q 231 -210 193 -210 z "},"į":{"ha":372,"x_min":26,"x_max":289,"o":"m 188 888 q 131 901 146 888 q 115 960 115 914 q 131 1017 115 1004 q 188 1029 146 1029 q 243 1016 228 1029 q 258 960 258 1003 q 243 901 258 915 q 188 888 228 888 m 225 -210 q 289 -200 256 -210 l 289 -267 q 200 -283 240 -283 q 74 -252 121 -283 q 26 -156 26 -221 q 60 -68 26 -110 q 143 0 93 -26 l 126 0 l 126 750 l 246 750 l 246 0 l 244 0 q 169 -53 193 -24 q 146 -126 146 -82 q 167 -187 146 -164 q 225 -210 188 -210 z "},"İ":{"ha":381,"x_min":118,"x_max":261,"o":"m 128 964 l 253 964 l 253 0 l 128 0 l 128 964 m 190 1101 q 133 1115 149 1101 q 118 1172 118 1128 q 133 1229 118 1217 q 190 1242 149 1242 q 246 1228 231 1242 q 261 1172 261 1215 q 246 1115 261 1129 q 190 1101 231 1101 z "},"Ĳ":{"ha":757,"x_min":128,"x_max":635,"o":"m 128 964 l 253 964 l 253 0 l 128 0 l 128 964 m 372 -251 q 275 -243 314 -251 l 275 -132 q 368 -142 326 -142 q 476 -95 442 -142 q 510 35 510 -49 l 510 964 l 635 964 l 635 22 q 569 -179 635 -107 q 372 -251 503 -251 z "},"ĳ":{"ha":744,"x_min":115,"x_max":631,"o":"m 188 888 q 131 901 146 888 q 115 958 115 914 q 131 1016 115 1003 q 188 1029 146 1029 q 243 1016 228 1029 q 258 958 258 1003 q 243 901 258 915 q 188 888 228 888 m 126 750 l 246 750 l 246 0 l 126 0 l 126 750 m 560 888 q 503 901 518 888 q 488 958 488 914 q 503 1016 488 1003 q 560 1029 518 1029 q 615 1016 600 1029 q 631 958 631 1003 q 615 901 631 915 q 560 888 600 888 m 363 -278 q 275 -271 324 -278 l 275 -172 q 371 -179 338 -179 q 452 -161 425 -179 q 489 -101 479 -143 q 499 22 499 -58 l 499 750 l 618 750 l 618 10 q 590 -171 618 -108 q 508 -256 563 -233 q 363 -278 454 -278 z "},"Ĵ":{"ha":376,"x_min":-106,"x_max":450,"o":"m -8 -251 q -106 -243 -67 -251 l -106 -132 q -12 -142 -54 -142 q 95 -95 61 -142 q 129 35 129 -49 l 129 964 l 254 964 l 254 22 q 188 -179 254 -107 q -8 -251 122 -251 m 111 1240 l 263 1240 l 450 1035 l 339 1035 l 188 1160 l 35 1035 l -76 1035 l 111 1240 z "},"ĵ":{"ha":372,"x_min":-97,"x_max":407,"o":"m -10 -278 q -97 -271 -49 -278 l -97 -172 q -1 -179 -35 -179 q 80 -161 53 -179 q 117 -101 107 -143 q 126 22 126 -58 l 126 750 l 246 750 l 246 10 q 218 -171 246 -108 q 136 -256 190 -233 q -10 -278 82 -278 m 111 1046 l 263 1046 l 407 854 l 310 854 l 188 972 l 64 854 l -33 854 l 111 1046 z "},"Ķ":{"ha":853,"x_min":128,"x_max":826,"o":"m 826 0 l 665 0 l 321 453 l 253 453 l 253 0 l 128 0 l 128 964 l 253 964 l 253 563 l 321 563 l 658 964 l 814 964 l 419 515 l 826 0 m 340 -278 q 383 -178 367 -229 q 400 -85 400 -126 l 533 -85 q 502 -176 533 -122 q 428 -278 471 -231 l 340 -278 z "},"ķ":{"ha":719,"x_min":126,"x_max":714,"o":"m 714 0 l 560 0 l 286 350 l 246 350 l 246 0 l 126 0 l 126 1056 l 246 1056 l 246 443 l 289 443 l 549 750 l 697 750 l 382 401 l 714 0 m 290 -278 q 333 -178 317 -229 q 350 -85 350 -126 l 483 -85 q 452 -176 483 -122 q 378 -278 421 -231 l 290 -278 z "},"ĸ":{"ha":719,"x_min":126,"x_max":714,"o":"m 714 0 l 560 0 l 286 350 l 246 350 l 246 0 l 126 0 l 126 750 l 246 750 l 246 443 l 289 443 l 549 750 l 697 750 l 382 401 l 714 0 z "},"Ĺ":{"ha":704,"x_min":124,"x_max":671,"o":"m 671 113 l 671 0 l 128 0 l 128 964 l 253 964 l 253 113 l 671 113 m 282 1226 l 450 1226 l 228 1035 l 124 1035 l 282 1226 z "},"ĺ":{"ha":397,"x_min":126,"x_max":404,"o":"m 293 -8 q 167 30 208 -8 q 126 151 126 68 l 126 1056 l 246 1056 l 246 182 q 261 110 246 128 q 315 92 276 92 q 372 99 349 92 l 372 0 q 293 -8 339 -8 m 251 1351 l 404 1351 l 232 1160 l 135 1160 l 251 1351 z "},"Ļ":{"ha":704,"x_min":128,"x_max":671,"o":"m 671 113 l 671 0 l 128 0 l 128 964 l 253 964 l 253 113 l 671 113 m 301 -278 q 344 -178 328 -229 q 361 -85 361 -126 l 494 -85 q 463 -176 494 -122 q 389 -278 432 -231 l 301 -278 z "},"ļ":{"ha":397,"x_min":126,"x_max":372,"o":"m 293 -8 q 167 30 208 -8 q 126 151 126 68 l 126 1056 l 246 1056 l 246 182 q 261 110 246 128 q 315 92 276 92 q 372 99 349 92 l 372 0 q 293 -8 339 -8 m 149 -278 q 192 -178 175 -229 q 208 -85 208 -126 l 342 -85 q 310 -176 342 -122 q 236 -278 279 -231 l 149 -278 z "},"Ľ":{"ha":704,"x_min":128,"x_max":671,"o":"m 671 113 l 671 0 l 128 0 l 128 964 l 253 964 l 253 113 l 671 113 m 368 769 q 389 881 389 832 q 372 965 389 932 l 479 965 q 492 897 492 932 q 477 826 492 861 q 444 769 463 790 l 368 769 z "},"ľ":{"ha":403,"x_min":126,"x_max":418,"o":"m 293 -8 q 167 30 208 -8 q 126 151 126 68 l 126 1056 l 246 1056 l 246 182 q 261 110 246 128 q 315 92 276 92 q 372 99 349 92 l 372 0 q 293 -8 339 -8 m 294 851 q 315 963 315 914 q 299 1047 315 1014 l 406 1047 q 418 979 418 1014 q 403 908 418 943 q 371 851 389 872 l 294 851 z "},"Ŀ":{"ha":704,"x_min":128,"x_max":671,"o":"m 671 113 l 671 0 l 128 0 l 128 964 l 253 964 l 253 113 l 671 113 m 531 411 q 474 424 489 411 q 458 482 458 438 q 474 539 458 526 q 531 551 489 551 q 586 538 571 551 q 601 482 601 525 q 586 425 601 439 q 531 411 571 411 z "},"ŀ":{"ha":404,"x_min":126,"x_max":458,"o":"m 293 -8 q 167 30 208 -8 q 126 151 126 68 l 126 1056 l 246 1056 l 246 182 q 261 110 246 128 q 315 92 276 92 q 372 99 349 92 l 372 0 q 293 -8 339 -8 m 388 425 q 331 438 346 425 q 315 496 315 451 q 331 553 315 540 q 388 565 346 565 q 443 552 428 565 q 458 496 458 539 q 443 439 458 453 q 388 425 428 425 z "},"Ł":{"ha":704,"x_min":-7,"x_max":671,"o":"m 671 113 l 671 0 l 128 0 l 128 415 l 46 368 l -7 458 l 128 536 l 128 964 l 253 964 l 253 608 l 444 719 l 497 628 l 253 488 l 253 113 l 671 113 z "},"ł":{"ha":397,"x_min":-6,"x_max":401,"o":"m 246 182 q 261 110 246 128 q 315 92 276 92 q 372 99 349 92 l 372 0 q 293 -8 339 -8 q 167 30 208 -8 q 126 151 126 68 l 126 438 l 57 375 l -6 446 l 126 565 l 126 1056 l 246 1056 l 246 674 l 338 757 l 401 686 l 246 546 l 246 182 z "},"Ń":{"ha":1024,"x_min":128,"x_max":896,"o":"m 128 964 l 324 964 l 763 164 l 771 164 l 771 964 l 896 964 l 896 0 l 731 0 l 258 849 l 250 849 l 250 0 l 128 0 l 128 964 m 606 1226 l 774 1226 l 551 1035 l 447 1035 l 606 1226 z "},"ń":{"ha":858,"x_min":126,"x_max":738,"o":"m 486 764 q 681 700 625 764 q 738 519 738 636 l 738 0 l 617 0 l 617 475 q 588 613 617 569 q 474 657 558 657 q 331 627 389 657 q 246 507 274 597 l 246 0 l 126 0 l 126 750 l 246 750 l 246 643 q 342 737 278 710 q 486 764 407 764 m 482 1046 l 635 1046 l 463 854 l 365 854 l 482 1046 z "},"Ņ":{"ha":1024,"x_min":128,"x_max":896,"o":"m 128 964 l 324 964 l 763 164 l 771 164 l 771 964 l 896 964 l 896 0 l 731 0 l 258 849 l 250 849 l 250 0 l 128 0 l 128 964 m 414 -278 q 457 -178 440 -229 q 474 -85 474 -126 l 607 -85 q 576 -176 607 -122 q 501 -278 544 -231 l 414 -278 z "},"ņ":{"ha":858,"x_min":126,"x_max":738,"o":"m 486 764 q 681 700 625 764 q 738 519 738 636 l 738 0 l 617 0 l 617 475 q 588 613 617 569 q 474 657 558 657 q 331 627 389 657 q 246 507 274 597 l 246 0 l 126 0 l 126 750 l 246 750 l 246 643 q 342 737 278 710 q 486 764 407 764 m 339 -278 q 382 -178 365 -229 q 399 -85 399 -126 l 532 -85 q 501 -176 532 -122 q 426 -278 469 -231 l 339 -278 z "},"Ň":{"ha":1024,"x_min":128,"x_max":896,"o":"m 128 964 l 324 964 l 763 164 l 771 164 l 771 964 l 896 964 l 896 0 l 731 0 l 258 849 l 250 849 l 250 0 l 128 0 l 128 964 m 249 1258 l 360 1258 l 511 1135 l 664 1258 l 775 1258 l 588 1053 l 436 1053 l 249 1258 z "},"ň":{"ha":858,"x_min":126,"x_max":738,"o":"m 486 764 q 681 700 625 764 q 738 519 738 636 l 738 0 l 617 0 l 617 475 q 588 613 617 569 q 474 657 558 657 q 331 627 389 657 q 246 507 274 597 l 246 0 l 126 0 l 126 750 l 246 750 l 246 643 q 342 737 278 710 q 486 764 407 764 m 210 1046 l 307 1046 l 429 928 l 553 1046 l 650 1046 l 506 854 l 354 854 l 210 1046 z "},"ŉ":{"ha":929,"x_min":-33,"x_max":807,"o":"m 556 764 q 751 700 694 764 q 807 519 807 636 l 807 0 l 686 0 l 686 475 q 657 613 686 569 q 543 657 628 657 q 401 627 458 657 q 315 507 343 597 l 315 0 l 196 0 l 196 750 l 315 750 l 315 643 q 412 737 347 710 q 556 764 476 764 m -33 700 q 22 885 0 789 q 43 1056 43 981 l 161 1056 q 130 885 161 986 q 56 700 99 785 l -33 700 z "},"Ŋ":{"ha":1024,"x_min":128,"x_max":896,"o":"m 896 964 l 896 -44 q 676 -268 896 -268 q 614 -264 639 -268 l 614 -160 q 661 -161 629 -161 q 749 -132 725 -161 q 772 -40 772 -103 l 772 -21 l 258 849 l 250 849 l 250 0 l 128 0 l 128 964 l 324 964 l 771 201 l 771 964 l 896 964 z "},"ŋ":{"ha":858,"x_min":126,"x_max":738,"o":"m 486 764 q 681 700 625 764 q 738 519 738 636 l 738 0 q 708 -174 736 -114 q 626 -256 679 -235 q 482 -278 572 -278 q 394 -271 443 -278 l 394 -172 q 490 -179 457 -179 q 571 -161 544 -179 q 607 -101 597 -143 q 617 22 617 -58 l 617 475 q 588 613 617 569 q 474 657 558 657 q 331 627 389 657 q 246 507 274 597 l 246 0 l 126 0 l 126 750 l 246 750 l 246 643 q 342 737 278 710 q 486 764 407 764 z "},"Ō":{"ha":1032,"x_min":100,"x_max":931,"o":"m 515 -14 q 282 31 372 -14 q 146 183 192 75 q 100 482 100 292 q 146 781 100 672 q 282 933 192 889 q 515 978 372 978 q 749 933 658 978 q 885 781 839 889 q 931 482 931 672 q 885 183 931 292 q 749 31 839 75 q 515 -14 658 -14 m 515 93 q 694 133 632 93 q 778 254 756 172 q 801 482 801 336 q 778 707 801 624 q 694 831 756 790 q 515 872 632 872 q 338 831 400 872 q 253 707 276 790 q 231 482 231 624 q 253 254 231 336 q 338 133 276 172 q 515 93 399 93 m 314 1190 l 719 1190 l 719 1092 l 314 1092 l 314 1190 z "},"ō":{"ha":858,"x_min":82,"x_max":775,"o":"m 429 -14 q 238 22 314 -14 q 122 144 161 58 q 82 375 82 229 q 122 606 82 521 q 238 728 161 692 q 429 764 314 764 q 621 728 546 764 q 735 606 696 692 q 775 375 775 521 q 735 144 775 229 q 621 22 696 58 q 429 -14 546 -14 m 429 88 q 563 114 515 88 q 629 201 610 140 q 649 375 649 263 q 628 549 649 486 q 560 638 607 611 q 429 664 513 664 q 297 638 343 664 q 230 549 250 611 q 210 375 210 488 q 231 202 210 264 q 299 114 251 140 q 429 88 346 88 m 226 1008 l 632 1008 l 632 910 l 226 910 l 226 1008 z "},"Ŏ":{"ha":1032,"x_min":100,"x_max":931,"o":"m 515 -14 q 282 31 372 -14 q 146 183 192 75 q 100 482 100 292 q 146 781 100 672 q 282 933 192 889 q 515 978 372 978 q 749 933 658 978 q 885 781 839 889 q 931 482 931 672 q 885 183 931 292 q 749 31 839 75 q 515 -14 658 -14 m 515 93 q 694 133 632 93 q 778 254 756 172 q 801 482 801 336 q 778 707 801 624 q 694 831 756 790 q 515 872 632 872 q 338 831 400 872 q 253 707 276 790 q 231 482 231 624 q 253 254 231 336 q 338 133 276 172 q 515 93 399 93 m 517 1035 q 360 1083 417 1035 q 281 1228 303 1132 l 382 1228 q 431 1156 394 1182 q 517 1129 467 1129 q 602 1156 567 1129 q 649 1228 638 1182 l 751 1228 q 673 1083 729 1132 q 517 1035 617 1035 z "},"ŏ":{"ha":858,"x_min":82,"x_max":775,"o":"m 429 -14 q 238 22 314 -14 q 122 144 161 58 q 82 375 82 229 q 122 606 82 521 q 238 728 161 692 q 429 764 314 764 q 621 728 546 764 q 735 606 696 692 q 775 375 775 521 q 735 144 775 229 q 621 22 696 58 q 429 -14 546 -14 m 429 88 q 563 114 515 88 q 629 201 610 140 q 649 375 649 263 q 628 549 649 486 q 560 638 607 611 q 429 664 513 664 q 297 638 343 664 q 230 549 250 611 q 210 375 210 488 q 231 202 210 264 q 299 114 251 140 q 429 88 346 88 m 429 825 q 282 874 335 825 q 207 1019 229 924 l 308 1019 q 352 947 319 974 q 429 919 385 919 q 505 947 474 919 q 547 1019 536 974 l 650 1019 q 576 874 628 924 q 429 825 524 825 z "},"Ő":{"ha":1032,"x_min":100,"x_max":931,"o":"m 515 -14 q 282 31 372 -14 q 146 183 192 75 q 100 482 100 292 q 146 781 100 672 q 282 933 192 889 q 515 978 372 978 q 749 933 658 978 q 885 781 839 889 q 931 482 931 672 q 885 183 931 292 q 749 31 839 75 q 515 -14 658 -14 m 515 93 q 694 133 632 93 q 778 254 756 172 q 801 482 801 336 q 778 707 801 624 q 694 831 756 790 q 515 872 632 872 q 338 831 400 872 q 253 707 276 790 q 231 482 231 624 q 253 254 231 336 q 338 133 276 172 q 515 93 399 93 m 482 1226 l 649 1226 l 428 1035 l 325 1035 l 482 1226 m 693 1226 l 860 1226 l 640 1035 l 536 1035 l 693 1226 z "},"ő":{"ha":858,"x_min":82,"x_max":775,"o":"m 429 -14 q 238 22 314 -14 q 122 144 161 58 q 82 375 82 229 q 122 606 82 521 q 238 728 161 692 q 429 764 314 764 q 621 728 546 764 q 735 606 696 692 q 775 375 775 521 q 735 144 775 229 q 621 22 696 58 q 429 -14 546 -14 m 429 88 q 563 114 515 88 q 629 201 610 140 q 649 375 649 263 q 628 549 649 486 q 560 638 607 611 q 429 664 513 664 q 297 638 343 664 q 230 549 250 611 q 210 375 210 488 q 231 202 210 264 q 299 114 251 140 q 429 88 346 88 m 340 1046 l 492 1046 l 319 854 l 224 854 l 340 1046 m 565 1046 l 717 1046 l 544 854 l 449 854 l 565 1046 z "},"Œ":{"ha":1371,"x_min":100,"x_max":1296,"o":"m 1296 113 l 1296 0 l 725 0 l 725 74 q 475 -14 639 -14 q 269 31 351 -14 q 144 184 188 75 q 100 482 100 293 q 144 779 100 671 q 269 933 188 888 q 475 978 351 978 q 725 890 642 978 l 725 964 l 1261 964 l 1261 853 l 851 853 l 851 554 l 1233 554 l 1233 449 l 851 449 l 851 113 l 1296 113 m 478 93 q 635 132 582 93 q 707 251 689 171 q 725 479 725 332 q 706 708 725 625 q 635 831 688 790 q 478 872 582 872 q 327 831 381 872 q 252 706 274 790 q 231 482 231 622 q 252 256 231 339 q 326 133 274 172 q 478 93 379 93 z "},"œ":{"ha":1274,"x_min":82,"x_max":1193,"o":"m 1193 450 q 1186 363 1193 406 l 724 331 q 774 149 725 206 q 939 92 822 92 q 1049 106 986 92 q 1153 140 1111 119 l 1153 31 q 1052 -1 1119 13 q 921 -14 985 -14 q 763 16 826 -14 q 663 124 699 46 q 566 17 629 47 q 404 -14 503 -14 q 165 74 247 -14 q 82 375 82 163 q 165 676 82 588 q 404 764 247 764 q 565 731 501 764 q 661 624 628 699 q 915 764 728 764 q 1193 450 1193 764 m 1076 449 q 1044 608 1076 551 q 914 665 1011 665 q 767 604 808 665 q 724 419 726 543 l 1076 449 m 404 88 q 524 114 483 88 q 582 201 565 140 q 599 375 599 261 q 581 549 599 488 q 522 638 564 611 q 404 664 481 664 q 289 637 331 664 q 228 548 247 610 q 210 375 210 486 q 230 203 210 265 q 292 114 250 140 q 404 88 333 88 z "},"Ŕ":{"ha":853,"x_min":128,"x_max":832,"o":"m 685 0 l 419 389 q 372 388 404 388 l 253 388 l 253 0 l 128 0 l 128 964 l 372 964 q 589 937 510 964 q 704 848 668 910 q 740 679 740 786 q 692 491 740 556 q 543 403 644 426 l 832 0 l 685 0 m 361 492 q 511 505 458 492 q 589 558 564 518 q 614 679 614 599 q 588 790 614 751 q 509 842 563 828 q 361 856 456 856 l 253 856 l 253 492 l 361 492 m 506 1226 l 674 1226 l 451 1035 l 347 1035 l 506 1226 z "},"ŕ":{"ha":526,"x_min":126,"x_max":506,"o":"m 499 764 l 494 656 l 478 656 q 335 619 396 656 q 246 490 275 582 l 246 0 l 126 0 l 126 750 l 246 750 l 246 614 q 341 731 278 699 q 485 764 404 764 l 499 764 m 353 1046 l 506 1046 l 333 854 l 236 854 l 353 1046 z "},"Ŗ":{"ha":853,"x_min":128,"x_max":832,"o":"m 685 0 l 419 389 q 372 388 404 388 l 253 388 l 253 0 l 128 0 l 128 964 l 372 964 q 589 937 510 964 q 704 848 668 910 q 740 679 740 786 q 692 491 740 556 q 543 403 644 426 l 832 0 l 685 0 m 361 492 q 511 505 458 492 q 589 558 564 518 q 614 679 614 599 q 588 790 614 751 q 509 842 563 828 q 361 856 456 856 l 253 856 l 253 492 l 361 492 m 349 -278 q 392 -178 375 -229 q 408 -85 408 -126 l 542 -85 q 510 -176 542 -122 q 436 -278 479 -231 l 349 -278 z "},"ŗ":{"ha":526,"x_min":93,"x_max":499,"o":"m 499 764 l 494 656 l 478 656 q 335 619 396 656 q 246 490 275 582 l 246 0 l 126 0 l 126 750 l 246 750 l 246 614 q 341 731 278 699 q 485 764 404 764 l 499 764 m 93 -278 q 136 -178 119 -229 q 153 -85 153 -126 l 286 -85 q 255 -176 286 -122 q 181 -278 224 -231 l 93 -278 z "},"Ř":{"ha":853,"x_min":128,"x_max":832,"o":"m 685 0 l 419 389 q 372 388 404 388 l 253 388 l 253 0 l 128 0 l 128 964 l 372 964 q 589 937 510 964 q 704 848 668 910 q 740 679 740 786 q 692 491 740 556 q 543 403 644 426 l 832 0 l 685 0 m 361 492 q 511 505 458 492 q 589 558 564 518 q 614 679 614 599 q 588 790 614 751 q 509 842 563 828 q 361 856 456 856 l 253 856 l 253 492 l 361 492 m 149 1258 l 260 1258 l 411 1135 l 564 1258 l 675 1258 l 488 1053 l 336 1053 l 149 1258 z "},"ř":{"ha":526,"x_min":82,"x_max":522,"o":"m 499 764 l 494 656 l 478 656 q 335 619 396 656 q 246 490 275 582 l 246 0 l 126 0 l 126 750 l 246 750 l 246 614 q 341 731 278 699 q 485 764 404 764 l 499 764 m 82 1046 l 179 1046 l 301 928 l 425 1046 l 522 1046 l 378 854 l 226 854 l 82 1046 z "},"Ś":{"ha":786,"x_min":79,"x_max":707,"o":"m 365 -14 q 201 -2 282 -14 q 79 24 119 10 l 79 139 q 206 109 126 122 q 365 96 285 96 q 531 133 476 96 q 585 258 585 171 q 567 353 585 319 q 503 408 549 386 q 363 451 457 429 q 201 506 257 476 q 119 584 144 535 q 93 717 93 633 q 172 913 93 849 q 414 978 251 978 q 551 967 482 978 q 656 943 619 957 l 656 829 q 545 857 613 846 q 415 868 478 868 q 301 856 343 868 q 238 810 258 843 q 217 717 217 778 q 231 642 217 669 q 285 596 244 615 q 414 556 326 576 q 590 497 528 529 q 679 409 651 464 q 707 260 707 354 q 365 -14 707 -14 m 486 1226 l 654 1226 l 432 1035 l 328 1035 l 486 1226 z "},"ś":{"ha":665,"x_min":82,"x_max":585,"o":"m 300 -8 q 179 -1 246 -8 q 82 15 113 6 l 82 118 q 185 98 122 107 q 299 89 249 89 q 430 115 388 89 q 472 204 472 140 q 460 274 472 250 q 413 312 447 297 q 304 344 379 326 q 176 390 221 364 q 113 456 131 415 q 94 561 94 496 q 164 709 94 654 q 364 764 233 764 q 472 757 418 764 q 553 739 525 750 l 544 638 q 463 658 511 650 q 365 667 415 667 q 244 643 282 667 q 207 558 207 619 q 219 499 207 519 q 259 465 231 478 q 350 439 288 453 q 490 392 440 418 q 562 324 539 367 q 585 208 585 281 q 300 -8 585 -8 m 383 1046 l 536 1046 l 364 854 l 267 854 l 383 1046 z "},"Ŝ":{"ha":786,"x_min":79,"x_max":707,"o":"m 365 -14 q 201 -2 282 -14 q 79 24 119 10 l 79 139 q 206 109 126 122 q 365 96 285 96 q 531 133 476 96 q 585 258 585 171 q 567 353 585 319 q 503 408 549 386 q 363 451 457 429 q 201 506 257 476 q 119 584 144 535 q 93 717 93 633 q 172 913 93 849 q 414 978 251 978 q 551 967 482 978 q 656 943 619 957 l 656 829 q 545 857 613 846 q 415 868 478 868 q 301 856 343 868 q 238 810 258 843 q 217 717 217 778 q 231 642 217 669 q 285 596 244 615 q 414 556 326 576 q 590 497 528 529 q 679 409 651 464 q 707 260 707 354 q 365 -14 707 -14 m 317 1240 l 468 1240 l 656 1035 l 544 1035 l 393 1160 l 240 1035 l 129 1035 l 317 1240 z "},"ŝ":{"ha":665,"x_min":82,"x_max":585,"o":"m 300 -8 q 179 -1 246 -8 q 82 15 113 6 l 82 118 q 185 98 122 107 q 299 89 249 89 q 430 115 388 89 q 472 204 472 140 q 460 274 472 250 q 413 312 447 297 q 304 344 379 326 q 176 390 221 364 q 113 456 131 415 q 94 561 94 496 q 164 709 94 654 q 364 764 233 764 q 472 757 418 764 q 553 739 525 750 l 544 638 q 463 658 511 650 q 365 667 415 667 q 244 643 282 667 q 207 558 207 619 q 219 499 207 519 q 259 465 231 478 q 350 439 288 453 q 490 392 440 418 q 562 324 539 367 q 585 208 585 281 q 300 -8 585 -8 m 256 1046 l 407 1046 l 551 854 l 454 854 l 332 972 l 208 854 l 111 854 l 256 1046 z "},"Ş":{"ha":786,"x_min":79,"x_max":707,"o":"m 707 260 q 474 -6 707 32 l 417 -74 q 451 -71 439 -71 q 533 -94 504 -71 q 561 -165 561 -118 q 510 -253 561 -221 q 347 -285 458 -285 q 256 -278 308 -285 l 256 -214 q 340 -219 296 -219 q 442 -169 442 -219 q 389 -135 442 -135 q 328 -140 357 -135 l 294 -106 l 368 -14 l 365 -14 q 201 -2 282 -14 q 79 24 119 10 l 79 139 q 206 109 126 122 q 365 96 285 96 q 531 133 476 96 q 585 258 585 171 q 567 353 585 319 q 503 408 549 386 q 363 451 457 429 q 201 506 257 476 q 119 584 144 535 q 93 718 93 633 q 172 915 93 850 q 414 979 251 979 q 551 969 482 979 q 656 944 619 958 l 656 831 q 545 858 613 847 q 415 869 478 869 q 301 857 343 869 q 238 812 258 844 q 217 718 217 779 q 231 642 217 669 q 285 596 244 615 q 414 556 326 576 q 590 497 528 529 q 679 409 651 464 q 707 260 707 354 z "},"ş":{"ha":665,"x_min":82,"x_max":585,"o":"m 585 208 q 414 3 585 42 l 354 -69 q 389 -67 376 -67 q 470 -90 442 -67 q 499 -161 499 -114 q 447 -249 499 -217 q 285 -281 396 -281 q 193 -274 246 -281 l 193 -210 q 278 -215 233 -215 q 379 -165 379 -215 q 326 -131 379 -131 q 265 -136 294 -131 l 232 -101 l 307 -8 l 300 -8 q 179 -1 246 -8 q 82 15 113 6 l 82 118 q 185 98 122 107 q 299 89 249 89 q 430 115 388 89 q 472 204 472 140 q 460 274 472 250 q 413 312 447 297 q 304 344 379 326 q 176 390 221 364 q 113 456 131 415 q 94 561 94 496 q 164 709 94 654 q 364 764 233 764 q 472 757 418 764 q 553 739 525 750 l 544 638 q 463 658 511 650 q 365 667 415 667 q 244 643 282 667 q 207 558 207 619 q 219 499 207 519 q 259 465 231 478 q 350 439 288 453 q 490 392 440 418 q 562 324 539 367 q 585 208 585 281 z "},"Š":{"ha":786,"x_min":79,"x_max":707,"o":"m 365 -14 q 201 -2 282 -14 q 79 24 119 10 l 79 139 q 206 109 126 122 q 365 96 285 96 q 531 133 476 96 q 585 258 585 171 q 567 353 585 319 q 503 408 549 386 q 363 451 457 429 q 201 506 257 476 q 119 584 144 535 q 93 717 93 633 q 172 913 93 849 q 414 978 251 978 q 551 967 482 978 q 656 943 619 957 l 656 829 q 545 857 613 846 q 415 868 478 868 q 301 856 343 868 q 238 810 258 843 q 217 717 217 778 q 231 642 217 669 q 285 596 244 615 q 414 556 326 576 q 590 497 528 529 q 679 409 651 464 q 707 260 707 354 q 365 -14 707 -14 m 129 1258 l 240 1258 l 392 1135 l 544 1258 l 656 1258 l 468 1053 l 317 1053 l 129 1258 z "},"š":{"ha":665,"x_min":82,"x_max":585,"o":"m 300 -8 q 179 -1 246 -8 q 82 15 113 6 l 82 118 q 185 98 122 107 q 299 89 249 89 q 430 115 388 89 q 472 204 472 140 q 460 274 472 250 q 413 312 447 297 q 304 344 379 326 q 176 390 221 364 q 113 456 131 415 q 94 561 94 496 q 164 709 94 654 q 364 764 233 764 q 472 757 418 764 q 553 739 525 750 l 544 638 q 463 658 511 650 q 365 667 415 667 q 244 643 282 667 q 207 558 207 619 q 219 499 207 519 q 259 465 231 478 q 350 439 288 453 q 490 392 440 418 q 562 324 539 367 q 585 208 585 281 q 300 -8 585 -8 m 111 1046 l 208 1046 l 331 928 l 454 1046 l 551 1046 l 407 854 l 256 854 l 111 1046 z "},"Ţ":{"ha":733,"x_min":22,"x_max":710,"o":"m 426 0 l 365 -74 q 400 -71 388 -71 q 481 -94 453 -71 q 510 -165 510 -118 q 458 -253 510 -221 q 296 -285 407 -285 q 204 -278 257 -285 l 204 -214 q 289 -219 244 -219 q 390 -169 390 -219 q 338 -135 390 -135 q 276 -140 306 -135 l 243 -106 l 328 0 l 304 0 l 304 853 l 22 853 l 22 964 l 710 964 l 710 853 l 429 853 l 429 0 l 426 0 z "},"ţ":{"ha":468,"x_min":21,"x_max":456,"o":"m 346 -71 q 427 -94 399 -71 q 456 -165 456 -118 q 404 -253 456 -221 q 242 -285 353 -285 q 150 -278 203 -285 l 150 -214 q 235 -219 190 -219 q 336 -169 336 -219 q 283 -135 336 -135 q 222 -140 251 -135 l 189 -106 l 272 -3 q 164 61 196 10 q 132 229 132 113 l 132 650 l 21 650 l 21 750 l 132 750 l 132 928 l 251 928 l 251 750 l 438 750 l 438 650 l 251 650 l 251 236 q 260 145 251 175 q 290 103 268 115 q 360 92 313 92 q 442 100 403 92 l 442 -1 q 365 -8 397 -8 l 311 -74 q 346 -71 333 -71 z "},"Ť":{"ha":733,"x_min":22,"x_max":710,"o":"m 710 853 l 429 853 l 429 0 l 304 0 l 304 853 l 22 853 l 22 964 l 710 964 l 710 853 m 103 1258 l 214 1258 l 365 1135 l 518 1258 l 629 1258 l 442 1053 l 290 1053 l 103 1258 z "},"ť":{"ha":472,"x_min":21,"x_max":457,"o":"m 360 92 q 442 100 403 92 l 442 -1 q 357 -8 393 -8 q 222 10 269 -8 q 153 80 175 29 q 132 229 132 131 l 132 650 l 21 650 l 21 750 l 132 750 l 132 928 l 251 928 l 251 750 l 438 750 l 438 650 l 251 650 l 251 236 q 260 145 251 175 q 290 103 268 115 q 360 92 313 92 m 333 846 q 354 957 354 908 q 338 1042 354 1008 l 444 1042 q 457 974 457 1008 q 442 902 457 938 q 410 846 428 867 l 333 846 z "},"Ŧ":{"ha":733,"x_min":22,"x_max":710,"o":"m 429 853 l 429 568 l 649 568 l 649 463 l 429 463 l 429 0 l 304 0 l 304 463 l 93 463 l 93 568 l 304 568 l 304 853 l 22 853 l 22 964 l 710 964 l 710 853 l 429 853 z "},"ŧ":{"ha":468,"x_min":21,"x_max":442,"o":"m 360 92 q 442 100 403 92 l 442 -1 q 357 -8 393 -8 q 222 10 269 -8 q 153 80 175 29 q 132 229 132 131 l 132 376 l 26 376 l 26 472 l 132 472 l 132 650 l 21 650 l 21 750 l 132 750 l 132 928 l 251 928 l 251 750 l 438 750 l 438 650 l 251 650 l 251 472 l 428 472 l 428 376 l 251 376 l 251 236 q 260 145 251 175 q 290 103 268 115 q 360 92 313 92 z "},"Ũ":{"ha":974,"x_min":124,"x_max":851,"o":"m 486 -14 q 213 63 301 -14 q 124 311 124 139 l 124 964 l 247 964 l 247 339 q 270 194 247 246 q 345 119 293 142 q 488 96 397 96 q 633 119 582 96 q 706 193 685 142 q 728 339 728 244 l 728 964 l 851 964 l 851 311 q 761 65 851 143 q 486 -14 671 -14 m 603 1036 q 529 1045 557 1036 q 464 1075 501 1054 l 435 1092 q 402 1108 418 1101 q 376 1115 386 1115 q 335 1096 350 1115 q 317 1036 321 1076 l 222 1043 q 268 1166 229 1121 q 371 1211 307 1211 q 439 1199 411 1211 q 510 1160 467 1188 q 594 1132 553 1132 q 638 1151 622 1132 q 657 1211 653 1171 l 751 1203 q 705 1081 746 1126 q 603 1036 664 1036 z "},"ũ":{"ha":851,"x_min":121,"x_max":725,"o":"m 725 750 l 725 0 l 624 0 l 608 108 q 372 -14 551 -14 q 177 49 233 -14 q 121 231 121 113 l 121 750 l 240 750 l 240 275 q 270 137 240 182 q 385 92 300 92 q 522 122 468 92 q 606 240 576 151 l 606 750 l 725 750 m 526 875 q 458 885 485 875 q 406 913 431 894 q 381 930 397 918 q 353 948 365 942 q 329 954 340 954 q 298 935 308 954 q 285 875 288 917 l 190 882 q 231 1005 196 960 q 324 1050 267 1050 q 381 1040 358 1050 q 449 999 403 1029 q 519 971 490 971 q 553 990 542 971 q 567 1050 564 1008 l 661 1043 q 619 920 656 965 q 526 875 582 875 z "},"Ū":{"ha":974,"x_min":124,"x_max":851,"o":"m 486 -14 q 213 63 301 -14 q 124 311 124 139 l 124 964 l 247 964 l 247 339 q 270 194 247 246 q 345 119 293 142 q 488 96 397 96 q 633 119 582 96 q 706 193 685 142 q 728 339 728 244 l 728 964 l 851 964 l 851 311 q 761 65 851 143 q 486 -14 671 -14 m 285 1190 l 690 1190 l 690 1092 l 285 1092 l 285 1190 z "},"ū":{"ha":851,"x_min":121,"x_max":725,"o":"m 725 750 l 725 0 l 624 0 l 608 108 q 372 -14 551 -14 q 177 49 233 -14 q 121 231 121 113 l 121 750 l 240 750 l 240 275 q 270 137 240 182 q 385 92 300 92 q 522 122 468 92 q 606 240 576 151 l 606 750 l 725 750 m 224 1008 l 629 1008 l 629 910 l 224 910 l 224 1008 z "},"Ŭ":{"ha":974,"x_min":124,"x_max":851,"o":"m 486 -14 q 213 63 301 -14 q 124 311 124 139 l 124 964 l 247 964 l 247 339 q 270 194 247 246 q 345 119 293 142 q 488 96 397 96 q 633 119 582 96 q 706 193 685 142 q 728 339 728 244 l 728 964 l 851 964 l 851 311 q 761 65 851 143 q 486 -14 671 -14 m 488 1035 q 331 1083 388 1035 q 251 1228 274 1132 l 353 1228 q 401 1156 365 1182 q 488 1129 438 1129 q 573 1156 538 1129 q 619 1228 608 1182 l 722 1228 q 644 1083 700 1132 q 488 1035 588 1035 z "},"ŭ":{"ha":851,"x_min":121,"x_max":725,"o":"m 725 750 l 725 0 l 624 0 l 608 108 q 372 -14 551 -14 q 177 49 233 -14 q 121 231 121 113 l 121 750 l 240 750 l 240 275 q 270 137 240 182 q 385 92 300 92 q 522 122 468 92 q 606 240 576 151 l 606 750 l 725 750 m 426 825 q 279 874 332 825 q 204 1019 226 924 l 306 1019 q 349 947 317 974 q 426 919 382 919 q 502 947 471 919 q 544 1019 533 974 l 647 1019 q 573 874 625 924 q 426 825 521 825 z "},"Ů":{"ha":974,"x_min":124,"x_max":851,"o":"m 486 -14 q 213 63 301 -14 q 124 311 124 139 l 124 964 l 247 964 l 247 339 q 270 194 247 246 q 345 119 293 142 q 488 96 397 96 q 633 119 582 96 q 706 193 685 142 q 728 339 728 244 l 728 964 l 851 964 l 851 311 q 761 65 851 143 q 486 -14 671 -14 m 489 1013 q 383 1050 421 1013 q 344 1154 344 1088 q 383 1256 344 1221 q 489 1292 421 1292 q 594 1256 557 1292 q 631 1154 631 1219 q 594 1050 631 1088 q 489 1013 557 1013 m 489 1090 q 550 1150 550 1090 q 535 1200 550 1185 q 489 1215 521 1215 q 442 1200 457 1215 q 428 1150 428 1185 q 489 1090 428 1090 z "},"ů":{"ha":851,"x_min":121,"x_max":725,"o":"m 725 750 l 725 0 l 624 0 l 608 108 q 372 -14 551 -14 q 177 49 233 -14 q 121 231 121 113 l 121 750 l 240 750 l 240 275 q 270 137 240 182 q 385 92 300 92 q 522 122 468 92 q 606 240 576 151 l 606 750 l 725 750 m 428 853 q 322 890 360 853 q 283 994 283 928 q 322 1097 283 1061 q 428 1132 360 1132 q 533 1096 496 1132 q 569 994 569 1060 q 533 890 569 928 q 428 853 496 853 m 428 931 q 489 990 489 931 q 474 1040 489 1025 q 428 1056 460 1056 q 381 1040 396 1056 q 367 990 367 1025 q 428 931 367 931 z "},"Ű":{"ha":974,"x_min":124,"x_max":851,"o":"m 486 -14 q 213 63 301 -14 q 124 311 124 139 l 124 964 l 247 964 l 247 339 q 270 194 247 246 q 345 119 293 142 q 488 96 397 96 q 633 119 582 96 q 706 193 685 142 q 728 339 728 244 l 728 964 l 851 964 l 851 311 q 761 65 851 143 q 486 -14 671 -14 m 453 1226 l 619 1226 l 399 1035 l 296 1035 l 453 1226 m 664 1226 l 831 1226 l 611 1035 l 507 1035 l 664 1226 z "},"ű":{"ha":851,"x_min":121,"x_max":725,"o":"m 725 750 l 725 0 l 624 0 l 608 108 q 372 -14 551 -14 q 177 49 233 -14 q 121 231 121 113 l 121 750 l 240 750 l 240 275 q 270 137 240 182 q 385 92 300 92 q 522 122 468 92 q 606 240 576 151 l 606 750 l 725 750 m 338 1046 l 489 1046 l 317 854 l 221 854 l 338 1046 m 563 1046 l 714 1046 l 542 854 l 446 854 l 563 1046 z "},"Ų":{"ha":974,"x_min":124,"x_max":851,"o":"m 851 964 l 851 311 q 783 86 851 164 q 578 -8 715 8 q 503 -61 526 -32 q 479 -135 479 -90 q 500 -195 479 -172 q 558 -218 521 -218 q 622 -208 589 -218 l 622 -275 q 533 -292 575 -292 q 407 -260 454 -292 q 360 -164 360 -229 q 390 -81 360 -121 q 467 -14 419 -40 q 208 67 292 -10 q 124 311 124 143 l 124 964 l 247 964 l 247 339 q 270 194 247 246 q 345 119 293 142 q 488 96 397 96 q 633 119 582 96 q 706 193 685 142 q 728 339 728 244 l 728 964 l 851 964 z "},"ų":{"ha":851,"x_min":121,"x_max":769,"o":"m 706 -210 q 769 -200 736 -210 l 769 -267 q 681 -283 721 -283 q 554 -252 601 -283 q 507 -156 507 -221 q 540 -68 507 -110 q 624 0 574 -26 l 608 108 q 372 -14 551 -14 q 177 49 233 -14 q 121 231 121 113 l 121 750 l 240 750 l 240 275 q 270 137 240 182 q 385 92 300 92 q 522 122 468 92 q 606 240 576 151 l 606 750 l 725 750 l 725 0 q 650 -53 674 -24 q 626 -126 626 -82 q 647 -187 626 -164 q 706 -210 668 -210 z "},"Ŵ":{"ha":1247,"x_min":36,"x_max":1211,"o":"m 36 964 l 167 964 l 347 146 l 356 146 l 551 851 l 701 851 l 897 146 l 906 146 l 1085 964 l 1211 964 l 982 0 l 824 0 l 628 714 l 619 714 l 419 0 l 261 0 l 36 964 m 549 1240 l 700 1240 l 888 1035 l 776 1035 l 625 1160 l 472 1035 l 361 1035 l 549 1240 z "},"ŵ":{"ha":1150,"x_min":31,"x_max":1121,"o":"m 31 750 l 150 750 l 308 121 l 317 121 l 503 750 l 644 750 l 836 121 l 844 121 l 1003 750 l 1121 750 l 913 0 l 764 0 l 578 615 l 569 615 l 382 0 l 233 0 l 31 750 m 500 1046 l 651 1046 l 796 854 l 699 854 l 576 972 l 453 854 l 356 854 l 500 1046 z "},"Ŷ":{"ha":825,"x_min":8,"x_max":817,"o":"m 349 414 l 8 964 l 153 964 l 413 528 l 421 528 l 679 964 l 817 964 l 474 415 l 474 0 l 349 0 l 349 414 m 336 1240 l 488 1240 l 675 1035 l 564 1035 l 413 1160 l 260 1035 l 149 1035 l 336 1240 z "},"ŷ":{"ha":732,"x_min":14,"x_max":718,"o":"m 93 -175 q 236 -134 188 -175 q 314 1 285 -93 l 14 750 l 143 750 l 372 128 l 381 128 l 597 750 l 718 750 l 449 25 q 369 -146 408 -83 q 264 -243 329 -208 q 93 -278 199 -278 l 93 -175 m 290 1046 l 442 1046 l 586 854 l 489 854 l 367 972 l 243 854 l 146 854 l 290 1046 z "},"Ÿ":{"ha":825,"x_min":8,"x_max":817,"o":"m 349 414 l 8 964 l 153 964 l 413 528 l 421 528 l 679 964 l 817 964 l 474 415 l 474 0 l 349 0 l 349 414 m 278 1049 q 222 1062 238 1049 q 207 1118 207 1075 q 222 1176 207 1163 q 278 1189 236 1189 q 333 1176 318 1189 q 349 1118 349 1163 q 333 1062 349 1075 q 278 1049 318 1049 m 549 1049 q 492 1062 507 1049 q 476 1118 476 1075 q 492 1176 476 1163 q 549 1189 507 1189 q 603 1176 588 1189 q 618 1118 618 1163 q 603 1062 618 1075 q 549 1049 588 1049 z "},"Ź":{"ha":869,"x_min":81,"x_max":810,"o":"m 81 128 l 635 844 l 633 853 l 108 853 l 108 964 l 778 964 l 778 844 l 215 121 l 215 113 l 810 113 l 810 0 l 81 0 l 81 128 m 528 1226 l 696 1226 l 474 1035 l 369 1035 l 528 1226 z "},"ź":{"ha":703,"x_min":61,"x_max":653,"o":"m 61 97 l 483 643 l 483 651 l 94 651 l 94 750 l 629 750 l 629 660 l 204 111 l 204 103 l 653 103 l 653 0 l 61 0 l 61 97 m 403 1046 l 556 1046 l 383 854 l 286 854 l 403 1046 z "},"Ż":{"ha":869,"x_min":81,"x_max":810,"o":"m 81 128 l 635 844 l 633 853 l 108 853 l 108 964 l 778 964 l 778 844 l 215 121 l 215 113 l 810 113 l 810 0 l 81 0 l 81 128 m 435 1056 q 378 1069 393 1056 q 363 1126 363 1082 q 378 1184 363 1171 q 435 1197 393 1197 q 490 1184 475 1197 q 506 1126 506 1171 q 490 1069 506 1083 q 435 1056 475 1056 z "},"ż":{"ha":703,"x_min":61,"x_max":653,"o":"m 61 97 l 483 643 l 483 651 l 94 651 l 94 750 l 629 750 l 629 660 l 204 111 l 204 103 l 653 103 l 653 0 l 61 0 l 61 97 m 353 888 q 296 901 311 888 q 281 958 281 914 q 296 1015 281 1003 q 353 1028 311 1028 q 408 1015 393 1028 q 424 958 424 1001 q 408 901 424 915 q 353 888 393 888 z "},"Ž":{"ha":869,"x_min":81,"x_max":810,"o":"m 81 128 l 635 844 l 633 853 l 108 853 l 108 964 l 778 964 l 778 844 l 215 121 l 215 113 l 810 113 l 810 0 l 81 0 l 81 128 m 171 1258 l 282 1258 l 433 1135 l 586 1258 l 697 1258 l 510 1053 l 358 1053 l 171 1258 z "},"ž":{"ha":703,"x_min":61,"x_max":653,"o":"m 61 97 l 483 643 l 483 651 l 94 651 l 94 750 l 629 750 l 629 660 l 204 111 l 204 103 l 653 103 l 653 0 l 61 0 l 61 97 m 131 1046 l 228 1046 l 350 928 l 474 1046 l 571 1046 l 426 854 l 275 854 l 131 1046 z "},"ﬁ":{"ha":839,"x_min":25,"x_max":725,"o":"m 150 757 q 180 948 150 882 q 264 1038 210 1014 q 403 1061 318 1061 q 475 1054 431 1061 l 475 958 q 401 965 438 965 q 322 947 349 965 q 283 883 294 928 q 269 750 271 838 l 446 750 l 446 651 l 269 651 l 269 0 l 150 0 l 150 651 l 25 651 l 25 750 l 150 750 l 150 757 m 654 888 q 597 901 613 888 q 582 958 582 914 q 597 1016 582 1003 q 654 1029 613 1029 q 710 1016 694 1029 q 725 958 725 1003 q 710 901 725 915 q 654 888 694 888 m 593 750 l 713 750 l 713 0 l 593 0 l 593 750 z "},"ﬂ":{"ha":864,"x_min":25,"x_max":839,"o":"m 150 757 q 180 948 150 882 q 264 1038 210 1014 q 403 1061 318 1061 q 475 1054 431 1061 l 475 958 q 401 965 438 965 q 322 947 349 965 q 283 883 294 928 q 269 750 271 838 l 446 750 l 446 651 l 269 651 l 269 0 l 150 0 l 150 651 l 25 651 l 25 750 l 150 750 l 150 757 m 782 92 q 839 99 815 92 l 839 0 q 760 -8 806 -8 q 635 30 676 -8 q 593 151 593 68 l 593 1056 l 713 1056 l 713 182 q 728 110 713 128 q 782 92 743 92 z "},"ﬀ":{"ha":926,"x_min":25,"x_max":929,"o":"m 844 965 q 764 947 792 965 q 725 883 736 929 q 713 750 714 838 l 901 750 l 901 651 l 713 651 l 713 0 l 593 0 l 593 651 l 269 651 l 269 0 l 150 0 l 150 651 l 25 651 l 25 750 l 150 750 l 150 757 q 180 948 150 882 q 264 1038 210 1014 q 403 1061 318 1061 q 486 1054 442 1061 l 486 958 q 403 965 451 965 q 322 947 350 965 q 283 883 294 928 q 269 750 271 838 l 593 750 l 593 757 q 623 948 593 882 q 707 1038 653 1014 q 846 1061 761 1061 q 929 1054 885 1061 l 929 958 q 844 965 892 965 z "},"ﬃ":{"ha":1282,"x_min":25,"x_max":1167,"o":"m 593 757 q 623 948 593 882 q 706 1038 653 1014 q 844 1061 760 1061 q 917 1054 872 1061 l 917 958 q 843 965 879 965 q 764 947 792 965 q 725 883 736 928 q 713 750 714 838 l 901 750 l 901 651 l 713 651 l 713 0 l 593 0 l 593 651 l 269 651 l 269 0 l 150 0 l 150 651 l 25 651 l 25 750 l 150 750 l 150 757 q 180 948 150 882 q 264 1038 210 1014 q 403 1061 318 1061 q 486 1054 442 1061 l 486 958 q 403 965 451 965 q 322 947 350 965 q 283 883 294 928 q 269 750 271 838 l 593 750 l 593 757 m 1096 888 q 1039 901 1054 888 q 1024 958 1024 914 q 1039 1016 1024 1003 q 1096 1029 1054 1029 q 1151 1016 1136 1029 q 1167 958 1167 1003 q 1151 901 1167 915 q 1096 888 1136 888 m 1035 750 l 1154 750 l 1154 0 l 1035 0 l 1035 750 z "},"ﬄ":{"ha":1307,"x_min":25,"x_max":1281,"o":"m 593 757 q 623 948 593 882 q 706 1038 653 1014 q 844 1061 760 1061 q 917 1054 872 1061 l 917 958 q 843 965 879 965 q 764 947 792 965 q 725 883 736 928 q 713 750 714 838 l 901 750 l 901 651 l 713 651 l 713 0 l 593 0 l 593 651 l 269 651 l 269 0 l 150 0 l 150 651 l 25 651 l 25 750 l 150 750 l 150 757 q 180 948 150 882 q 264 1038 210 1014 q 403 1061 318 1061 q 486 1054 442 1061 l 486 958 q 403 965 451 965 q 322 947 350 965 q 283 883 294 928 q 269 750 271 838 l 593 750 l 593 757 m 1225 92 q 1281 99 1256 92 l 1281 0 q 1203 -8 1250 -8 q 1076 30 1118 -8 q 1035 151 1035 68 l 1035 1056 l 1154 1056 l 1154 182 q 1170 110 1154 128 q 1225 92 1186 92 z "},"ſ":{"ha":431,"x_min":25,"x_max":486,"o":"m 403 1061 q 486 1054 442 1061 l 486 958 q 403 965 451 965 q 321 947 349 965 q 281 881 293 928 q 269 743 269 833 l 269 0 l 150 0 l 150 651 l 25 651 l 25 750 l 150 750 l 150 757 q 180 948 150 882 q 264 1038 210 1014 q 403 1061 318 1061 z "},"Ǻ":{"ha":926,"x_min":15,"x_max":911,"o":"m 675 288 l 249 288 l 143 0 l 15 0 l 381 964 l 547 964 l 911 0 l 779 0 l 675 288 m 635 399 l 472 847 l 456 847 l 290 399 l 635 399 m 321 1154 q 359 1256 321 1221 q 465 1292 397 1292 q 570 1256 533 1292 q 607 1154 607 1219 q 570 1050 607 1088 q 465 1013 533 1013 q 359 1050 397 1013 q 321 1154 321 1088 m 526 1150 q 512 1200 526 1185 q 465 1215 497 1215 q 419 1200 433 1215 q 404 1150 404 1185 q 465 1090 404 1090 q 526 1150 526 1090 m 557 1532 l 725 1532 l 503 1340 l 399 1340 l 557 1532 z "},"ǻ":{"ha":850,"x_min":76,"x_max":722,"o":"m 424 764 q 656 703 590 764 q 722 532 722 643 l 722 0 l 621 0 l 603 114 q 497 20 571 54 q 335 -14 422 -14 q 76 210 76 -14 q 153 393 76 338 q 374 449 231 449 l 603 449 l 603 511 q 564 625 603 586 q 418 664 525 664 q 253 647 333 664 l 253 753 q 424 764 342 764 m 346 86 q 506 124 439 86 q 603 229 574 163 l 603 353 l 382 353 q 242 324 283 353 q 200 211 200 294 q 234 117 200 149 q 346 86 268 86 m 450 853 q 344 890 382 853 q 306 994 306 928 q 344 1097 306 1061 q 450 1132 382 1132 q 555 1096 518 1132 q 592 994 592 1060 q 555 890 592 928 q 450 853 518 853 m 450 931 q 511 990 511 931 q 497 1040 511 1025 q 450 1056 482 1056 q 403 1040 418 1056 q 389 990 389 1025 q 450 931 389 931 m 500 1401 l 653 1401 l 481 1210 l 383 1210 l 500 1401 z "},"Ǽ":{"ha":1235,"x_min":-8,"x_max":1160,"o":"m 1160 113 l 1160 0 l 589 0 l 589 288 l 269 288 l 126 0 l -8 0 l 483 964 l 1125 964 l 1125 853 l 715 853 l 715 554 l 1097 554 l 1097 449 l 715 449 l 715 113 l 1160 113 m 589 399 l 589 857 l 554 857 l 325 399 l 589 399 m 900 1226 l 1068 1226 l 846 1035 l 742 1035 l 900 1226 z "},"ǽ":{"ha":1286,"x_min":76,"x_max":1206,"o":"m 708 353 l 708 333 q 758 150 708 208 q 931 92 808 92 q 1058 106 992 92 q 1165 140 1124 119 l 1165 31 q 1060 -1 1131 13 q 913 -14 990 -14 q 740 22 811 -14 q 632 138 669 57 q 511 26 592 65 q 335 -14 431 -14 q 142 44 208 -14 q 76 210 76 103 q 374 449 76 449 l 589 449 l 589 511 q 552 625 589 586 q 418 664 515 664 q 253 647 333 664 l 253 753 q 422 764 342 764 q 668 669 600 764 q 907 764 746 764 q 1142 675 1079 764 q 1206 450 1206 586 q 1197 353 1206 400 l 708 353 m 906 665 q 759 612 801 665 q 710 449 717 558 l 1089 449 q 1076 563 1089 517 q 1024 637 1064 608 q 906 665 983 665 m 346 86 q 499 124 438 86 q 589 229 560 161 l 589 353 l 382 353 q 242 324 283 353 q 200 211 200 294 q 234 117 200 149 q 346 86 268 86 m 694 1046 l 847 1046 l 675 854 l 578 854 l 694 1046 z "},"Ǿ":{"ha":1032,"x_min":100,"x_max":931,"o":"m 849 846 q 931 482 931 731 q 885 183 931 292 q 749 31 839 75 q 515 -14 658 -14 q 256 46 349 -14 l 222 0 l 100 0 l 185 114 q 100 482 100 231 q 146 781 100 672 q 282 933 192 889 q 515 978 372 978 q 779 915 689 978 l 808 956 l 931 956 l 849 846 m 229 482 q 237 329 229 393 q 264 221 244 265 l 708 821 q 515 872 644 872 q 337 831 399 872 q 252 707 275 790 q 229 482 229 624 m 803 482 q 769 738 803 654 l 326 140 q 515 93 390 93 q 695 133 633 93 q 780 254 757 172 q 803 482 803 336 m 610 1226 l 778 1226 l 556 1035 l 451 1035 l 610 1226 z "},"ǿ":{"ha":858,"x_min":82,"x_max":775,"o":"m 689 678 q 775 375 775 588 q 735 144 775 229 q 621 22 696 58 q 429 -14 546 -14 q 236 24 310 -14 l 183 -53 l 82 -53 l 168 72 q 82 375 82 167 q 122 606 82 521 q 238 728 161 692 q 429 764 314 764 q 622 728 546 764 l 674 803 l 775 803 l 689 678 m 208 375 q 240 176 208 240 l 560 638 q 429 664 511 664 q 296 638 343 664 q 228 549 249 611 q 208 375 208 486 m 650 375 q 618 575 650 511 l 299 113 q 429 86 346 86 q 563 113 515 86 q 630 201 610 139 q 650 375 650 263 m 481 1046 l 633 1046 l 461 854 l 364 854 l 481 1046 z "},"Ș":{"ha":786,"x_min":79,"x_max":707,"o":"m 365 -14 q 201 -2 282 -14 q 79 24 119 10 l 79 139 q 206 109 126 122 q 365 96 285 96 q 531 133 476 96 q 585 258 585 171 q 567 353 585 319 q 503 408 549 386 q 363 451 457 429 q 201 506 257 476 q 119 584 144 535 q 93 717 93 633 q 172 913 93 849 q 414 978 251 978 q 551 967 482 978 q 656 943 619 957 l 656 829 q 545 857 613 846 q 415 868 478 868 q 301 856 343 868 q 238 810 258 843 q 217 717 217 778 q 231 642 217 669 q 285 596 244 615 q 414 556 326 576 q 590 497 528 529 q 679 409 651 464 q 707 260 707 354 q 365 -14 707 -14 m 289 -278 q 332 -178 315 -229 q 349 -85 349 -126 l 482 -85 q 451 -176 482 -122 q 376 -278 419 -231 l 289 -278 z "},"ș":{"ha":665,"x_min":82,"x_max":585,"o":"m 300 -8 q 179 -1 246 -8 q 82 15 113 6 l 82 118 q 185 98 122 107 q 299 89 249 89 q 430 115 388 89 q 472 204 472 140 q 460 274 472 250 q 413 312 447 297 q 304 344 379 326 q 176 390 221 364 q 113 456 131 415 q 94 561 94 496 q 164 709 94 654 q 364 764 233 764 q 472 757 418 764 q 553 739 525 750 l 544 638 q 463 658 511 650 q 365 667 415 667 q 244 643 282 667 q 207 558 207 619 q 219 499 207 519 q 259 465 231 478 q 350 439 288 453 q 490 392 440 418 q 562 324 539 367 q 585 208 585 281 q 300 -8 585 -8 m 228 -278 q 271 -178 254 -229 q 288 -85 288 -126 l 421 -85 q 390 -176 421 -122 q 315 -278 358 -231 l 228 -278 z "},"Ț":{"ha":733,"x_min":22,"x_max":710,"o":"m 710 853 l 429 853 l 429 0 l 304 0 l 304 853 l 22 853 l 22 964 l 710 964 l 710 853 m 239 -278 q 282 -178 265 -229 q 299 -85 299 -126 l 432 -85 q 401 -176 432 -122 q 326 -278 369 -231 l 239 -278 z "},"ț":{"ha":468,"x_min":21,"x_max":442,"o":"m 360 92 q 442 100 403 92 l 442 -1 q 357 -8 393 -8 q 222 10 269 -8 q 153 80 175 29 q 132 229 132 131 l 132 650 l 21 650 l 21 750 l 132 750 l 132 928 l 251 928 l 251 750 l 438 750 l 438 650 l 251 650 l 251 236 q 260 145 251 175 q 290 103 268 115 q 360 92 313 92 m 183 -278 q 226 -178 210 -229 q 243 -85 243 -126 l 376 -85 q 345 -176 376 -122 q 271 -278 314 -231 l 183 -278 z "},"Ə":{"ha":999,"x_min":82,"x_max":897,"o":"m 454 978 q 699 932 603 978 q 847 777 796 886 q 897 482 897 668 q 847 187 897 296 q 702 32 797 78 q 463 -14 607 -14 q 163 100 244 -14 q 82 386 82 214 q 90 497 82 446 l 768 540 q 735 731 767 658 q 630 838 703 803 q 432 874 557 874 q 271 856 354 874 q 133 811 188 838 l 133 919 q 267 960 176 943 q 454 978 357 978 m 464 93 q 649 134 583 93 q 740 249 715 175 q 768 440 765 324 l 201 403 q 219 240 201 306 q 295 134 238 175 q 464 93 353 93 z "},"ə":{"ha":803,"x_min":82,"x_max":721,"o":"m 375 764 q 566 728 490 764 q 681 606 642 692 q 721 375 721 521 q 636 74 721 161 q 381 -14 551 -14 q 145 75 208 -14 q 82 300 82 164 q 89 388 82 344 l 597 419 q 542 602 596 546 q 357 658 489 658 q 230 644 296 658 q 122 610 164 631 l 122 719 q 228 751 157 738 q 375 764 299 764 m 382 85 q 512 113 465 85 q 576 194 558 142 q 597 331 594 247 l 199 301 q 211 188 199 233 q 264 113 224 142 q 382 85 304 85 z "},"Ⅶ":{"ha":1619,"x_min":22,"x_max":1492,"o":"m 22 964 l 156 964 l 426 132 l 435 132 l 710 964 l 836 964 l 504 0 l 349 0 l 22 964 m 985 964 l 1110 964 l 1110 0 l 985 0 l 985 964 m 1367 964 l 1492 964 l 1492 0 l 1367 0 l 1367 964 z "},"ʼ":{"ha":375,"x_min":90,"x_max":285,"o":"m 90 700 q 145 885 124 789 q 167 1056 167 981 l 285 1056 q 253 885 285 986 q 179 700 222 785 l 90 700 z "},"ˆ":{"ha":481,"x_min":19,"x_max":460,"o":"m 164 1046 l 315 1046 l 460 854 l 363 854 l 240 972 l 117 854 l 19 854 l 164 1046 z "},"ˇ":{"ha":481,"x_min":19,"x_max":460,"o":"m 19 1046 l 117 1046 l 239 928 l 363 1046 l 460 1046 l 315 854 l 164 854 l 19 1046 z "},"ˉ":{"ha":481,"x_min":38,"x_max":443,"o":"m 38 1008 l 443 1008 l 443 910 l 38 910 l 38 1008 z "},"˘":{"ha":481,"x_min":19,"x_max":463,"o":"m 242 825 q 94 874 147 825 q 19 1019 42 924 l 121 1019 q 165 947 132 974 q 242 919 197 919 q 317 947 286 919 q 360 1019 349 974 l 463 1019 q 388 874 440 924 q 242 825 336 825 z "},"˙":{"ha":481,"x_min":169,"x_max":313,"o":"m 242 888 q 185 901 200 888 q 169 958 169 914 q 185 1015 169 1003 q 242 1028 200 1028 q 297 1015 282 1028 q 313 958 313 1001 q 297 901 313 915 q 242 888 282 888 z "},"˚":{"ha":481,"x_min":97,"x_max":383,"o":"m 242 853 q 135 890 174 853 q 97 994 97 928 q 135 1097 97 1061 q 242 1132 174 1132 q 347 1096 310 1132 q 383 994 383 1060 q 347 890 383 928 q 242 853 310 853 m 242 931 q 303 990 303 931 q 288 1040 303 1025 q 242 1056 274 1056 q 195 1040 210 1056 q 181 990 181 1025 q 242 931 181 931 z "},"˛":{"ha":481,"x_min":93,"x_max":356,"o":"m 267 -283 q 140 -252 188 -283 q 93 -156 93 -221 q 139 -53 93 -101 q 246 17 185 -6 l 311 0 q 236 -53 260 -24 q 213 -126 213 -82 q 233 -187 213 -164 q 292 -210 254 -210 q 356 -200 322 -210 l 356 -267 q 267 -283 308 -283 z "},"˜":{"ha":481,"x_min":7,"x_max":478,"o":"m 343 876 q 274 886 301 876 q 222 914 247 896 q 198 931 214 919 q 169 949 182 943 q 146 956 157 956 q 115 937 125 956 q 101 876 104 918 l 7 883 q 48 1006 13 961 q 140 1051 83 1051 q 197 1041 175 1051 q 265 1000 219 1031 q 336 972 307 972 q 369 991 358 972 q 383 1051 381 1010 l 478 1044 q 435 922 472 967 q 343 876 399 876 z "},"˝":{"ha":481,"x_min":42,"x_max":535,"o":"m 158 1046 l 310 1046 l 138 854 l 42 854 l 158 1046 m 383 1046 l 535 1046 l 363 854 l 267 854 l 383 1046 z "},"ʹ":{"ha":354,"x_min":43,"x_max":310,"o":"m 172 1056 l 310 1056 l 118 644 l 43 644 l 172 1056 z "},"͵":{"ha":354,"x_min":43,"x_max":310,"o":"m 172 221 l 310 221 l 118 -190 l 43 -190 l 172 221 z "},";":{"ha":525,"x_min":92,"x_max":351,"o":"m 222 176 l 338 176 q 292 -10 338 93 q 190 -189 247 -112 l 92 -189 q 186 0 150 -100 q 222 176 222 100 m 174 672 q 192 742 174 726 q 263 758 211 758 q 333 742 314 758 q 351 672 351 726 q 333 600 351 617 q 263 583 314 583 q 209 590 228 583 q 182 615 190 596 q 174 672 174 633 z "},"Ά":{"ha":931,"x_min":19,"x_max":915,"o":"m 679 288 l 253 288 l 147 0 l 19 0 l 385 964 l 551 964 l 915 0 l 783 0 l 679 288 m 639 399 l 476 847 l 460 847 l 294 399 l 639 399 m 85 965 l 226 965 l 128 771 l 40 771 l 85 965 z "},"·":{"ha":496,"x_min":121,"x_max":299,"o":"m 121 675 q 140 745 121 729 q 210 761 158 761 q 280 745 261 761 q 299 675 299 729 q 280 603 299 619 q 210 586 261 586 q 156 592 175 586 q 129 617 138 599 q 121 675 121 636 z "},"Έ":{"ha":872,"x_min":-26,"x_max":799,"o":"m 799 113 l 799 0 l 228 0 l 228 964 l 764 964 l 764 853 l 353 853 l 353 554 l 736 554 l 736 449 l 353 449 l 353 113 l 799 113 m 18 965 l 160 965 l 61 771 l -26 771 l 18 965 z "},"Ή":{"ha":1082,"x_min":-26,"x_max":956,"o":"m 956 964 l 956 0 l 829 0 l 829 467 l 353 467 l 353 0 l 228 0 l 228 964 l 353 964 l 353 571 l 829 571 l 829 964 l 956 964 m 18 965 l 160 965 l 61 771 l -26 771 l 18 965 z "},"Ί":{"ha":481,"x_min":-26,"x_max":353,"o":"m 228 964 l 353 964 l 353 0 l 228 0 l 228 964 m 18 965 l 160 965 l 61 771 l -26 771 l 18 965 z "},"Ό":{"ha":1063,"x_min":-26,"x_max":961,"o":"m 546 -14 q 313 31 403 -14 q 176 183 222 75 q 131 482 131 292 q 176 781 131 672 q 313 933 222 889 q 546 978 403 978 q 779 933 689 978 q 915 781 869 889 q 961 482 961 672 q 915 183 961 292 q 779 31 869 75 q 546 -14 689 -14 m 546 93 q 724 133 663 93 q 809 254 786 172 q 832 482 832 336 q 809 707 832 624 q 724 831 786 790 q 546 872 663 872 q 369 831 431 872 q 284 707 307 790 q 261 482 261 624 q 284 254 261 336 q 368 133 307 172 q 546 93 429 93 m 18 965 l 160 965 l 61 771 l -26 771 l 18 965 z "},"Ύ":{"ha":1008,"x_min":-26,"x_max":1000,"o":"m 532 414 l 192 964 l 336 964 l 596 528 l 604 528 l 863 964 l 1000 964 l 657 415 l 657 0 l 532 0 l 532 414 m 18 965 l 160 965 l 61 771 l -26 771 l 18 965 z "},"Ώ":{"ha":1063,"x_min":-26,"x_max":960,"o":"m 144 99 l 317 99 q 179 299 226 194 q 132 542 132 404 q 546 978 132 978 q 856 870 753 978 q 960 542 960 763 q 913 299 960 404 q 775 99 865 194 l 949 99 l 949 0 l 635 0 l 635 90 q 788 303 744 203 q 832 526 832 404 q 771 781 832 689 q 546 872 710 872 q 322 781 383 872 q 261 526 261 689 q 305 303 261 404 q 457 90 349 203 l 457 0 l 144 0 l 144 99 m 18 965 l 160 965 l 61 771 l -26 771 l 18 965 z "},"ΐ":{"ha":433,"x_min":-50,"x_max":428,"o":"m 343 -8 q 208 10 256 -8 q 140 80 161 29 q 118 229 118 131 l 118 750 l 238 750 l 238 236 q 246 145 238 175 q 276 103 254 115 q 346 92 299 92 q 428 100 389 92 l 428 -1 q 343 -8 379 -8 m 158 1126 l 300 1126 l 203 932 l 117 932 l 158 1126 m 22 888 q -35 901 -19 888 q -50 958 -50 914 q -35 1015 -50 1003 q 22 1028 -19 1028 q 76 1015 61 1028 q 92 958 92 1001 q 76 901 92 915 q 22 888 61 888 m 335 888 q 279 901 294 888 q 264 958 264 914 q 278 1015 264 1001 q 335 1028 293 1028 q 390 1015 375 1028 q 406 958 406 1001 q 390 901 406 915 q 335 888 375 888 z "},"Α":{"ha":926,"x_min":15,"x_max":911,"o":"m 675 288 l 249 288 l 143 0 l 15 0 l 381 964 l 547 964 l 911 0 l 779 0 l 675 288 m 635 399 l 472 847 l 456 847 l 290 399 l 635 399 z "},"Β":{"ha":861,"x_min":128,"x_max":761,"o":"m 128 964 l 406 964 q 601 937 531 964 q 700 854 671 910 q 729 708 729 799 q 589 504 729 546 l 589 499 q 722 423 682 479 q 761 275 761 367 q 688 68 761 136 q 433 0 615 0 l 128 0 l 128 964 m 347 542 q 499 556 443 542 q 581 604 554 569 q 607 701 607 639 q 581 804 607 771 q 503 848 556 838 q 347 858 450 858 l 253 858 l 253 542 l 347 542 m 382 107 q 538 121 485 107 q 614 171 592 135 q 636 276 636 207 q 613 374 636 338 q 535 426 590 410 q 382 443 479 443 l 253 443 l 253 107 l 382 107 z "},"Γ":{"ha":704,"x_min":128,"x_max":671,"o":"m 671 851 l 253 851 l 253 0 l 128 0 l 128 964 l 671 964 l 671 851 z "},"Ε":{"ha":772,"x_min":128,"x_max":699,"o":"m 699 113 l 699 0 l 128 0 l 128 964 l 664 964 l 664 853 l 253 853 l 253 554 l 636 554 l 636 449 l 253 449 l 253 113 l 699 113 z "},"Ζ":{"ha":869,"x_min":81,"x_max":810,"o":"m 81 128 l 635 844 l 633 853 l 108 853 l 108 964 l 778 964 l 778 844 l 215 121 l 215 113 l 810 113 l 810 0 l 81 0 l 81 128 z "},"Η":{"ha":983,"x_min":128,"x_max":856,"o":"m 856 964 l 856 0 l 729 0 l 729 467 l 253 467 l 253 0 l 128 0 l 128 964 l 253 964 l 253 571 l 729 571 l 729 964 l 856 964 z "},"Θ":{"ha":1032,"x_min":100,"x_max":931,"o":"m 515 -14 q 282 31 372 -14 q 146 183 192 75 q 100 482 100 292 q 146 781 100 672 q 282 933 192 889 q 515 978 372 978 q 749 933 658 978 q 885 781 839 889 q 931 482 931 672 q 885 183 931 292 q 749 31 839 75 q 515 -14 658 -14 m 515 93 q 694 133 632 93 q 778 254 756 172 q 801 482 801 336 q 778 707 801 624 q 694 831 756 790 q 515 872 632 872 q 338 831 400 872 q 253 707 276 790 q 231 482 231 624 q 253 254 231 336 q 338 133 276 172 q 515 93 399 93 m 343 539 l 692 539 l 692 435 l 343 435 l 343 539 z "},"Ι":{"ha":381,"x_min":128,"x_max":253,"o":"m 128 964 l 253 964 l 253 0 l 128 0 l 128 964 z "},"Κ":{"ha":853,"x_min":128,"x_max":826,"o":"m 826 0 l 665 0 l 321 453 l 253 453 l 253 0 l 128 0 l 128 964 l 253 964 l 253 563 l 321 563 l 658 964 l 814 964 l 419 515 l 826 0 z "},"Λ":{"ha":857,"x_min":22,"x_max":836,"o":"m 353 964 l 508 964 l 836 0 l 703 0 l 432 832 l 424 832 l 147 0 l 22 0 l 353 964 z "},"Μ":{"ha":1153,"x_min":128,"x_max":1025,"o":"m 128 964 l 328 964 l 574 343 l 582 343 l 828 964 l 1025 964 l 1025 0 l 900 0 l 900 838 l 892 838 l 644 218 l 508 218 l 258 838 l 250 838 l 250 0 l 128 0 l 128 964 z "},"Ν":{"ha":1024,"x_min":128,"x_max":896,"o":"m 128 964 l 324 964 l 763 164 l 771 164 l 771 964 l 896 964 l 896 0 l 731 0 l 258 849 l 250 849 l 250 0 l 128 0 l 128 964 z "},"Ξ":{"ha":772,"x_min":75,"x_max":699,"o":"m 110 964 l 664 964 l 664 853 l 110 853 l 110 964 m 138 554 l 636 554 l 636 449 l 138 449 l 138 554 m 75 113 l 699 113 l 699 0 l 75 0 l 75 113 z "},"Ο":{"ha":1032,"x_min":100,"x_max":931,"o":"m 515 -14 q 282 31 372 -14 q 146 183 192 75 q 100 482 100 292 q 146 781 100 672 q 282 933 192 889 q 515 978 372 978 q 749 933 658 978 q 885 781 839 889 q 931 482 931 672 q 885 183 931 292 q 749 31 839 75 q 515 -14 658 -14 m 515 93 q 694 133 632 93 q 778 254 756 172 q 801 482 801 336 q 778 707 801 624 q 694 831 756 790 q 515 872 632 872 q 338 831 400 872 q 253 707 276 790 q 231 482 231 624 q 253 254 231 336 q 338 133 276 172 q 515 93 399 93 z "},"Π":{"ha":983,"x_min":128,"x_max":856,"o":"m 856 0 l 729 0 l 729 860 l 253 860 l 253 0 l 128 0 l 128 964 l 856 964 l 856 0 z "},"Ρ":{"ha":829,"x_min":128,"x_max":749,"o":"m 128 964 l 396 964 q 608 932 531 964 q 717 833 685 900 q 749 656 749 767 q 713 473 749 542 q 599 373 676 404 q 396 342 522 342 l 253 342 l 253 0 l 128 0 l 128 964 m 385 446 q 527 465 476 446 q 599 528 578 483 q 621 656 621 574 q 599 774 621 731 q 526 836 576 817 q 385 856 475 856 l 253 856 l 253 446 l 385 446 z "},"Σ":{"ha":828,"x_min":81,"x_max":768,"o":"m 81 126 l 372 492 l 97 844 l 97 964 l 733 964 l 733 853 l 231 853 l 511 493 l 207 113 l 768 113 l 768 0 l 81 0 l 81 126 z "},"Τ":{"ha":733,"x_min":22,"x_max":710,"o":"m 710 853 l 429 853 l 429 0 l 304 0 l 304 853 l 22 853 l 22 964 l 710 964 l 710 853 z "},"Υ":{"ha":825,"x_min":8,"x_max":817,"o":"m 349 414 l 8 964 l 153 964 l 413 528 l 421 528 l 679 964 l 817 964 l 474 415 l 474 0 l 349 0 l 349 414 z "},"Φ":{"ha":1154,"x_min":82,"x_max":1072,"o":"m 1072 481 q 969 190 1072 281 q 639 96 865 99 l 639 -14 l 515 -14 l 515 96 q 185 190 289 99 q 82 482 82 281 q 185 773 82 682 q 515 867 289 864 l 515 978 l 639 978 l 639 867 q 969 773 865 864 q 1072 481 1072 682 m 211 482 q 235 323 211 382 q 324 232 258 264 q 515 199 389 200 l 515 765 q 324 732 389 764 q 235 641 258 700 q 211 482 211 582 m 639 197 q 831 231 765 199 q 921 323 897 264 q 944 481 944 382 q 921 638 944 579 q 831 730 897 697 q 639 764 765 763 l 639 197 z "},"Χ":{"ha":867,"x_min":32,"x_max":833,"o":"m 349 490 l 58 964 l 204 964 l 433 568 l 442 568 l 686 964 l 822 964 l 521 499 l 833 0 l 688 0 l 440 414 l 432 414 l 172 0 l 32 0 l 349 490 z "},"Ψ":{"ha":1117,"x_min":96,"x_max":1021,"o":"m 1021 964 l 1021 629 q 922 385 1021 464 q 621 304 822 307 l 621 0 l 496 0 l 496 304 q 194 384 292 307 q 96 629 96 461 l 96 964 l 219 964 l 219 657 q 247 513 219 565 q 333 438 274 461 q 496 413 393 414 l 496 964 l 621 964 l 621 413 q 788 438 729 414 q 872 513 847 461 q 897 657 897 565 l 897 964 l 1021 964 z "},"Ϊ":{"ha":381,"x_min":-1,"x_max":382,"o":"m 128 964 l 253 964 l 253 0 l 128 0 l 128 964 m 71 1047 q 14 1060 29 1047 q -1 1118 -1 1074 q 14 1175 -1 1163 q 71 1188 29 1188 q 125 1174 110 1188 q 140 1118 140 1161 q 125 1061 140 1075 q 71 1047 110 1047 m 311 1047 q 256 1060 271 1047 q 240 1118 240 1074 q 255 1174 240 1161 q 311 1188 269 1188 q 367 1174 351 1188 q 382 1118 382 1161 q 367 1061 382 1075 q 311 1047 351 1047 z "},"Ϋ":{"ha":825,"x_min":8,"x_max":817,"o":"m 349 414 l 8 964 l 153 964 l 413 528 l 421 528 l 679 964 l 817 964 l 474 415 l 474 0 l 349 0 l 349 414 m 278 1049 q 222 1062 238 1049 q 207 1118 207 1075 q 222 1176 207 1163 q 278 1189 236 1189 q 333 1176 318 1189 q 349 1118 349 1163 q 333 1062 349 1075 q 278 1049 318 1049 m 549 1049 q 492 1062 507 1049 q 476 1118 476 1075 q 492 1176 476 1163 q 549 1189 507 1189 q 603 1176 588 1189 q 618 1118 618 1163 q 603 1062 618 1075 q 549 1049 588 1049 z "},"ά":{"ha":851,"x_min":82,"x_max":818,"o":"m 781 97 q 818 101 804 97 l 818 0 q 736 -8 782 -8 q 600 89 639 -8 q 512 11 564 36 q 382 -14 460 -14 q 154 84 226 -14 q 82 375 82 182 q 158 666 82 568 q 388 764 235 764 q 635 592 567 764 q 668 750 651 686 l 792 750 q 704 403 738 572 q 682 299 701 390 q 700 169 689 213 q 729 112 711 126 q 781 97 747 97 m 378 88 q 501 126 456 88 q 574 238 547 165 l 567 392 q 524 594 563 525 q 389 664 485 664 q 251 592 293 664 q 210 375 210 519 q 249 158 210 228 q 378 88 289 88 m 389 1047 l 531 1047 l 432 853 l 344 853 l 389 1047 z "},"έ":{"ha":707,"x_min":89,"x_max":651,"o":"m 425 -14 q 172 40 254 -14 q 89 206 89 93 q 249 382 89 347 l 249 385 q 147 442 181 401 q 113 554 113 483 q 191 710 113 656 q 418 764 269 764 q 611 736 533 764 l 611 628 q 421 660 529 660 q 280 633 325 660 q 235 553 235 607 q 284 465 235 493 q 440 438 333 438 l 546 438 l 546 331 l 439 331 q 266 302 321 331 q 211 211 211 274 q 428 92 211 92 q 651 124 569 92 l 651 14 q 553 -6 618 3 q 425 -14 488 -14 m 358 1047 l 500 1047 l 401 853 l 314 853 l 358 1047 z "},"ή":{"ha":893,"x_min":38,"x_max":772,"o":"m 519 764 q 715 700 658 764 q 772 519 772 636 l 772 -278 l 653 -278 l 653 475 q 623 613 653 569 q 508 657 593 657 q 365 627 422 657 q 279 507 307 597 l 279 0 l 160 0 l 160 569 q 145 641 160 624 q 93 658 131 658 q 38 651 63 658 l 38 750 q 115 758 71 758 q 227 729 188 758 q 276 638 267 700 q 373 735 307 706 q 519 764 439 764 m 461 1047 l 603 1047 l 504 853 l 417 853 l 461 1047 z "},"ί":{"ha":433,"x_min":118,"x_max":428,"o":"m 343 -8 q 208 10 256 -8 q 140 80 161 29 q 118 229 118 131 l 118 750 l 238 750 l 238 236 q 246 145 238 175 q 276 103 254 115 q 346 92 299 92 q 428 100 389 92 l 428 -1 q 343 -8 379 -8 m 175 1047 l 317 1047 l 218 853 l 131 853 l 175 1047 z "},"ΰ":{"ha":824,"x_min":121,"x_max":726,"o":"m 407 -14 q 194 58 267 -14 q 121 293 121 131 l 121 750 l 240 750 l 240 311 q 282 142 240 190 q 411 93 324 93 q 558 158 508 93 q 607 378 607 222 q 558 750 607 558 l 675 750 q 714 570 701 658 q 726 381 726 482 q 647 84 726 182 q 407 -14 568 -14 m 374 1126 l 515 1126 l 418 932 l 332 932 l 374 1126 m 238 888 q 181 901 196 888 q 165 958 165 914 q 181 1015 165 1003 q 238 1028 196 1028 q 292 1015 276 1028 q 307 958 307 1001 q 292 901 307 915 q 238 888 276 888 m 550 888 q 494 901 510 888 q 479 958 479 914 q 494 1015 479 1001 q 550 1028 508 1028 q 606 1015 590 1028 q 621 958 621 1001 q 606 901 621 915 q 550 888 590 888 z "},"α":{"ha":851,"x_min":82,"x_max":818,"o":"m 781 97 q 818 101 804 97 l 818 0 q 736 -8 782 -8 q 600 89 639 -8 q 512 11 564 36 q 382 -14 460 -14 q 154 84 226 -14 q 82 375 82 182 q 158 666 82 568 q 388 764 235 764 q 635 592 567 764 q 668 750 651 686 l 792 750 q 704 403 738 572 q 682 299 701 390 q 700 169 689 213 q 729 112 711 126 q 781 97 747 97 m 378 88 q 501 126 456 88 q 574 238 547 165 l 567 392 q 524 594 563 525 q 389 664 485 664 q 251 592 293 664 q 210 375 210 519 q 249 158 210 228 q 378 88 289 88 z "},"β":{"ha":847,"x_min":126,"x_max":764,"o":"m 564 567 q 715 481 667 546 q 764 300 764 417 q 685 64 764 143 q 457 -15 606 -15 q 246 15 324 -15 l 246 -278 l 126 -278 l 126 757 q 203 985 126 910 q 417 1061 281 1061 q 694 800 694 1061 q 663 659 694 714 q 564 575 631 604 l 564 567 m 425 89 q 592 140 540 89 q 644 301 644 192 q 583 463 644 411 q 392 514 522 514 l 325 514 l 325 611 l 390 611 q 534 655 488 611 q 581 792 581 699 q 539 922 581 878 q 422 965 497 965 q 291 915 336 965 q 246 743 246 864 l 246 119 q 425 89 333 89 z "},"γ":{"ha":731,"x_min":14,"x_max":717,"o":"m 304 0 l 14 750 l 135 750 l 360 153 l 372 153 l 592 750 l 717 750 l 424 0 l 424 -283 l 304 -283 l 304 0 z "},"δ":{"ha":858,"x_min":82,"x_max":775,"o":"m 511 728 q 672 642 615 692 q 752 523 729 593 q 775 347 775 453 q 689 69 775 151 q 429 -14 603 -14 q 169 69 256 -14 q 82 347 82 151 q 142 596 82 511 q 322 701 201 681 q 197 767 238 722 q 157 882 157 811 q 219 1023 157 978 q 415 1068 282 1068 q 678 1028 572 1068 l 678 918 q 549 949 608 939 q 415 958 489 958 q 310 940 339 958 q 282 882 282 922 q 306 824 282 847 q 373 781 329 800 q 511 728 417 761 m 429 88 q 561 113 514 88 q 628 193 608 138 q 649 347 649 249 q 628 501 649 444 q 560 583 607 557 q 429 608 513 608 q 297 583 344 608 q 230 502 250 558 q 210 347 210 446 q 231 194 210 250 q 299 113 251 138 q 429 88 347 88 z "},"ε":{"ha":707,"x_min":89,"x_max":651,"o":"m 425 -14 q 172 40 254 -14 q 89 206 89 93 q 249 382 89 347 l 249 385 q 147 442 181 401 q 113 554 113 483 q 191 710 113 656 q 418 764 269 764 q 611 736 533 764 l 611 628 q 421 660 529 660 q 280 633 325 660 q 235 553 235 607 q 284 465 235 493 q 440 438 333 438 l 546 438 l 546 331 l 439 331 q 266 302 321 331 q 211 211 211 274 q 428 92 211 92 q 651 124 569 92 l 651 14 q 553 -6 618 3 q 425 -14 488 -14 z "},"ζ":{"ha":646,"x_min":86,"x_max":636,"o":"m 383 -182 q 483 -162 451 -182 q 515 -99 515 -142 q 503 -56 515 -71 q 457 -28 492 -42 q 339 10 422 -14 q 145 123 204 49 q 86 343 86 197 q 172 647 86 507 q 439 957 257 786 l 121 957 l 121 1056 l 601 1056 l 601 965 q 308 637 401 785 q 214 358 214 489 q 235 230 214 278 q 301 153 257 182 q 422 103 346 125 q 556 51 510 78 q 619 -10 603 24 q 636 -93 636 -43 q 574 -232 636 -187 q 383 -276 513 -276 l 383 -182 z "},"η":{"ha":893,"x_min":38,"x_max":772,"o":"m 519 764 q 715 700 658 764 q 772 519 772 636 l 772 -278 l 653 -278 l 653 475 q 623 613 653 569 q 508 657 593 657 q 365 627 422 657 q 279 507 307 597 l 279 0 l 160 0 l 160 569 q 145 641 160 624 q 93 658 131 658 q 38 651 63 658 l 38 750 q 115 758 71 758 q 227 729 188 758 q 276 638 267 700 q 373 735 307 706 q 519 764 439 764 z "},"θ":{"ha":886,"x_min":96,"x_max":789,"o":"m 443 1068 q 635 1018 560 1068 q 749 849 710 968 q 789 528 789 731 q 749 205 789 324 q 635 36 710 86 q 443 -14 560 -14 q 251 36 328 -14 q 135 205 175 86 q 96 528 96 324 q 135 849 96 731 q 251 1018 175 968 q 443 1068 328 1068 m 443 968 q 315 933 361 968 q 248 816 269 899 q 224 581 226 733 l 663 581 q 638 815 660 732 q 569 933 615 899 q 443 968 524 968 m 443 88 q 571 122 525 88 q 638 237 617 156 q 663 469 658 318 l 224 469 q 250 238 228 321 q 318 122 272 156 q 443 88 364 88 z "},"ι":{"ha":433,"x_min":118,"x_max":428,"o":"m 343 -8 q 208 10 256 -8 q 140 80 161 29 q 118 229 118 131 l 118 750 l 238 750 l 238 236 q 246 145 238 175 q 276 103 254 115 q 346 92 299 92 q 428 100 389 92 l 428 -1 q 343 -8 379 -8 z "},"κ":{"ha":719,"x_min":126,"x_max":714,"o":"m 714 0 l 560 0 l 286 350 l 246 350 l 246 0 l 126 0 l 126 750 l 246 750 l 246 443 l 289 443 l 549 750 l 697 750 l 382 401 l 714 0 z "},"λ":{"ha":714,"x_min":14,"x_max":701,"o":"m 575 0 l 356 589 l 135 0 l 14 0 l 297 747 l 182 1056 l 310 1056 l 701 0 l 575 0 z "},"µ":{"ha":851,"x_min":121,"x_max":725,"o":"m 725 750 l 725 0 l 624 0 l 608 108 q 375 -14 551 -14 q 240 25 283 -14 l 240 -278 l 121 -278 l 121 750 l 240 750 l 240 275 q 270 137 240 182 q 385 92 300 92 q 522 122 468 92 q 606 240 576 151 l 606 750 l 725 750 z "},"ν":{"ha":731,"x_min":14,"x_max":717,"o":"m 14 750 l 135 750 l 363 119 l 371 119 l 590 750 l 717 750 l 436 0 l 294 0 l 14 750 z "},"ξ":{"ha":646,"x_min":86,"x_max":636,"o":"m 383 -182 q 515 -99 515 -182 q 503 -64 515 -76 q 460 -40 490 -51 q 353 -7 431 -29 q 149 101 211 35 q 86 289 86 167 q 132 469 86 406 q 261 569 178 532 q 172 640 200 597 q 143 758 143 682 q 169 869 143 822 q 250 957 194 917 l 121 957 l 121 1056 l 601 1056 l 601 960 q 344 915 424 958 q 264 767 264 871 q 314 656 264 689 q 481 624 364 624 l 538 624 l 538 514 l 476 514 q 277 460 347 514 q 207 297 207 407 q 226 203 207 239 q 293 141 244 167 q 435 90 342 115 q 565 40 521 67 q 622 -17 608 14 q 636 -93 636 -47 q 574 -229 636 -182 q 383 -276 511 -276 l 383 -182 z "},"ο":{"ha":858,"x_min":82,"x_max":775,"o":"m 429 -14 q 238 22 314 -14 q 122 144 161 58 q 82 375 82 229 q 122 606 82 521 q 238 728 161 692 q 429 764 314 764 q 621 728 546 764 q 735 606 696 692 q 775 375 775 521 q 735 144 775 229 q 621 22 696 58 q 429 -14 546 -14 m 429 88 q 563 114 515 88 q 629 201 610 140 q 649 375 649 263 q 628 549 649 486 q 560 638 607 611 q 429 664 513 664 q 297 638 343 664 q 230 549 250 611 q 210 375 210 488 q 231 202 210 264 q 299 114 251 140 q 429 88 346 88 z "},"π":{"ha":856,"x_min":33,"x_max":819,"o":"m 765 92 q 819 99 797 92 l 819 0 q 744 -8 789 -8 q 619 30 661 -8 q 578 151 578 68 l 578 650 l 267 650 l 267 633 q 260 281 267 464 q 243 0 253 97 l 119 0 q 147 633 147 250 l 147 650 l 33 650 l 33 750 l 815 750 l 815 650 l 697 650 l 697 181 q 713 110 697 128 q 765 92 728 92 z "},"ρ":{"ha":860,"x_min":107,"x_max":776,"o":"m 449 764 q 631 728 560 764 q 740 608 703 693 q 776 375 776 522 q 696 76 776 167 q 464 -14 615 -14 q 317 16 376 -14 q 226 114 257 46 l 226 -278 l 107 -278 l 107 375 q 196 678 107 592 q 449 764 285 764 m 450 88 q 603 154 557 88 q 650 375 650 221 q 629 546 650 483 q 565 636 608 608 q 449 664 521 664 q 282 601 338 664 q 226 375 226 538 q 281 155 226 222 q 450 88 336 88 z "},"ς":{"ha":690,"x_min":82,"x_max":643,"o":"m 390 -182 q 490 -162 458 -182 q 522 -99 522 -142 q 510 -57 522 -72 q 462 -28 497 -42 q 344 10 426 -14 q 144 133 207 50 q 82 375 82 215 q 122 606 82 521 q 238 728 161 692 q 429 764 314 764 q 625 736 542 764 l 625 626 q 431 660 536 660 q 299 634 347 660 q 231 551 251 608 q 210 393 210 493 q 228 238 210 292 q 292 156 247 185 q 429 103 336 128 q 562 53 515 81 q 626 -9 608 25 q 643 -93 643 -43 q 581 -232 643 -187 q 390 -276 519 -276 l 390 -182 z "},"σ":{"ha":888,"x_min":82,"x_max":878,"o":"m 878 651 l 706 651 q 757 524 739 592 q 775 364 775 457 q 690 72 775 157 q 429 -14 604 -14 q 237 23 313 -14 q 122 149 161 60 q 82 390 82 238 q 180 663 82 575 q 474 750 278 750 l 878 750 l 878 651 m 649 364 q 633 524 649 460 q 581 651 617 589 l 497 651 q 324 625 386 651 q 236 540 263 599 q 210 376 210 481 q 231 203 210 265 q 299 114 251 140 q 429 88 346 88 q 563 113 515 88 q 629 198 610 139 q 649 364 649 257 z "},"τ":{"ha":607,"x_min":7,"x_max":576,"o":"m 335 650 l 335 236 q 342 145 335 175 q 367 103 349 115 q 424 92 385 92 q 492 100 461 92 l 492 -1 q 421 -8 453 -8 q 300 11 343 -8 q 236 82 257 31 q 215 231 215 133 l 215 650 l 7 650 l 7 750 l 576 750 l 576 650 l 335 650 z "},"υ":{"ha":824,"x_min":121,"x_max":726,"o":"m 407 -14 q 194 58 267 -14 q 121 293 121 131 l 121 750 l 240 750 l 240 311 q 282 142 240 190 q 411 93 324 93 q 558 158 508 93 q 607 378 607 222 q 558 750 607 558 l 675 750 q 714 570 701 658 q 726 381 726 482 q 647 84 726 182 q 407 -14 568 -14 z "},"φ":{"ha":1075,"x_min":81,"x_max":994,"o":"m 994 379 q 894 93 994 193 q 600 -14 793 -7 l 600 -278 l 479 -278 l 479 -14 q 178 85 275 -7 q 81 371 81 178 q 183 657 81 557 q 479 764 286 757 l 479 1056 l 600 1056 l 600 764 q 899 665 803 757 q 994 379 994 572 m 208 368 q 237 206 208 267 q 324 119 265 146 q 479 88 382 92 l 479 664 q 275 587 342 657 q 208 368 208 517 m 600 86 q 802 164 736 93 q 868 382 868 235 q 806 594 868 531 q 600 663 743 657 l 600 86 z "},"χ":{"ha":707,"x_min":21,"x_max":688,"o":"m 268 251 l 32 750 l 157 750 l 344 329 l 358 329 l 549 750 l 672 750 l 438 253 l 688 -278 l 563 -278 l 358 176 l 346 176 l 144 -278 l 21 -278 l 268 251 z "},"ψ":{"ha":1035,"x_min":121,"x_max":953,"o":"m 953 432 q 863 97 953 204 q 586 -14 772 -11 l 586 -278 l 467 -278 l 467 -14 q 203 65 286 -12 q 121 293 121 143 l 121 750 l 240 750 l 240 311 q 294 138 240 188 q 467 88 349 89 l 467 750 l 586 750 l 586 88 q 769 165 706 90 q 833 428 833 240 q 783 750 833 579 l 900 750 q 953 432 953 588 z "},"ω":{"ha":1086,"x_min":96,"x_max":990,"o":"m 347 -14 q 159 79 222 -14 q 96 381 96 172 q 109 581 96 497 q 150 750 122 665 l 265 750 q 228 579 240 665 q 215 376 215 493 q 247 159 215 225 q 354 93 279 93 q 453 148 424 93 q 483 333 483 203 l 483 565 l 603 565 l 603 333 q 633 148 603 203 q 732 93 663 93 q 839 159 807 93 q 871 376 871 225 q 858 577 871 492 q 819 750 844 663 l 936 750 q 977 579 964 663 q 990 381 990 496 q 927 79 990 172 q 739 -14 864 -14 q 617 16 660 -14 q 543 108 574 46 q 469 16 511 46 q 347 -14 426 -14 z "},"ϊ":{"ha":433,"x_min":-14,"x_max":428,"o":"m 343 -8 q 208 10 256 -8 q 140 80 161 29 q 118 229 118 131 l 118 750 l 238 750 l 238 236 q 246 145 238 175 q 276 103 254 115 q 346 92 299 92 q 428 100 389 92 l 428 -1 q 343 -8 379 -8 m 58 888 q 1 901 17 888 q -14 958 -14 914 q 1 1015 -14 1003 q 58 1028 17 1028 q 113 1015 97 1028 q 128 958 128 1001 q 113 901 128 915 q 58 888 97 888 m 299 888 q 243 901 258 888 q 228 958 228 914 q 242 1015 228 1001 q 299 1028 257 1028 q 354 1015 339 1028 q 369 958 369 1001 q 354 901 369 915 q 299 888 339 888 z "},"ϋ":{"ha":824,"x_min":121,"x_max":726,"o":"m 407 -14 q 194 58 267 -14 q 121 293 121 131 l 121 750 l 240 750 l 240 311 q 282 142 240 190 q 411 93 324 93 q 558 158 508 93 q 607 378 607 222 q 558 750 607 558 l 675 750 q 714 570 701 658 q 726 381 726 482 q 647 84 726 182 q 407 -14 568 -14 m 274 888 q 217 901 232 888 q 201 958 201 914 q 217 1015 201 1003 q 274 1028 232 1028 q 328 1015 313 1028 q 343 958 343 1001 q 328 901 343 915 q 274 888 313 888 m 514 888 q 458 901 474 888 q 443 958 443 914 q 458 1015 443 1001 q 514 1028 472 1028 q 569 1015 554 1028 q 585 958 585 1001 q 569 901 585 915 q 514 888 554 888 z "},"ό":{"ha":858,"x_min":82,"x_max":775,"o":"m 429 -14 q 238 22 314 -14 q 122 144 161 58 q 82 375 82 229 q 122 606 82 521 q 238 728 161 692 q 429 764 314 764 q 621 728 546 764 q 735 606 696 692 q 775 375 775 521 q 735 144 775 229 q 621 22 696 58 q 429 -14 546 -14 m 429 88 q 563 114 515 88 q 629 201 610 140 q 649 375 649 263 q 628 549 649 486 q 560 638 607 611 q 429 664 513 664 q 297 638 343 664 q 230 549 250 611 q 210 375 210 488 q 231 202 210 264 q 299 114 251 140 q 429 88 346 88 m 425 1047 l 567 1047 l 468 853 l 381 853 l 425 1047 z "},"ύ":{"ha":824,"x_min":121,"x_max":726,"o":"m 407 -14 q 194 58 267 -14 q 121 293 121 131 l 121 750 l 240 750 l 240 311 q 282 142 240 190 q 411 93 324 93 q 558 158 508 93 q 607 378 607 222 q 558 750 607 558 l 675 750 q 714 570 701 658 q 726 381 726 482 q 647 84 726 182 q 407 -14 568 -14 m 389 1047 l 531 1047 l 432 853 l 344 853 l 389 1047 z "},"ώ":{"ha":1086,"x_min":96,"x_max":990,"o":"m 347 -14 q 159 79 222 -14 q 96 381 96 172 q 109 581 96 497 q 150 750 122 665 l 265 750 q 228 579 240 665 q 215 376 215 493 q 247 159 215 225 q 354 93 279 93 q 453 148 424 93 q 483 333 483 203 l 483 565 l 603 565 l 603 333 q 633 148 603 203 q 732 93 663 93 q 839 159 807 93 q 871 376 871 225 q 858 577 871 492 q 819 750 844 663 l 936 750 q 977 579 964 663 q 990 381 990 496 q 927 79 990 172 q 739 -14 864 -14 q 617 16 660 -14 q 543 108 574 46 q 469 16 511 46 q 347 -14 426 -14 m 539 1047 l 681 1047 l 582 853 l 494 853 l 539 1047 z "},"Ѐ":{"ha":772,"x_min":128,"x_max":699,"o":"m 699 113 l 699 0 l 128 0 l 128 964 l 664 964 l 664 853 l 253 853 l 253 554 l 636 554 l 636 449 l 253 449 l 253 113 l 699 113 m 138 1226 l 304 1226 l 464 1035 l 360 1035 l 138 1226 z "},"Ё":{"ha":772,"x_min":128,"x_max":699,"o":"m 699 113 l 699 0 l 128 0 l 128 964 l 664 964 l 664 853 l 253 853 l 253 554 l 636 554 l 636 449 l 253 449 l 253 113 l 699 113 m 281 1047 q 224 1060 239 1047 q 208 1118 208 1074 q 224 1175 208 1163 q 281 1188 239 1188 q 335 1174 319 1188 q 350 1118 350 1161 q 335 1061 350 1075 q 281 1047 319 1047 m 521 1047 q 465 1060 481 1047 q 450 1118 450 1074 q 465 1174 450 1161 q 521 1188 479 1188 q 576 1174 561 1188 q 592 1118 592 1161 q 576 1061 592 1075 q 521 1047 561 1047 z "},"Ђ":{"ha":1057,"x_min":22,"x_max":999,"o":"m 669 611 q 918 533 838 611 q 999 292 999 456 q 926 68 999 144 q 710 -8 853 -8 q 585 1 640 -8 l 585 106 q 704 96 640 96 q 831 140 793 96 q 869 288 869 183 q 823 459 869 410 q 663 508 776 508 q 429 476 553 508 l 429 0 l 304 0 l 304 853 l 22 853 l 22 964 l 710 964 l 710 853 l 429 853 l 429 581 q 669 611 557 611 z "},"Ѓ":{"ha":690,"x_min":128,"x_max":664,"o":"m 664 853 l 253 853 l 253 0 l 128 0 l 128 964 l 664 964 l 664 853 m 494 1226 l 663 1226 l 440 1035 l 336 1035 l 494 1226 z "},"Є":{"ha":832,"x_min":100,"x_max":772,"o":"m 543 99 q 662 108 608 99 q 772 136 715 117 l 772 28 q 669 -3 729 8 q 539 -14 608 -14 q 301 28 396 -14 q 153 179 206 71 q 100 482 100 288 q 216 863 100 749 q 553 978 332 978 q 761 950 674 978 l 761 835 q 556 868 672 868 q 319 794 397 868 q 232 544 242 721 l 728 544 l 728 439 l 232 439 q 271 232 236 306 q 371 128 306 158 q 543 99 436 99 z "},"Ѕ":{"ha":786,"x_min":79,"x_max":707,"o":"m 365 -14 q 201 -2 282 -14 q 79 24 119 10 l 79 139 q 206 109 126 122 q 365 96 285 96 q 531 133 476 96 q 585 258 585 171 q 567 353 585 319 q 503 408 549 386 q 363 451 457 429 q 201 506 257 476 q 119 584 144 535 q 93 717 93 633 q 172 913 93 849 q 414 978 251 978 q 551 967 482 978 q 656 943 619 957 l 656 829 q 545 857 613 846 q 415 868 478 868 q 301 856 343 868 q 238 810 258 843 q 217 717 217 778 q 231 642 217 669 q 285 596 244 615 q 414 556 326 576 q 590 497 528 529 q 679 409 651 464 q 707 260 707 354 q 365 -14 707 -14 z "},"І":{"ha":381,"x_min":128,"x_max":253,"o":"m 128 964 l 253 964 l 253 0 l 128 0 l 128 964 z "},"Ї":{"ha":381,"x_min":-1,"x_max":382,"o":"m 128 964 l 253 964 l 253 0 l 128 0 l 128 964 m 71 1047 q 14 1060 29 1047 q -1 1118 -1 1074 q 14 1175 -1 1163 q 71 1188 29 1188 q 125 1174 110 1188 q 140 1118 140 1161 q 125 1061 140 1075 q 71 1047 110 1047 m 311 1047 q 256 1060 271 1047 q 240 1118 240 1074 q 255 1174 240 1161 q 311 1188 269 1188 q 367 1174 351 1188 q 382 1118 382 1161 q 367 1061 382 1075 q 311 1047 351 1047 z "},"Ј":{"ha":376,"x_min":-106,"x_max":254,"o":"m -8 -251 q -106 -243 -67 -251 l -106 -132 q -12 -142 -54 -142 q 95 -95 61 -142 q 129 35 129 -49 l 129 964 l 254 964 l 254 22 q 188 -179 254 -107 q -8 -251 122 -251 z "},"Љ":{"ha":1485,"x_min":24,"x_max":1404,"o":"m 1081 571 q 1331 504 1257 571 q 1404 290 1404 438 q 1330 73 1404 146 q 1078 0 1256 0 l 747 0 l 747 860 l 424 860 l 361 392 q 301 150 342 239 q 194 23 261 61 q 24 -15 128 -15 l 24 99 q 126 123 86 97 q 192 216 165 149 q 236 407 219 283 l 313 964 l 872 964 l 872 571 l 1081 571 m 1025 107 q 1181 124 1126 107 q 1257 179 1235 140 q 1279 290 1279 218 q 1258 396 1279 358 q 1185 449 1236 433 q 1043 465 1135 465 l 872 465 l 872 107 l 1025 107 z "},"Њ":{"ha":1468,"x_min":128,"x_max":1386,"o":"m 1064 571 q 1313 503 1240 571 q 1386 290 1386 436 q 1312 73 1386 146 q 1060 0 1238 0 l 729 0 l 729 467 l 253 467 l 253 0 l 128 0 l 128 964 l 253 964 l 253 571 l 729 571 l 729 964 l 856 964 l 856 571 l 1064 571 m 1007 107 q 1163 124 1108 107 q 1239 179 1217 140 q 1261 290 1261 218 q 1240 396 1261 358 q 1167 449 1218 433 q 1026 465 1117 465 l 856 465 l 856 107 l 1007 107 z "},"Ћ":{"ha":1101,"x_min":22,"x_max":994,"o":"m 672 610 q 917 533 840 610 q 994 292 994 456 l 994 0 l 869 0 l 869 286 q 823 458 869 408 q 661 507 776 507 q 429 478 550 507 l 429 0 l 304 0 l 304 853 l 22 853 l 22 964 l 710 964 l 710 853 l 429 853 l 429 581 q 672 610 557 610 z "},"Ќ":{"ha":853,"x_min":128,"x_max":811,"o":"m 453 529 q 569 456 518 508 q 673 300 619 403 q 811 0 726 197 l 671 0 q 549 272 597 182 q 447 401 500 363 q 315 440 393 440 l 253 440 l 253 0 l 128 0 l 128 964 l 253 964 l 253 551 l 331 551 l 636 964 l 786 964 l 453 529 m 519 1226 l 688 1226 l 465 1035 l 361 1035 l 519 1226 z "},"Ѝ":{"ha":1024,"x_min":128,"x_max":896,"o":"m 128 964 l 253 964 l 253 164 l 261 164 l 707 964 l 896 964 l 896 0 l 772 0 l 772 849 l 764 849 l 286 0 l 128 0 l 128 964 m 247 1226 l 414 1226 l 574 1035 l 469 1035 l 247 1226 z "},"Ў":{"ha":783,"x_min":11,"x_max":785,"o":"m 96 92 q 259 122 206 92 q 343 221 313 153 l 11 964 l 140 964 l 403 353 l 411 353 l 664 964 l 785 964 l 476 240 q 387 89 435 143 q 271 12 339 35 q 96 -11 203 -11 l 96 92 m 407 1075 q 244 1122 294 1075 q 185 1260 193 1168 l 300 1260 q 331 1174 301 1204 q 407 1144 361 1144 q 482 1174 453 1144 q 513 1260 511 1204 l 628 1260 q 567 1122 617 1168 q 407 1075 517 1075 z "},"Џ":{"ha":983,"x_min":128,"x_max":856,"o":"m 856 964 l 856 0 l 554 0 l 554 -218 l 429 -218 l 429 0 l 128 0 l 128 964 l 253 964 l 253 110 l 729 110 l 729 964 l 856 964 z "},"А":{"ha":926,"x_min":15,"x_max":911,"o":"m 675 288 l 249 288 l 143 0 l 15 0 l 381 964 l 547 964 l 911 0 l 779 0 l 675 288 m 635 399 l 472 847 l 456 847 l 290 399 l 635 399 z "},"Б":{"ha":865,"x_min":128,"x_max":785,"o":"m 461 571 q 711 504 638 571 q 785 290 785 438 q 710 73 785 146 q 457 0 636 0 l 128 0 l 128 964 l 686 964 l 686 854 l 253 854 l 253 571 l 461 571 m 406 107 q 560 124 506 107 q 637 179 614 140 q 660 290 660 218 q 638 396 660 358 q 565 449 615 433 q 424 465 514 465 l 253 465 l 253 107 l 406 107 z "},"В":{"ha":861,"x_min":128,"x_max":761,"o":"m 128 964 l 406 964 q 601 937 531 964 q 700 854 671 910 q 729 708 729 799 q 589 504 729 546 l 589 499 q 722 423 682 479 q 761 275 761 367 q 688 68 761 136 q 433 0 615 0 l 128 0 l 128 964 m 347 542 q 499 556 443 542 q 581 604 554 569 q 607 701 607 639 q 581 804 607 771 q 503 848 556 838 q 347 858 450 858 l 253 858 l 253 542 l 347 542 m 382 107 q 538 121 485 107 q 614 171 592 135 q 636 276 636 207 q 613 374 636 338 q 535 426 590 410 q 382 443 479 443 l 253 443 l 253 107 l 382 107 z "},"Г":{"ha":690,"x_min":128,"x_max":664,"o":"m 664 853 l 253 853 l 253 0 l 128 0 l 128 964 l 664 964 l 664 853 z "},"Д":{"ha":1039,"x_min":13,"x_max":1007,"o":"m 1007 110 l 1007 -218 l 882 -218 l 882 0 l 138 0 l 138 -218 l 13 -218 l 13 110 l 115 110 q 190 247 158 163 q 240 471 222 332 l 304 964 l 850 964 l 850 110 l 1007 110 m 725 860 l 415 860 l 361 460 q 258 110 331 231 l 725 110 l 725 860 z "},"Е":{"ha":772,"x_min":128,"x_max":699,"o":"m 699 113 l 699 0 l 128 0 l 128 964 l 664 964 l 664 853 l 253 853 l 253 554 l 636 554 l 636 449 l 253 449 l 253 113 l 699 113 z "},"Ж":{"ha":1264,"x_min":11,"x_max":1253,"o":"m 894 529 q 1010 456 960 508 q 1115 299 1061 403 q 1253 0 1169 196 l 1113 0 q 990 272 1039 182 q 888 401 942 363 q 757 440 835 440 l 694 440 l 694 0 l 569 0 l 569 440 l 507 440 q 376 401 429 440 q 275 273 324 363 q 151 0 226 183 l 11 0 q 149 300 96 197 q 253 456 203 403 q 369 529 304 508 l 36 964 l 186 964 l 492 551 l 569 551 l 569 964 l 694 964 l 694 551 l 772 551 l 1078 964 l 1228 964 l 894 529 z "},"З":{"ha":785,"x_min":57,"x_max":685,"o":"m 311 -14 q 57 13 171 -14 l 57 125 q 181 100 125 108 q 311 92 236 92 q 502 133 444 92 q 560 267 560 175 q 493 406 560 367 q 276 446 426 446 l 115 446 l 115 550 l 278 550 q 432 568 376 550 q 510 622 488 586 q 532 715 532 658 q 487 833 532 796 q 328 869 442 869 q 86 836 204 869 l 86 944 l 115 951 q 221 971 172 964 q 335 978 269 978 q 578 917 500 978 q 656 724 656 856 q 613 582 656 633 q 489 506 571 531 l 489 497 q 637 422 589 479 q 685 265 685 364 q 593 58 685 131 q 311 -14 501 -14 z "},"И":{"ha":1024,"x_min":128,"x_max":896,"o":"m 128 964 l 253 964 l 253 164 l 261 164 l 707 964 l 896 964 l 896 0 l 772 0 l 772 849 l 764 849 l 286 0 l 128 0 l 128 964 z "},"Й":{"ha":1024,"x_min":128,"x_max":896,"o":"m 128 964 l 253 964 l 253 164 l 261 164 l 707 964 l 896 964 l 896 0 l 772 0 l 772 849 l 764 849 l 286 0 l 128 0 l 128 964 m 510 1075 q 347 1122 397 1075 q 288 1260 296 1168 l 403 1260 q 434 1174 404 1204 q 510 1144 464 1144 q 585 1174 556 1144 q 615 1260 614 1204 l 731 1260 q 669 1122 719 1168 q 510 1075 619 1075 z "},"К":{"ha":853,"x_min":128,"x_max":811,"o":"m 453 529 q 569 456 518 508 q 673 300 619 403 q 811 0 726 197 l 671 0 q 549 272 597 182 q 447 401 500 363 q 315 440 393 440 l 253 440 l 253 0 l 128 0 l 128 964 l 253 964 l 253 551 l 331 551 l 636 964 l 786 964 l 453 529 z "},"Л":{"ha":983,"x_min":24,"x_max":872,"o":"m 872 0 l 747 0 l 747 860 l 424 860 l 361 392 q 301 150 342 239 q 194 23 261 61 q 24 -15 128 -15 l 24 99 q 126 123 86 97 q 192 216 165 149 q 236 407 219 283 l 313 964 l 872 964 l 872 0 z "},"М":{"ha":1153,"x_min":128,"x_max":1025,"o":"m 128 964 l 328 964 l 574 343 l 582 343 l 828 964 l 1025 964 l 1025 0 l 900 0 l 900 838 l 892 838 l 644 218 l 508 218 l 258 838 l 250 838 l 250 0 l 128 0 l 128 964 z "},"Н":{"ha":983,"x_min":128,"x_max":856,"o":"m 856 964 l 856 0 l 729 0 l 729 467 l 253 467 l 253 0 l 128 0 l 128 964 l 253 964 l 253 571 l 729 571 l 729 964 l 856 964 z "},"О":{"ha":1032,"x_min":100,"x_max":931,"o":"m 515 -14 q 282 31 372 -14 q 146 183 192 75 q 100 482 100 292 q 146 781 100 672 q 282 933 192 889 q 515 978 372 978 q 749 933 658 978 q 885 781 839 889 q 931 482 931 672 q 885 183 931 292 q 749 31 839 75 q 515 -14 658 -14 m 515 93 q 694 133 632 93 q 778 254 756 172 q 801 482 801 336 q 778 707 801 624 q 694 831 756 790 q 515 872 632 872 q 338 831 400 872 q 253 707 276 790 q 231 482 231 624 q 253 254 231 336 q 338 133 276 172 q 515 93 399 93 z "},"П":{"ha":983,"x_min":128,"x_max":856,"o":"m 856 0 l 729 0 l 729 854 l 253 854 l 253 0 l 128 0 l 128 964 l 856 964 l 856 0 z "},"Р":{"ha":829,"x_min":128,"x_max":749,"o":"m 128 964 l 396 964 q 608 932 531 964 q 717 833 685 900 q 749 656 749 767 q 713 473 749 542 q 599 373 676 404 q 396 342 522 342 l 253 342 l 253 0 l 128 0 l 128 964 m 385 446 q 527 465 476 446 q 599 528 578 483 q 621 656 621 574 q 599 774 621 731 q 526 836 576 817 q 385 856 475 856 l 253 856 l 253 446 l 385 446 z "},"С":{"ha":832,"x_min":100,"x_max":772,"o":"m 539 -14 q 301 28 396 -14 q 153 179 206 71 q 100 482 100 288 q 216 863 100 749 q 553 978 332 978 q 761 950 674 978 l 761 835 q 556 868 672 868 q 372 831 443 868 q 266 710 301 794 q 231 485 231 626 q 264 249 231 333 q 364 132 297 165 q 543 99 431 99 q 662 108 608 99 q 772 136 715 117 l 772 28 q 669 -3 729 8 q 539 -14 608 -14 z "},"Т":{"ha":733,"x_min":22,"x_max":710,"o":"m 710 853 l 429 853 l 429 0 l 304 0 l 304 853 l 22 853 l 22 964 l 710 964 l 710 853 z "},"У":{"ha":783,"x_min":11,"x_max":785,"o":"m 96 92 q 259 122 206 92 q 343 221 313 153 l 11 964 l 140 964 l 403 353 l 411 353 l 664 964 l 785 964 l 476 240 q 387 89 435 143 q 271 12 339 35 q 96 -11 203 -11 l 96 92 z "},"Ф":{"ha":1154,"x_min":82,"x_max":1072,"o":"m 1072 481 q 969 190 1072 281 q 639 96 865 99 l 639 -14 l 515 -14 l 515 96 q 185 190 289 99 q 82 482 82 281 q 185 773 82 682 q 515 867 289 864 l 515 978 l 639 978 l 639 867 q 969 773 865 864 q 1072 481 1072 682 m 211 482 q 235 323 211 382 q 324 232 258 264 q 515 199 389 200 l 515 765 q 324 732 389 764 q 235 641 258 700 q 211 482 211 582 m 639 197 q 831 231 765 199 q 921 323 897 264 q 944 481 944 382 q 921 638 944 579 q 831 730 897 697 q 639 764 765 763 l 639 197 z "},"Х":{"ha":867,"x_min":32,"x_max":833,"o":"m 349 490 l 58 964 l 204 964 l 433 568 l 442 568 l 686 964 l 822 964 l 521 499 l 833 0 l 688 0 l 440 414 l 432 414 l 172 0 l 32 0 l 349 490 z "},"Ц":{"ha":1043,"x_min":128,"x_max":1013,"o":"m 1013 110 l 1013 -218 l 888 -218 l 888 0 l 128 0 l 128 964 l 253 964 l 253 110 l 729 110 l 729 964 l 856 964 l 856 110 l 1013 110 z "},"Ч":{"ha":908,"x_min":96,"x_max":781,"o":"m 781 964 l 781 0 l 654 0 l 654 381 q 418 353 536 353 q 173 430 250 353 q 96 672 96 507 l 96 964 l 221 964 l 221 676 q 267 506 221 554 q 429 457 314 457 q 654 485 535 457 l 654 964 l 781 964 z "},"Ш":{"ha":1465,"x_min":128,"x_max":1338,"o":"m 1338 964 l 1338 0 l 128 0 l 128 964 l 253 964 l 253 110 l 671 110 l 671 964 l 796 964 l 796 110 l 1213 110 l 1213 964 l 1338 964 z "},"Щ":{"ha":1524,"x_min":128,"x_max":1493,"o":"m 1493 110 l 1493 -218 l 1368 -218 l 1368 0 l 128 0 l 128 964 l 253 964 l 253 110 l 671 110 l 671 964 l 796 964 l 796 110 l 1213 110 l 1213 964 l 1338 964 l 1338 110 l 1493 110 z "},"Ъ":{"ha":1018,"x_min":22,"x_max":938,"o":"m 614 571 q 864 504 790 571 q 938 290 938 438 q 863 73 938 146 q 611 0 789 0 l 281 0 l 281 853 l 22 853 l 22 964 l 406 964 l 406 571 l 614 571 m 558 107 q 713 124 658 107 q 790 179 767 140 q 813 290 813 218 q 791 396 813 358 q 719 449 769 433 q 576 465 668 465 l 406 465 l 406 107 l 558 107 z "},"Ы":{"ha":1176,"x_min":128,"x_max":1049,"o":"m 461 571 q 711 504 638 571 q 785 290 785 438 q 710 73 785 146 q 457 0 636 0 l 128 0 l 128 964 l 253 964 l 253 571 l 461 571 m 406 107 q 560 124 506 107 q 637 179 614 140 q 660 290 660 218 q 638 396 660 358 q 565 449 615 433 q 424 465 514 465 l 253 465 l 253 107 l 406 107 m 924 964 l 1049 964 l 1049 0 l 924 0 l 924 964 z "},"Ь":{"ha":865,"x_min":128,"x_max":785,"o":"m 461 571 q 711 504 638 571 q 785 290 785 438 q 710 73 785 146 q 457 0 636 0 l 128 0 l 128 964 l 253 964 l 253 571 l 461 571 m 406 107 q 560 124 506 107 q 637 179 614 140 q 660 290 660 218 q 638 396 660 358 q 565 449 615 433 q 424 465 514 465 l 253 465 l 253 107 l 406 107 z "},"Э":{"ha":832,"x_min":60,"x_max":732,"o":"m 293 978 q 533 936 438 978 q 680 785 628 894 q 732 482 732 676 q 616 101 732 215 q 281 -14 500 -14 q 71 14 158 -14 l 71 129 q 276 96 160 96 q 454 129 385 96 q 560 238 524 163 q 601 443 597 314 l 106 443 l 106 549 l 600 549 q 558 741 593 672 q 458 838 522 810 q 290 865 393 865 q 170 856 224 865 q 60 828 117 847 l 60 936 q 163 967 103 956 q 293 978 224 978 z "},"Ю":{"ha":1429,"x_min":128,"x_max":1328,"o":"m 939 978 q 1153 933 1068 978 q 1283 780 1238 889 q 1328 482 1328 671 q 1283 184 1328 293 q 1153 31 1238 75 q 939 -14 1068 -14 q 726 29 810 -14 q 597 178 642 72 q 550 467 551 283 l 253 467 l 253 0 l 128 0 l 128 964 l 253 964 l 253 571 l 553 571 q 610 814 563 725 q 738 940 657 903 q 939 978 819 978 m 939 93 q 1099 133 1043 93 q 1176 255 1154 172 q 1197 482 1197 338 q 1176 707 1197 624 q 1098 831 1154 790 q 939 872 1042 872 q 780 831 836 872 q 701 706 724 790 q 679 482 679 622 q 701 255 679 338 q 778 133 722 172 q 939 93 835 93 z "},"Я":{"ha":853,"x_min":21,"x_max":725,"o":"m 725 964 l 725 0 l 600 0 l 600 388 l 481 388 q 433 389 449 388 l 168 0 l 21 0 l 310 403 q 160 491 208 426 q 113 679 113 556 q 149 848 113 786 q 264 937 185 910 q 481 964 343 964 l 725 964 m 600 856 l 492 856 q 344 842 397 856 q 265 790 290 828 q 239 679 239 751 q 264 558 239 599 q 342 505 289 518 q 492 492 394 492 l 600 492 l 600 856 z "},"а":{"ha":850,"x_min":76,"x_max":722,"o":"m 424 764 q 656 703 590 764 q 722 532 722 643 l 722 0 l 621 0 l 603 114 q 497 20 571 54 q 335 -14 422 -14 q 76 210 76 -14 q 153 393 76 338 q 374 449 231 449 l 603 449 l 603 511 q 564 625 603 586 q 418 664 525 664 q 253 647 333 664 l 253 753 q 424 764 342 764 m 346 86 q 506 124 439 86 q 603 229 574 163 l 603 353 l 382 353 q 242 324 283 353 q 200 211 200 294 q 234 117 200 149 q 346 86 268 86 z "},"б":{"ha":858,"x_min":88,"x_max":775,"o":"m 461 738 q 695 653 615 738 q 775 363 775 568 q 735 138 775 221 q 620 21 696 56 q 429 -14 544 -14 q 233 22 306 -14 q 124 162 161 58 q 88 464 88 265 q 122 774 88 658 q 228 947 156 890 q 422 1017 300 1004 l 717 1046 l 717 940 l 446 917 q 293 860 340 907 q 226 726 246 813 q 207 597 215 672 q 292 701 232 665 q 461 738 351 738 m 429 85 q 563 110 515 85 q 629 194 610 135 q 649 361 649 253 q 628 528 649 468 q 564 615 608 589 q 442 640 519 640 q 309 619 358 640 q 235 537 260 597 q 210 363 210 476 q 231 196 210 256 q 300 110 253 136 q 429 85 347 85 z "},"в":{"ha":806,"x_min":126,"x_max":717,"o":"m 126 760 l 442 760 q 636 715 579 760 q 693 561 693 669 q 666 450 693 490 q 588 393 639 410 l 588 389 q 685 331 654 371 q 717 210 717 290 q 656 43 717 96 q 463 -10 596 -10 l 126 -10 l 126 760 m 397 432 q 506 442 468 432 q 560 476 544 451 q 576 546 576 500 q 560 621 576 597 q 508 651 543 644 q 397 658 472 658 l 247 658 l 247 432 l 397 432 m 424 93 q 532 103 496 93 q 582 138 568 114 q 596 211 596 163 q 580 286 596 260 q 527 324 564 313 q 424 335 490 335 l 247 335 l 247 93 l 424 93 z "},"г":{"ha":532,"x_min":126,"x_max":499,"o":"m 499 650 l 246 650 l 246 0 l 126 0 l 126 750 l 499 750 l 499 650 z "},"д":{"ha":847,"x_min":24,"x_max":813,"o":"m 813 111 l 813 -218 l 693 -218 l 693 0 l 144 0 l 144 -218 l 24 -218 l 24 111 l 88 111 q 153 226 128 150 q 194 442 178 301 l 232 750 l 693 750 l 693 111 l 813 111 m 572 651 l 339 651 l 315 426 q 280 235 303 311 q 225 111 257 160 l 572 111 l 572 651 z "},"е":{"ha":803,"x_min":82,"x_max":722,"o":"m 722 450 q 715 363 722 421 l 207 331 q 261 148 208 204 q 447 92 314 92 q 574 106 508 92 q 682 140 639 119 l 682 31 q 576 -1 647 13 q 429 -14 506 -14 q 238 22 314 -14 q 122 144 161 58 q 82 375 82 229 q 167 676 82 589 q 422 764 253 764 q 658 675 594 764 q 722 450 722 586 m 604 449 q 592 563 604 517 q 539 637 579 608 q 422 665 499 665 q 292 637 339 665 q 228 556 246 608 q 207 419 210 503 l 604 449 z "},"ж":{"ha":1018,"x_min":10,"x_max":1008,"o":"m 726 411 q 822 357 783 393 q 903 240 861 321 q 1008 0 944 160 l 883 0 q 787 210 828 139 q 706 308 746 281 q 610 335 665 335 l 569 335 l 569 0 l 450 0 l 450 335 l 408 335 q 313 308 353 335 q 231 210 272 281 q 135 0 190 139 l 10 0 q 116 240 74 160 q 197 357 158 321 q 293 411 236 393 l 14 750 l 163 750 l 407 431 l 450 431 l 450 750 l 569 750 l 569 431 l 613 431 l 857 750 l 1004 750 l 726 411 z "},"з":{"ha":675,"x_min":65,"x_max":586,"o":"m 286 -14 q 65 7 167 -14 l 65 114 q 279 88 156 88 q 432 119 390 88 q 474 215 474 150 q 456 290 474 264 q 397 328 439 317 q 282 340 356 340 l 164 340 l 164 438 l 282 438 q 419 466 381 438 q 457 557 457 494 q 423 640 457 614 q 297 665 389 665 q 93 639 192 665 l 93 738 q 190 757 144 750 q 304 764 236 764 q 508 718 447 764 q 569 563 569 672 q 544 457 569 496 q 464 397 519 418 l 464 390 q 556 333 525 376 q 586 210 586 289 q 515 42 586 97 q 286 -14 444 -14 z "},"и":{"ha":896,"x_min":126,"x_max":769,"o":"m 126 750 l 246 750 l 246 154 l 254 154 l 589 750 l 769 750 l 769 0 l 650 0 l 650 643 l 642 643 l 276 0 l 126 0 l 126 750 z "},"й":{"ha":896,"x_min":126,"x_max":769,"o":"m 126 750 l 246 750 l 246 154 l 254 154 l 589 750 l 769 750 l 769 0 l 650 0 l 650 643 l 642 643 l 276 0 l 126 0 l 126 750 m 456 861 q 292 908 343 861 q 233 1046 242 954 l 349 1046 q 380 960 350 990 q 456 931 410 931 q 531 960 501 931 q 561 1046 560 990 l 676 1046 q 615 908 665 954 q 456 861 565 861 z "},"к":{"ha":694,"x_min":126,"x_max":685,"o":"m 403 411 q 499 357 460 393 q 579 240 538 321 q 685 0 621 160 l 560 0 q 463 210 504 139 q 382 308 422 281 q 286 335 342 335 l 246 335 l 246 0 l 126 0 l 126 750 l 246 750 l 246 431 l 289 431 l 533 750 l 682 750 l 403 411 z "},"л":{"ha":819,"x_min":17,"x_max":693,"o":"m 693 0 l 572 0 l 572 651 l 339 651 l 308 374 q 258 142 292 225 q 167 22 225 58 q 17 -15 110 -15 l 17 94 q 101 117 69 93 q 154 206 133 142 q 189 390 175 269 l 232 750 l 693 750 l 693 0 z "},"м":{"ha":1021,"x_min":126,"x_max":894,"o":"m 126 750 l 311 750 l 507 267 l 514 267 l 710 750 l 894 750 l 894 0 l 776 0 l 776 624 l 769 624 l 572 143 l 444 143 l 247 624 l 240 624 l 240 0 l 126 0 l 126 750 z "},"н":{"ha":892,"x_min":126,"x_max":765,"o":"m 765 750 l 765 0 l 644 0 l 644 338 l 246 338 l 246 0 l 126 0 l 126 750 l 246 750 l 246 450 l 644 450 l 644 750 l 765 750 z "},"о":{"ha":858,"x_min":82,"x_max":775,"o":"m 429 -14 q 238 22 314 -14 q 122 144 161 58 q 82 375 82 229 q 122 606 82 521 q 238 728 161 692 q 429 764 314 764 q 621 728 546 764 q 735 606 696 692 q 775 375 775 521 q 735 144 775 229 q 621 22 696 58 q 429 -14 546 -14 m 429 88 q 563 114 515 88 q 629 201 610 140 q 649 375 649 263 q 628 549 649 486 q 560 638 607 611 q 429 664 513 664 q 297 638 343 664 q 230 549 250 611 q 210 375 210 488 q 231 202 210 264 q 299 114 251 140 q 429 88 346 88 z "},"п":{"ha":892,"x_min":126,"x_max":765,"o":"m 765 0 l 644 0 l 644 638 l 246 638 l 246 0 l 126 0 l 126 750 l 765 750 l 765 0 z "},"р":{"ha":882,"x_min":126,"x_max":799,"o":"m 489 764 q 732 665 665 764 q 799 375 799 565 q 731 92 799 197 q 489 -14 663 -14 q 328 24 385 -14 q 246 131 271 61 l 246 -278 l 126 -278 l 126 750 l 246 750 l 246 615 q 328 725 271 686 q 489 764 386 764 m 474 88 q 634 164 594 88 q 674 375 674 240 q 633 589 674 514 q 474 664 593 664 q 292 591 344 664 q 240 375 240 518 q 293 162 240 236 q 474 88 346 88 z "},"с":{"ha":690,"x_min":82,"x_max":628,"o":"m 429 -14 q 238 22 314 -14 q 122 144 161 58 q 82 375 82 229 q 122 606 82 521 q 238 728 161 692 q 429 764 314 764 q 625 736 542 764 l 625 626 q 431 660 536 660 q 299 634 346 660 q 231 547 251 608 q 210 374 210 485 q 231 203 210 264 q 299 117 251 142 q 432 92 346 92 q 628 124 550 92 l 628 14 q 539 -6 596 3 q 429 -14 482 -14 z "},"т":{"ha":628,"x_min":25,"x_max":603,"o":"m 603 650 l 374 650 l 374 0 l 254 0 l 254 650 l 25 650 l 25 750 l 603 750 l 603 650 z "},"у":{"ha":732,"x_min":14,"x_max":718,"o":"m 93 -175 q 236 -134 188 -175 q 314 1 285 -93 l 14 750 l 143 750 l 372 128 l 381 128 l 597 750 l 718 750 l 449 25 q 369 -146 408 -83 q 264 -243 329 -208 q 93 -278 199 -278 l 93 -175 z "},"ф":{"ha":1250,"x_min":83,"x_max":1167,"o":"m 897 764 q 1051 729 993 764 q 1138 610 1108 694 q 1167 375 1167 525 q 1099 78 1167 171 q 892 -14 1031 -14 q 754 21 803 -14 q 685 122 706 56 l 685 -278 l 565 -278 l 565 128 q 353 -14 519 -14 q 199 21 257 -14 q 113 140 142 56 q 83 375 83 225 q 151 672 83 579 q 358 764 219 764 q 495 728 446 764 q 565 628 544 693 l 565 1056 l 685 1056 l 685 622 q 897 764 731 764 m 868 88 q 997 153 954 88 q 1040 375 1040 219 q 1020 551 1040 488 q 963 639 1000 614 q 868 664 925 664 q 722 591 764 664 q 679 375 679 518 q 722 162 679 236 q 868 88 764 88 m 382 86 q 528 159 486 86 q 571 375 571 232 q 528 588 571 514 q 382 663 486 663 q 253 597 296 663 q 210 375 210 531 q 230 199 210 263 q 288 111 250 136 q 382 86 325 86 z "},"х":{"ha":717,"x_min":19,"x_max":697,"o":"m 278 382 l 35 750 l 168 750 l 357 454 l 365 454 l 551 750 l 683 750 l 442 385 l 697 0 l 561 0 l 364 310 l 356 310 l 153 0 l 19 0 l 278 382 z "},"ц":{"ha":914,"x_min":126,"x_max":881,"o":"m 881 111 l 881 -218 l 760 -218 l 760 0 l 126 0 l 126 750 l 247 750 l 247 113 l 646 113 l 646 750 l 765 750 l 765 111 l 881 111 z "},"ч":{"ha":840,"x_min":110,"x_max":714,"o":"m 714 750 l 714 0 l 596 0 l 596 342 q 361 221 539 221 q 166 284 222 221 q 110 465 110 347 l 110 750 l 229 750 l 229 510 q 259 372 229 417 q 374 326 289 326 q 512 357 457 326 q 596 478 567 388 l 596 750 l 714 750 z "},"ш":{"ha":1240,"x_min":126,"x_max":1115,"o":"m 1115 750 l 1115 0 l 126 0 l 126 750 l 247 750 l 247 113 l 561 113 l 561 750 l 681 750 l 681 113 l 996 113 l 996 750 l 1115 750 z "},"щ":{"ha":1267,"x_min":126,"x_max":1232,"o":"m 1232 111 l 1232 -218 l 1111 -218 l 1111 0 l 126 0 l 126 750 l 247 750 l 247 113 l 561 113 l 561 750 l 681 750 l 681 113 l 996 113 l 996 750 l 1115 750 l 1115 111 l 1232 111 z "},"ъ":{"ha":908,"x_min":25,"x_max":843,"o":"m 594 469 q 785 413 728 469 q 843 233 843 357 q 781 56 843 113 q 585 0 718 0 l 242 0 l 242 650 l 25 650 l 25 750 l 363 750 l 363 469 l 594 469 m 553 103 q 656 115 619 103 q 707 154 692 126 q 722 233 722 182 q 685 338 722 310 q 553 367 649 367 l 363 367 l 363 103 l 553 103 z "},"ы":{"ha":1090,"x_min":126,"x_max":963,"o":"m 126 750 l 247 750 l 247 469 l 479 469 q 669 414 613 469 q 726 233 726 358 q 664 56 726 113 q 469 0 601 0 l 126 0 l 126 750 m 436 103 q 539 115 503 103 q 590 154 575 126 q 606 233 606 182 q 590 313 606 285 q 538 354 575 342 q 436 367 501 367 l 247 367 l 247 103 l 436 103 m 843 750 l 963 750 l 963 0 l 843 0 l 843 750 z "},"ь":{"ha":792,"x_min":126,"x_max":726,"o":"m 126 750 l 247 750 l 247 469 l 479 469 q 669 414 613 469 q 726 233 726 358 q 664 56 726 113 q 469 0 601 0 l 126 0 l 126 750 m 436 103 q 539 115 503 103 q 590 154 575 126 q 606 233 606 182 q 590 313 606 285 q 538 354 575 342 q 436 367 501 367 l 247 367 l 247 103 l 436 103 z "},"э":{"ha":690,"x_min":63,"x_max":608,"o":"m 261 764 q 453 728 378 764 q 569 606 529 692 q 608 375 608 521 q 569 144 608 229 q 453 22 529 58 q 261 -14 378 -14 q 65 14 149 -14 l 65 124 q 260 90 154 90 q 385 112 339 90 q 453 185 431 133 q 479 331 475 238 l 125 331 l 125 429 l 479 429 q 452 567 475 518 q 383 638 429 617 q 260 658 338 658 q 63 626 140 658 l 63 736 q 151 756 94 747 q 261 764 208 764 z "},"ю":{"ha":1161,"x_min":126,"x_max":1078,"o":"m 746 764 q 994 676 911 764 q 1078 375 1078 589 q 994 74 1078 161 q 746 -14 911 -14 q 504 66 588 -14 q 414 338 421 146 l 246 338 l 246 0 l 126 0 l 126 750 l 246 750 l 246 450 l 415 450 q 513 693 431 622 q 746 764 594 764 m 746 88 q 869 114 825 88 q 932 202 913 140 q 951 375 951 264 q 931 547 951 485 q 867 637 911 610 q 746 664 822 664 q 622 638 667 664 q 558 549 578 611 q 539 375 539 486 q 560 203 539 265 q 625 114 581 140 q 746 88 669 88 z "},"я":{"ha":725,"x_min":10,"x_max":599,"o":"m 599 750 l 599 0 l 479 0 l 479 296 l 354 296 l 346 296 l 144 0 l 10 0 l 225 307 q 101 377 136 325 q 67 525 67 429 q 97 658 67 610 q 197 728 128 707 q 388 750 267 750 l 599 750 m 479 651 l 397 651 q 273 640 317 651 q 211 602 229 629 q 193 525 193 575 q 206 444 193 471 q 254 405 218 417 q 365 393 290 393 l 479 393 l 479 651 z "},"ѐ":{"ha":803,"x_min":82,"x_max":722,"o":"m 722 450 q 715 363 722 421 l 207 331 q 261 148 208 204 q 447 92 314 92 q 574 106 508 92 q 682 140 639 119 l 682 31 q 576 -1 647 13 q 429 -14 506 -14 q 238 22 314 -14 q 122 144 161 58 q 82 375 82 229 q 167 676 82 589 q 422 764 253 764 q 658 675 594 764 q 722 450 722 586 m 604 449 q 592 563 604 517 q 539 637 579 608 q 422 665 499 665 q 292 637 339 665 q 228 556 246 608 q 207 419 210 503 l 604 449 m 194 1046 l 349 1046 l 465 854 l 368 854 l 194 1046 z "},"ё":{"ha":803,"x_min":82,"x_max":722,"o":"m 722 450 q 715 363 722 421 l 207 331 q 261 148 208 204 q 447 92 314 92 q 574 106 508 92 q 682 140 639 119 l 682 31 q 576 -1 647 13 q 429 -14 506 -14 q 238 22 314 -14 q 122 144 161 58 q 82 375 82 229 q 167 676 82 589 q 422 764 253 764 q 658 675 594 764 q 722 450 722 586 m 604 449 q 592 563 604 517 q 539 637 579 608 q 422 665 499 665 q 292 637 339 665 q 228 556 246 608 q 207 419 210 503 l 604 449 m 282 888 q 225 901 240 888 q 210 958 210 914 q 225 1015 210 1003 q 282 1028 240 1028 q 336 1015 321 1028 q 351 958 351 1001 q 336 901 351 915 q 282 888 321 888 m 522 888 q 467 901 482 888 q 451 958 451 914 q 466 1015 451 1001 q 522 1028 481 1028 q 578 1015 563 1028 q 593 958 593 1001 q 578 901 593 915 q 522 888 563 888 z "},"ђ":{"ha":858,"x_min":24,"x_max":738,"o":"m 483 -278 q 396 -271 444 -278 l 396 -172 q 490 -179 458 -179 q 572 -161 544 -179 q 608 -101 599 -143 q 618 22 618 -58 l 618 475 q 588 613 618 569 q 474 657 558 657 q 331 627 389 657 q 246 507 274 597 l 246 0 l 126 0 l 126 850 l 24 850 l 24 946 l 126 946 l 126 1056 l 246 1056 l 246 946 l 461 946 l 461 850 l 246 850 l 246 643 q 342 737 278 710 q 486 764 407 764 q 681 700 625 764 q 738 519 738 636 l 738 10 q 710 -171 738 -108 q 628 -256 682 -233 q 483 -278 575 -278 z "},"ѓ":{"ha":532,"x_min":126,"x_max":499,"o":"m 499 650 l 246 650 l 246 0 l 126 0 l 126 750 l 499 750 l 499 650 m 318 1046 l 471 1046 l 299 854 l 201 854 l 318 1046 z "},"є":{"ha":690,"x_min":82,"x_max":628,"o":"m 431 92 q 628 124 550 92 l 628 14 q 539 -6 596 3 q 429 -14 482 -14 q 238 22 314 -14 q 122 144 161 58 q 82 375 82 229 q 122 606 82 521 q 238 728 161 692 q 429 764 314 764 q 625 736 542 764 l 625 626 q 431 660 536 660 q 307 639 353 660 q 239 568 261 618 q 211 429 217 518 l 565 429 l 565 331 l 211 331 q 237 186 215 238 q 305 113 258 135 q 431 92 351 92 z "},"ѕ":{"ha":665,"x_min":82,"x_max":585,"o":"m 300 -8 q 179 -1 246 -8 q 82 15 113 6 l 82 118 q 185 98 122 107 q 299 89 249 89 q 430 115 388 89 q 472 204 472 140 q 460 274 472 250 q 413 312 447 297 q 304 344 379 326 q 176 390 221 364 q 113 456 131 415 q 94 561 94 496 q 164 709 94 654 q 364 764 233 764 q 472 757 418 764 q 553 739 525 750 l 544 638 q 463 658 511 650 q 365 667 415 667 q 244 643 282 667 q 207 558 207 619 q 219 499 207 519 q 259 465 231 478 q 350 439 288 453 q 490 392 440 418 q 562 324 539 367 q 585 208 585 281 q 300 -8 585 -8 z "},"і":{"ha":372,"x_min":115,"x_max":258,"o":"m 188 888 q 131 901 146 888 q 115 958 115 914 q 131 1016 115 1003 q 188 1029 146 1029 q 243 1016 228 1029 q 258 958 258 1003 q 243 901 258 915 q 188 888 228 888 m 126 750 l 246 750 l 246 0 l 126 0 l 126 750 z "},"ї":{"ha":372,"x_min":-4,"x_max":379,"o":"m 126 750 l 246 750 l 246 0 l 126 0 l 126 750 m 68 888 q 11 901 26 888 q -4 958 -4 914 q 11 1015 -4 1003 q 68 1028 26 1028 q 122 1015 107 1028 q 138 958 138 1001 q 122 901 138 915 q 68 888 107 888 m 308 888 q 253 901 268 888 q 238 958 238 914 q 252 1015 238 1001 q 308 1028 267 1028 q 364 1015 349 1028 q 379 958 379 1001 q 364 901 379 915 q 308 888 349 888 z "},"ј":{"ha":372,"x_min":-97,"x_max":258,"o":"m 188 888 q 131 901 146 888 q 115 958 115 914 q 131 1016 115 1003 q 188 1029 146 1029 q 243 1016 228 1029 q 258 958 258 1003 q 243 901 258 915 q 188 888 228 888 m -10 -278 q -97 -271 -49 -278 l -97 -172 q -1 -179 -35 -179 q 80 -161 53 -179 q 117 -101 107 -143 q 126 22 126 -58 l 126 750 l 246 750 l 246 10 q 218 -171 246 -108 q 136 -256 190 -233 q -10 -278 82 -278 z "},"љ":{"ha":1238,"x_min":17,"x_max":1172,"o":"m 925 469 q 1115 414 1058 469 q 1172 233 1172 358 q 1110 56 1172 113 q 915 0 1047 0 l 572 0 l 572 651 l 339 651 l 308 374 q 258 142 292 225 q 167 22 225 58 q 17 -15 110 -15 l 17 94 q 101 117 69 93 q 154 206 133 142 q 189 390 175 269 l 232 750 l 693 750 l 693 469 l 925 469 m 882 103 q 985 115 949 103 q 1036 154 1021 126 q 1051 233 1051 182 q 1036 313 1051 285 q 984 354 1021 342 q 882 367 947 367 l 693 367 l 693 103 l 882 103 z "},"њ":{"ha":1310,"x_min":126,"x_max":1244,"o":"m 997 469 q 1188 414 1131 469 q 1244 233 1244 358 q 1182 56 1244 113 q 988 0 1119 0 l 644 0 l 644 338 l 246 338 l 246 0 l 126 0 l 126 750 l 246 750 l 246 450 l 644 450 l 644 750 l 765 750 l 765 469 l 997 469 m 954 103 q 1057 115 1021 103 q 1108 154 1093 126 q 1124 233 1124 182 q 1108 313 1124 285 q 1056 354 1093 342 q 954 367 1019 367 l 765 367 l 765 103 l 954 103 z "},"ћ":{"ha":858,"x_min":24,"x_max":738,"o":"m 486 764 q 681 700 625 764 q 738 519 738 636 l 738 0 l 618 0 l 618 475 q 588 613 618 569 q 474 657 558 657 q 331 627 389 657 q 246 507 274 597 l 246 0 l 126 0 l 126 850 l 24 850 l 24 946 l 126 946 l 126 1056 l 246 1056 l 246 946 l 461 946 l 461 850 l 246 850 l 246 643 q 342 737 278 710 q 486 764 407 764 z "},"ќ":{"ha":694,"x_min":126,"x_max":685,"o":"m 403 411 q 499 357 460 393 q 579 240 538 321 q 685 0 621 160 l 560 0 q 463 210 504 139 q 382 308 422 281 q 286 335 342 335 l 246 335 l 246 0 l 126 0 l 126 750 l 246 750 l 246 431 l 289 431 l 533 750 l 682 750 l 403 411 m 400 1046 l 553 1046 l 381 854 l 283 854 l 400 1046 z "},"ѝ":{"ha":896,"x_min":126,"x_max":769,"o":"m 126 750 l 246 750 l 246 154 l 254 154 l 589 750 l 769 750 l 769 0 l 650 0 l 650 643 l 642 643 l 276 0 l 126 0 l 126 750 m 249 1046 l 403 1046 l 519 854 l 422 854 l 249 1046 z "},"ў":{"ha":732,"x_min":14,"x_max":718,"o":"m 93 -175 q 236 -134 188 -175 q 314 1 285 -93 l 14 750 l 143 750 l 372 128 l 381 128 l 597 750 l 718 750 l 449 25 q 369 -146 408 -83 q 264 -243 329 -208 q 93 -278 199 -278 l 93 -175 m 367 861 q 203 908 254 861 q 144 1046 153 954 l 260 1046 q 291 960 261 990 q 367 931 321 931 q 442 960 413 931 q 472 1046 471 990 l 588 1046 q 526 908 576 954 q 367 861 476 861 z "},"џ":{"ha":892,"x_min":126,"x_max":765,"o":"m 765 750 l 765 0 l 507 0 l 507 -218 l 386 -218 l 386 0 l 126 0 l 126 750 l 247 750 l 247 113 l 646 113 l 646 750 l 765 750 z "},"Ґ":{"ha":690,"x_min":128,"x_max":664,"o":"m 664 1182 l 664 853 l 253 853 l 253 0 l 128 0 l 128 964 l 538 964 l 538 1182 l 664 1182 z "},"ґ":{"ha":532,"x_min":126,"x_max":499,"o":"m 499 932 l 499 650 l 246 650 l 246 0 l 126 0 l 126 750 l 378 750 l 378 932 l 499 932 z "},"Ғ":{"ha":690,"x_min":10,"x_max":664,"o":"m 253 853 l 253 518 l 518 518 l 518 417 l 253 417 l 253 0 l 128 0 l 128 417 l 10 417 l 10 518 l 128 518 l 128 964 l 664 964 l 664 853 l 253 853 z "},"ғ":{"ha":532,"x_min":25,"x_max":499,"o":"m 246 650 l 246 403 l 425 403 l 425 307 l 246 307 l 246 0 l 126 0 l 126 307 l 25 307 l 25 403 l 126 403 l 126 750 l 499 750 l 499 650 l 246 650 z "},"Җ":{"ha":1283,"x_min":42,"x_max":1242,"o":"m 883 529 q 999 456 949 508 q 1103 300 1050 403 q 1242 0 1157 197 l 1082 0 q 962 272 1010 182 q 862 401 914 363 q 733 440 810 440 l 704 440 l 704 0 l 579 0 l 579 440 l 550 440 q 422 401 474 440 q 322 273 369 363 q 200 0 274 183 l 42 0 q 179 299 125 196 q 284 456 233 403 q 400 529 335 508 l 67 964 l 217 964 l 522 551 l 579 551 l 579 964 l 704 964 l 704 551 l 761 551 l 1067 964 l 1217 964 l 883 529 z "},"җ":{"ha":990,"x_min":10,"x_max":981,"o":"m 699 411 q 794 357 756 393 q 875 240 833 321 q 981 0 917 160 l 856 0 q 759 210 800 139 q 678 308 718 281 q 582 335 638 335 l 556 335 l 556 0 l 436 0 l 436 335 l 408 335 q 313 308 353 335 q 231 210 272 281 q 135 0 190 139 l 10 0 q 116 240 74 160 q 197 357 158 321 q 293 411 236 393 l 14 750 l 163 750 l 407 431 l 436 431 l 436 750 l 556 750 l 556 431 l 585 431 l 829 750 l 976 750 l 699 411 z "},"Қ":{"ha":936,"x_min":128,"x_max":903,"o":"m 903 110 l 903 -218 l 778 -218 l 778 0 l 671 0 q 549 272 597 182 q 447 401 500 363 q 315 440 393 440 l 253 440 l 253 0 l 128 0 l 128 964 l 253 964 l 253 551 l 331 551 l 636 964 l 786 964 l 453 529 q 558 467 511 511 q 651 340 604 424 q 764 110 699 257 l 903 110 z "},"қ":{"ha":764,"x_min":126,"x_max":729,"o":"m 729 111 l 729 -218 l 610 -218 l 610 0 l 560 0 q 463 210 504 139 q 382 308 422 281 q 286 335 342 335 l 246 335 l 246 0 l 126 0 l 126 750 l 246 750 l 246 431 l 289 431 l 533 750 l 682 750 l 403 411 q 488 366 453 394 q 557 279 522 338 q 639 111 592 221 l 729 111 z "},"Ҝ":{"ha":910,"x_min":128,"x_max":869,"o":"m 539 529 q 655 456 606 508 q 753 297 704 403 q 869 0 801 192 l 710 0 q 620 249 660 160 q 537 382 581 338 q 433 436 493 426 l 433 203 l 340 203 l 340 440 l 253 440 l 253 0 l 128 0 l 128 964 l 253 964 l 253 551 l 340 551 l 340 764 l 433 764 l 433 576 l 693 964 l 843 964 l 539 529 z "},"ҝ":{"ha":739,"x_min":126,"x_max":729,"o":"m 504 414 q 587 361 553 399 q 655 240 621 324 q 729 0 689 156 l 603 0 q 544 193 575 122 q 479 295 514 264 q 397 333 444 326 l 397 124 l 314 124 l 314 335 l 246 335 l 246 0 l 126 0 l 126 750 l 246 750 l 246 431 l 314 431 l 314 613 l 397 613 l 397 447 l 576 750 l 725 750 l 504 414 z "},"Ң":{"ha":983,"x_min":128,"x_max":1013,"o":"m 1013 110 l 1013 -218 l 888 -218 l 888 0 l 729 0 l 729 467 l 253 467 l 253 0 l 128 0 l 128 964 l 253 964 l 253 571 l 729 571 l 729 964 l 856 964 l 856 110 l 1013 110 z "},"ң":{"ha":914,"x_min":126,"x_max":881,"o":"m 881 111 l 881 -218 l 760 -218 l 760 0 l 644 0 l 644 338 l 246 338 l 246 0 l 126 0 l 126 750 l 246 750 l 246 450 l 644 450 l 644 750 l 765 750 l 765 111 l 881 111 z "},"Ү":{"ha":825,"x_min":8,"x_max":817,"o":"m 349 414 l 8 964 l 153 964 l 413 528 l 421 528 l 679 964 l 817 964 l 474 415 l 474 0 l 349 0 l 349 414 z "},"ү":{"ha":732,"x_min":14,"x_max":718,"o":"m 317 3 l 14 750 l 143 750 l 372 142 l 381 142 l 597 750 l 718 750 l 436 3 l 436 -278 l 317 -278 l 317 3 z "},"Ҳ":{"ha":957,"x_min":32,"x_max":924,"o":"m 924 110 l 924 -218 l 799 -218 l 799 0 l 688 0 l 440 414 l 432 414 l 172 0 l 32 0 l 349 490 l 58 964 l 204 964 l 433 568 l 442 568 l 686 964 l 822 964 l 521 499 l 764 110 l 924 110 z "},"ҳ":{"ha":717,"x_min":19,"x_max":721,"o":"m 721 111 l 721 -218 l 600 -218 l 600 0 l 561 0 l 364 310 l 356 310 l 153 0 l 19 0 l 278 382 l 35 750 l 168 750 l 357 454 l 365 454 l 551 750 l 683 750 l 442 385 l 624 111 l 721 111 z "},"Ҹ":{"ha":908,"x_min":96,"x_max":781,"o":"m 781 964 l 781 0 l 656 0 l 656 381 q 485 356 572 361 l 485 136 l 393 136 l 393 353 q 167 436 238 358 q 96 672 96 514 l 96 964 l 221 964 l 221 676 q 260 514 221 564 q 393 458 299 464 l 393 699 l 485 699 l 485 458 q 656 485 574 465 l 656 964 l 781 964 z "},"ҹ":{"ha":843,"x_min":110,"x_max":717,"o":"m 717 750 l 717 0 l 597 0 l 597 339 q 447 229 556 253 l 447 56 l 364 56 l 364 221 l 361 221 q 166 284 222 221 q 110 465 110 347 l 110 750 l 229 750 l 229 510 q 258 374 229 418 q 364 326 286 329 l 364 544 l 447 544 l 447 332 q 538 374 500 342 q 597 474 575 407 l 597 750 l 717 750 z "},"Һ":{"ha":908,"x_min":128,"x_max":811,"o":"m 489 611 q 734 534 657 611 q 811 292 811 457 l 811 0 l 686 0 l 686 288 q 666 417 686 369 q 601 486 646 465 q 479 507 557 507 q 253 479 375 507 l 253 0 l 128 0 l 128 964 l 253 964 l 253 583 q 489 611 383 611 z "},"һ":{"ha":858,"x_min":126,"x_max":738,"o":"m 486 764 q 681 700 625 764 q 738 519 738 636 l 738 0 l 618 0 l 618 475 q 588 613 618 569 q 474 657 558 657 q 331 627 389 657 q 246 507 274 597 l 246 0 l 126 0 l 126 1056 l 246 1056 l 246 643 q 342 737 278 710 q 486 764 407 764 z "},"Ӏ":{"ha":381,"x_min":128,"x_max":253,"o":"m 128 964 l 253 964 l 253 0 l 128 0 l 128 964 z "},"ӏ":{"ha":371,"x_min":126,"x_max":246,"o":"m 126 1056 l 246 1056 l 246 0 l 126 0 l 126 1056 z "},"Ә":{"ha":999,"x_min":82,"x_max":897,"o":"m 454 978 q 699 932 603 978 q 847 777 796 886 q 897 482 897 668 q 847 187 897 296 q 702 32 797 78 q 463 -14 607 -14 q 163 100 244 -14 q 82 386 82 214 q 90 497 82 446 l 768 540 q 735 731 767 658 q 630 838 703 803 q 432 874 557 874 q 271 856 354 874 q 133 811 188 838 l 133 919 q 267 960 176 943 q 454 978 357 978 m 464 93 q 649 134 583 93 q 740 249 715 175 q 768 440 765 324 l 201 403 q 219 240 201 306 q 295 134 238 175 q 464 93 353 93 z "},"ә":{"ha":803,"x_min":81,"x_max":721,"o":"m 374 764 q 565 728 489 764 q 681 606 642 692 q 721 375 721 521 q 635 74 721 161 q 379 -14 550 -14 q 144 75 207 -14 q 81 300 81 164 q 88 388 81 344 l 596 419 q 542 602 594 546 q 356 658 489 658 q 229 644 294 658 q 121 610 164 631 l 121 719 q 226 751 156 738 q 374 764 297 764 m 381 85 q 510 113 464 85 q 575 194 557 142 q 596 331 593 247 l 197 301 q 210 188 197 233 q 263 113 222 142 q 381 85 303 85 z "},"Ө":{"ha":1032,"x_min":100,"x_max":931,"o":"m 515 978 q 749 933 658 978 q 885 781 839 889 q 931 482 931 672 q 885 183 931 292 q 749 31 839 75 q 515 -14 658 -14 q 282 31 372 -14 q 146 183 192 75 q 100 482 100 292 q 146 781 100 672 q 282 933 192 889 q 515 978 372 978 m 515 872 q 348 837 408 872 q 262 729 288 801 q 232 538 236 657 l 800 538 q 770 729 796 657 q 684 837 744 801 q 515 872 624 872 m 515 93 q 686 128 625 93 q 772 236 747 163 q 801 436 797 310 l 231 436 q 260 236 235 310 q 345 128 285 163 q 515 93 406 93 z "},"ө":{"ha":858,"x_min":82,"x_max":775,"o":"m 429 764 q 621 728 546 764 q 735 606 696 692 q 775 375 775 521 q 735 144 775 229 q 621 22 696 58 q 429 -14 546 -14 q 238 22 314 -14 q 122 144 161 58 q 82 375 82 229 q 122 606 82 521 q 238 728 161 692 q 429 764 314 764 m 429 664 q 304 642 350 664 q 237 568 258 619 q 211 425 215 517 l 647 425 q 620 568 643 517 q 552 642 597 619 q 429 664 507 664 m 429 88 q 555 110 510 88 q 622 184 600 132 q 647 329 643 236 l 211 329 q 238 185 215 238 q 306 110 260 132 q 429 88 353 88 z "},"Ẁ":{"ha":1247,"x_min":36,"x_max":1211,"o":"m 36 964 l 167 964 l 347 146 l 356 146 l 551 851 l 701 851 l 897 146 l 906 146 l 1085 964 l 1211 964 l 982 0 l 824 0 l 628 714 l 619 714 l 419 0 l 261 0 l 36 964 m 363 1226 l 529 1226 l 689 1035 l 585 1035 l 363 1226 z "},"ẁ":{"ha":1150,"x_min":31,"x_max":1121,"o":"m 31 750 l 150 750 l 308 121 l 317 121 l 503 750 l 644 750 l 836 121 l 844 121 l 1003 750 l 1121 750 l 913 0 l 764 0 l 578 615 l 569 615 l 382 0 l 233 0 l 31 750 m 369 1046 l 524 1046 l 640 854 l 543 854 l 369 1046 z "},"Ẃ":{"ha":1247,"x_min":36,"x_max":1211,"o":"m 36 964 l 167 964 l 347 146 l 356 146 l 551 851 l 701 851 l 897 146 l 906 146 l 1085 964 l 1211 964 l 982 0 l 824 0 l 628 714 l 619 714 l 419 0 l 261 0 l 36 964 m 718 1226 l 886 1226 l 664 1035 l 560 1035 l 718 1226 z "},"ẃ":{"ha":1150,"x_min":31,"x_max":1121,"o":"m 31 750 l 150 750 l 308 121 l 317 121 l 503 750 l 644 750 l 836 121 l 844 121 l 1003 750 l 1121 750 l 913 0 l 764 0 l 578 615 l 569 615 l 382 0 l 233 0 l 31 750 m 628 1046 l 781 1046 l 608 854 l 511 854 l 628 1046 z "},"Ẅ":{"ha":1247,"x_min":36,"x_max":1211,"o":"m 36 964 l 167 964 l 347 146 l 356 146 l 551 851 l 701 851 l 897 146 l 906 146 l 1085 964 l 1211 964 l 982 0 l 824 0 l 628 714 l 619 714 l 419 0 l 261 0 l 36 964 m 490 1049 q 435 1062 450 1049 q 419 1118 419 1075 q 434 1176 419 1163 q 490 1189 449 1189 q 546 1176 531 1189 q 561 1118 561 1163 q 546 1062 561 1075 q 490 1049 531 1049 m 761 1049 q 704 1062 719 1049 q 689 1118 689 1075 q 704 1176 689 1163 q 761 1189 719 1189 q 815 1176 800 1189 q 831 1118 831 1163 q 815 1062 831 1075 q 761 1049 800 1049 z "},"ẅ":{"ha":1150,"x_min":31,"x_max":1121,"o":"m 31 750 l 150 750 l 308 121 l 317 121 l 503 750 l 644 750 l 836 121 l 844 121 l 1003 750 l 1121 750 l 913 0 l 764 0 l 578 615 l 569 615 l 382 0 l 233 0 l 31 750 m 457 888 q 400 901 415 888 q 385 958 385 914 q 400 1015 385 1003 q 457 1028 415 1028 q 511 1015 496 1028 q 526 958 526 1001 q 511 901 526 915 q 457 888 496 888 m 697 888 q 642 901 657 888 q 626 958 626 914 q 641 1015 626 1001 q 697 1028 656 1028 q 753 1015 738 1028 q 768 958 768 1001 q 753 901 768 915 q 697 888 738 888 z "},"ẞ":{"ha":1001,"x_min":124,"x_max":922,"o":"m 706 553 q 834 494 788 528 q 901 406 881 461 q 922 260 922 350 q 646 -14 922 -14 q 513 -2 578 -14 q 413 24 447 10 l 413 139 q 517 109 451 122 q 646 96 582 96 q 762 133 724 96 q 800 258 800 171 q 787 352 800 318 q 738 410 774 386 q 629 456 701 433 q 482 544 525 489 q 439 699 439 599 q 521 872 439 818 q 355 844 414 869 q 272 767 296 819 q 249 619 249 714 l 249 0 l 124 0 l 124 650 q 156 823 124 753 q 279 935 188 893 q 542 978 371 978 q 885 944 746 978 l 885 833 q 697 856 799 856 q 594 817 629 856 q 560 718 560 779 q 569 647 560 675 q 611 595 579 618 q 706 553 643 572 z "},"Ỳ":{"ha":825,"x_min":8,"x_max":817,"o":"m 349 414 l 8 964 l 153 964 l 413 528 l 421 528 l 679 964 l 817 964 l 474 415 l 474 0 l 349 0 l 349 414 m 151 1226 l 318 1226 l 478 1035 l 374 1035 l 151 1226 z "}}}
